<svg id="Capa_1" enable-background="new 0 0 511.867 511.867" height="512" viewBox="0 0 511.867 511.867" width="512" xmlns="http://www.w3.org/2000/svg"><path d="m289.266 254.287c22.713 0 41.19-18.478 41.19-41.191s-18.478-41.191-41.19-41.191-41.191 18.478-41.191 41.191 18.478 41.191 41.191 41.191zm0-67.382c14.441 0 26.19 11.749 26.19 26.191s-11.749 26.191-26.19 26.191c-14.442 0-26.191-11.749-26.191-26.191s11.748-26.191 26.191-26.191z"/><path d="m197.901 357.477 42.668 26.063c2.359 1.442 4.983 2.166 7.615 2.166 2.369 0 4.744-.587 6.938-1.767 4.628-2.49 7.501-7.113 7.686-12.365l1.715-48.856c.184-5.241-2.35-10.047-6.776-12.858-4.426-2.81-9.854-3.058-14.519-.663l-44.383 22.792c-4.698 2.413-7.738 7.19-7.934 12.468s2.484 10.266 6.99 13.02zm51.609-34.644-1.67 47.572-41.547-25.379z"/><path d="m504.367 322.684c4.143 0 7.5-3.358 7.5-7.5v-186.221c0-17.013-13.841-30.854-30.854-30.854h-140.232v-38.04c0-17.085-13.9-30.985-30.985-30.985h-15.332c-4.143 0-7.5 3.358-7.5 7.5s3.357 7.5 7.5 7.5h15.332c8.814 0 15.985 7.171 15.985 15.985v38.039h-16.561v-27.011c0-6.694-5.446-12.14-12.14-12.14h-82.293c-6.693 0-12.14 5.446-12.14 12.14v27.012h-16.562v-38.04c0-8.814 7.171-15.985 15.985-15.985h57.529c4.143 0 7.5-3.358 7.5-7.5s-3.357-7.5-7.5-7.5h-57.529c-17.085 0-30.985 13.9-30.985 30.985v38.039h-140.231c-17.013 0-30.854 13.842-30.854 30.855v287.604c0 11.697 6.542 21.894 16.16 27.125 4.371 2.379 9.378 3.731 14.694 3.731h.115v15.393c0 11.01 8.957 19.967 19.967 19.967h26.519c8.226 0 15.508-4.938 18.552-12.583l9.067-22.779h301.722l9.068 22.78c3.043 7.643 10.325 12.582 18.551 12.582h26.519c11.01 0 19.967-8.957 19.967-19.967v-15.393h.115c5.316 0 10.323-1.352 14.694-3.731 9.618-5.231 16.16-15.428 16.16-27.125v-66.55c0-4.142-3.357-7.5-7.5-7.5s-7.5 3.358-7.5 7.5v23.471c-.428-.011-.855-.035-1.283-.035-26.678 0-48.381 21.703-48.381 48.38 0 3.612.397 7.147 1.165 10.589h-55.934v-133.874c5.776-1.683 10.012-7.015 10.012-13.327v-24.913c0-6.312-4.236-11.645-10.012-13.328v-133.872h55.935c-.768 3.443-1.166 6.98-1.166 10.594 0 26.677 21.703 48.38 48.381 48.38.428 0 .855-.023 1.283-.035v58.646l-47.527 27.2c-7.158 4.097-10.221 12.664-7.284 20.369l11.053 29.006c1.783 4.679 5.53 8.272 10.28 9.858 1.729.578 3.512.862 5.284.862 3.096 0 6.16-.869 8.854-2.565l19.34-12.18v11.94c-.003 4.143 3.355 7.501 7.497 7.501zm-8.783 65.769c.427 0 .853.008 1.279.024v28.085c0 6.012-3.36 11.254-8.3 13.943-2.246 1.221-4.819 1.916-7.551 1.916h-17.102c-1.134-3.382-1.707-6.928-1.707-10.589 0-18.405 14.975-33.379 33.381-33.379zm-36.691 58.968c.007 0 .014.001.021.001h6.984v15.393c0 2.739-2.229 4.967-4.967 4.967h-26.519c-2.046 0-3.857-1.229-4.614-3.129l-6.859-17.232zm-99.83-334.313h18.37v133.311h-18.37zm-141.416-39.151h76.572v24.152h-76.572zm-202.643 55.005c0-8.74 7.11-15.85 15.85-15.85h22.229c1.137 3.392 1.711 6.938 1.711 10.59 0 18.406-14.97 33.38-33.37 33.38-2.168 0-4.314-.207-6.42-.616zm15.85 303.459c-2.732 0-5.304-.695-7.551-1.916-4.94-2.689-8.3-7.931-8.3-13.943v-27.494c2.105-.41 4.251-.616 6.42-.616 18.4 0 33.37 14.974 33.37 33.38 0 3.651-.574 7.197-1.71 10.589zm51.215 32.231c-.758 1.901-2.569 3.13-4.615 3.13h-26.518c-2.738 0-4.967-2.228-4.967-4.967v-15.393h12.115c.007 0 .014-.001.021-.001h30.823zm37.365-217.671c-5.776 1.683-10.012 7.016-10.012 13.328v24.913c0 6.312 4.236 11.644 10.012 13.327v133.873h-50.808c.77-3.446 1.167-6.981 1.167-10.589 0-26.677-21.699-48.38-48.37-48.38-2.159 0-4.303.145-6.424.427v-202.224c2.121.282 4.265.426 6.424.426 26.671 0 48.37-21.703 48.37-48.38 0-3.609-.398-7.146-1.169-10.594h50.808v133.873zm33.37 185.44h-18.37v-133.311h18.37zm10.012-148.311h-38.395v-22.69h38.395zm181.247-37.129c-5.776 1.683-10.013 7.016-10.013 13.328v24.913c0 6.312 4.236 11.644 10.013 13.327v133.873h-176.26v-133.873c5.776-1.683 10.013-7.015 10.013-13.327v-24.913c0-6.312-4.236-11.645-10.013-13.328v-16.922c0-4.142-3.357-7.5-7.5-7.5s-7.5 3.358-7.5 7.5v16.361h-18.37v-133.312h18.37v82.493c0 4.142 3.357 7.5 7.5 7.5s7.5-3.358 7.5-7.5v-82.493h176.26zm33.371 185.44h-18.37v-133.311h18.37zm10.011-148.311h-38.395v-22.69h38.395zm109.418-127.052c-.427.016-.853.024-1.279.024-18.406 0-33.381-14.974-33.381-33.38 0-3.662.572-7.208 1.707-10.59h17.104c8.739 0 15.85 7.11 15.85 15.85v28.096zm-27.33 145.673c-.544.343-1.058.279-1.394.168-.337-.113-.786-.373-1.015-.973l-11.053-29.006c-.289-.76.013-1.604.719-2.008l40.076-22.936v37.541z"/></svg>