<svg width="209" height="62" viewBox="0 0 209 62" fill="none" xmlns="http://www.w3.org/2000/svg">
<line x1="2" y1="61.5" x2="207" y2="61.5" stroke="black"/>
<path d="M11.7188 43.8281L11.5078 45.0703C9.38281 45.0234 7.44531 45 5.69531 45C3.94531 45 2.28125 45.0234 0.703125 45.0703L0.84375 43.875L3.44531 43.1484C4.19531 42.8828 4.77344 42.5078 5.17969 42.0234C5.60156 41.5391 5.96875 41.0391 6.28125 40.5234L23.1094 12.0938L25.6875 11.6953L30.5859 40.1719C30.6797 40.7031 30.7734 41.1562 30.8672 41.5312C30.9766 41.8906 31.0938 42.1719 31.2188 42.375C31.4688 42.7812 31.8672 43.0625 32.4141 43.2188L34.8984 43.875L34.7344 45.0703C32.1875 45.0234 29.7812 45 27.5156 45C25.3125 45 22.8516 45.0234 20.1328 45.0703L20.25 43.875L22.5234 43.2188C22.8516 43.1094 23.1172 42.9688 23.3203 42.7969C23.5391 42.625 23.6484 42.2891 23.6484 41.7891C23.6484 41.3047 23.5312 40.3672 23.2969 38.9766L22.5938 34.6172H12.8672L10.4062 38.9062C9.90625 39.7969 9.5 40.5469 9.1875 41.1562C8.875 41.7656 8.71875 42.2031 8.71875 42.4688C8.71875 42.7812 8.98438 43.0234 9.51562 43.1953L11.7188 43.8281ZM14.2266 32.2031H22.1953L20.8125 23.5781L20.5078 21.0938L19.1719 23.5547L14.2266 32.2031ZM51.5625 9.70312L51.8438 9.98438C51.7031 10.5781 51.5469 11.2578 51.375 12.0234C51.2031 12.7734 51.0156 13.6016 50.8125 14.5078C50.625 15.3984 50.4219 16.3516 50.2031 17.3672C50 18.3828 49.7812 19.4297 49.5469 20.5078L48.5156 25.4766C51.9062 23.7734 54.1406 22.9219 55.2188 22.9219C57.1562 22.9219 58.75 23.7188 60 25.3125C61.2656 26.9062 61.8984 28.7891 61.8984 30.9609C61.8984 35.3984 60.4922 38.9531 57.6797 41.625C54.8672 44.2969 51.2188 45.6328 46.7344 45.6328C43.9844 45.6328 41.125 45.125 38.1562 44.1094C38.625 42.2969 39.2266 39.5781 39.9609 35.9531L42.2344 24.7969L44.6016 13.3125L40.7109 12.75L40.7344 11.7422C44.8438 11.1016 48.4531 10.4219 51.5625 9.70312ZM44.9062 43.0781C45.6562 43.2656 46.3672 43.3594 47.0391 43.3594C49.4453 43.3594 51.3828 42.2344 52.8516 39.9844C54.3359 37.7344 55.0781 35.125 55.0781 32.1562C55.0781 30.4844 54.8438 29.1094 54.375 28.0312C53.9219 26.9375 53.2031 26.3906 52.2188 26.3906C51.0625 26.3906 49.6719 26.8359 48.0469 27.7266L44.9062 43.0781ZM78.7734 22.875C82.1484 22.875 84.8438 23.7578 86.8594 25.5234C88.875 27.2734 89.8828 29.6328 89.8828 32.6016C89.8828 36.3516 88.6562 39.4609 86.2031 41.9297C83.7656 44.3984 80.6094 45.6328 76.7344 45.6328C73.3125 45.6328 70.6016 44.7578 68.6016 43.0078C66.6172 41.2422 65.625 38.9141 65.625 36.0234C65.625 32.2266 66.8281 29.0859 69.2344 26.6016C71.6406 24.1172 74.8203 22.875 78.7734 22.875ZM78.4922 25.2891C76.7578 25.2891 75.3203 26.3594 74.1797 28.5C73.0391 30.625 72.4766 33.1719 72.4922 36.1406C72.5078 38.3594 72.9062 40.0938 73.6875 41.3438C74.4688 42.5938 75.5781 43.2188 77.0156 43.2188C78.7969 43.2188 80.2344 42.125 81.3281 39.9375C82.4219 37.7344 82.9688 35.2031 82.9688 32.3438C82.9688 30.125 82.5703 28.3984 81.7734 27.1641C80.9766 25.9141 79.8828 25.2891 78.4922 25.2891ZM94.125 25.0781L94.2656 24C97 23.2812 99.2734 22.9219 101.086 22.9219C102.133 22.9219 102.938 23.1016 103.5 23.4609C104.078 23.8203 104.367 24.3984 104.367 25.1953C104.367 25.5703 104.336 25.8906 104.273 26.1562L101.93 36.7969C101.789 37.4844 101.719 38.1172 101.719 38.6953C101.719 39.7578 101.945 40.5859 102.398 41.1797C102.867 41.7578 103.5 42.0469 104.297 42.0469C105.703 42.0469 107.383 41.1562 109.336 39.375L112.617 23.625L119.203 23.3906L115.617 40.7812C115.523 41.2344 115.477 41.6016 115.477 41.8828C115.477 42.1953 115.531 42.4453 115.641 42.6328C115.766 42.8203 115.969 42.9688 116.25 43.0781C116.531 43.1719 116.898 43.2344 117.352 43.2656C117.82 43.2969 118.398 43.3203 119.086 43.3359L118.945 44.4375C116.211 45.0938 114.164 45.4219 112.805 45.4219C111.633 45.4219 110.703 45.1562 110.016 44.625C109.344 44.0781 109.008 43.3047 109.008 42.3047C109.008 42.1641 109.016 42.0156 109.031 41.8594C106.438 44.3906 103.883 45.6562 101.367 45.6562C99.5234 45.6562 98.0391 45.1094 96.9141 44.0156C95.8047 42.9062 95.25 41.3984 95.25 39.4922C95.25 39.0703 95.2734 38.6328 95.3203 38.1797C95.3828 37.7266 95.4609 37.2578 95.5547 36.7734L97.4766 27.4453C97.6016 26.8359 97.6641 26.4297 97.6641 26.2266C97.6641 25.8047 97.4766 25.5078 97.1016 25.3359C96.7266 25.1641 95.7344 25.0781 94.125 25.0781ZM132.094 17.9531L135.961 17.2734L136.242 17.4375C135.523 20.3906 135.031 22.4844 134.766 23.7188H141.352L140.883 26.1797H134.203C133.75 28.1797 133.289 30.2109 132.82 32.2734C132.367 34.3203 131.93 36.3828 131.508 38.4609C131.367 39.1641 131.297 39.7734 131.297 40.2891C131.297 41.1797 131.516 41.8047 131.953 42.1641C132.391 42.5234 133.008 42.7031 133.805 42.7031C134.883 42.7031 136.305 42.4609 138.07 41.9766L138.305 43.5C135.414 44.9062 132.688 45.6094 130.125 45.6094C128.375 45.6094 127.016 45.25 126.047 44.5312C125.078 43.8125 124.594 42.7422 124.594 41.3203C124.594 40.8516 124.641 40.3359 124.734 39.7734C125.016 38.2891 125.398 36.4219 125.883 34.1719C126.383 31.9219 127.008 29.1875 127.758 25.9688L124.43 25.1016L124.5 24.0938L128.625 23.7188L132.094 17.9531ZM157.711 12.1875C159.039 12.2187 160.273 12.2422 161.414 12.2578C162.57 12.2734 163.688 12.2812 164.766 12.2812C165.891 12.2812 167.023 12.2734 168.164 12.2578C169.32 12.2422 170.508 12.2187 171.727 12.1875L171.586 13.3828L168.68 14.25C168.32 14.3438 168.094 14.5859 168 14.9766C167.891 15.5234 167.773 16.125 167.648 16.7812C167.539 17.4219 167.414 18.125 167.273 18.8906L165 31.0078C164.641 32.9453 164.461 34.5703 164.461 35.8828C164.461 38.1797 165 39.9453 166.078 41.1797C167.156 42.3984 168.75 43.0078 170.859 43.0078C172.281 43.0078 173.492 42.7344 174.492 42.1875C175.492 41.6406 176.336 40.8984 177.023 39.9609C177.711 39.0234 178.266 37.9219 178.688 36.6562C179.125 35.375 179.492 34.0078 179.789 32.5547L182.367 18.8906C182.508 18.125 182.633 17.4219 182.742 16.7812C182.852 16.125 182.953 15.5234 183.047 14.9766C183.094 14.5859 182.938 14.3438 182.578 14.25L179.672 13.4531L179.859 12.1875C180.984 12.2187 181.984 12.2422 182.859 12.2578C183.75 12.2734 184.547 12.2812 185.25 12.2812C185.969 12.2812 186.766 12.2734 187.641 12.2578C188.516 12.2422 189.492 12.2187 190.57 12.1875L190.43 13.3828L187.172 14.2969C186.781 14.4063 186.539 14.6719 186.445 15.0938C186.336 15.6094 186.219 16.1875 186.094 16.8281C185.969 17.4688 185.828 18.1875 185.672 18.9844L183.398 30.8203C182.93 33.1953 182.352 35.3125 181.664 37.1719C180.992 39.0312 180.109 40.6016 179.016 41.8828C177.938 43.1484 176.594 44.1172 174.984 44.7891C173.391 45.4453 171.438 45.7734 169.125 45.7734C165.438 45.7734 162.578 44.9062 160.547 43.1719C158.531 41.4219 157.523 38.8594 157.523 35.4844C157.523 34.2188 157.664 32.8672 157.945 31.4297L160.312 18.9844C160.469 18.1875 160.602 17.4688 160.711 16.8281C160.82 16.1875 160.922 15.6094 161.016 15.0938C161.094 14.6875 160.953 14.4219 160.594 14.2969L157.523 13.3828L157.711 12.1875ZM203.484 25.5469C202.531 25.2969 201.656 25.1719 200.859 25.1719C199.281 25.1719 198.062 25.4453 197.203 25.9922C196.344 26.5234 195.914 27.3203 195.914 28.3828C195.914 28.8359 196.031 29.2344 196.266 29.5781C196.516 29.9219 196.852 30.2422 197.273 30.5391C197.695 30.8203 198.172 31.0938 198.703 31.3594C199.234 31.6094 199.789 31.8672 200.367 32.1328C201.055 32.4609 201.742 32.8125 202.43 33.1875C203.117 33.5625 203.719 34 204.234 34.5C204.766 34.9844 205.203 35.5547 205.547 36.2109C205.891 36.8516 206.062 37.6094 206.062 38.4844C206.062 40.7656 205.156 42.5312 203.344 43.7812C201.547 45.0156 199.062 45.6328 195.891 45.6328C194.391 45.6328 192.906 45.4922 191.438 45.2109C189.984 44.9297 188.648 44.5547 187.43 44.0859C187.695 43.1484 187.953 42.1641 188.203 41.1328C188.453 40.1016 188.688 39.0469 188.906 37.9688L190.078 37.7812L191.602 42.8438C192.742 43.1719 193.867 43.3359 194.977 43.3359C196.414 43.3359 197.555 43.0391 198.398 42.4453C199.242 41.8516 199.664 40.9922 199.664 39.8672C199.664 39.3828 199.539 38.9609 199.289 38.6016C199.039 38.2422 198.703 37.9141 198.281 37.6172C197.875 37.3203 197.406 37.0469 196.875 36.7969C196.344 36.5312 195.797 36.2656 195.234 36C194.578 35.7031 193.938 35.375 193.312 35.0156C192.703 34.6562 192.148 34.2344 191.648 33.75C191.148 33.2656 190.742 32.7031 190.43 32.0625C190.133 31.4219 189.984 30.6719 189.984 29.8125C189.984 27.625 190.938 25.9297 192.844 24.7266C194.766 23.5078 197.336 22.8984 200.555 22.8984C203.008 22.8984 205.375 23.2656 207.656 24C207.422 24.7969 207.18 25.6953 206.93 26.6953C206.695 27.6953 206.469 28.7656 206.25 29.9062L205.102 30.1172L203.484 25.5469Z" fill="black"/>
<line x1="2" y1="0.5" x2="207" y2="0.5" stroke="black"/>
</svg>
