<svg width="327" height="53" viewBox="0 0 327 53" fill="none" xmlns="http://www.w3.org/2000/svg">
<path d="M90.322 28.8711L90.5563 28.6367V28.4805C90.5563 28.4284 90.6214 28.2721 90.7516 28.0117C90.8819 27.7383 90.999 27.556 91.1032 27.4648C91.2204 27.3737 91.305 27.2695 91.3571 27.1523C91.4092 27.0221 91.5264 26.944 91.7087 26.918C91.6306 26.7878 91.5915 26.6836 91.5915 26.6055L91.5134 26.2344C91.5134 26.2083 91.5524 26.1562 91.6306 26.0781L91.7477 25.9219C91.8128 25.8698 91.8975 25.8047 92.0016 25.7266C92.1058 25.6484 92.1644 25.5443 92.1774 25.4141C92.1905 25.2708 92.2816 25.082 92.4509 24.8477C92.6332 24.6003 92.7699 24.4766 92.861 24.4766C92.9522 24.4766 93.0303 24.4505 93.0954 24.3984C93.1605 24.3464 93.2191 24.3203 93.2712 24.3203C93.3493 24.3203 93.4144 24.3789 93.4665 24.4961C93.5316 24.6133 93.5772 24.6719 93.6032 24.6719C93.7074 24.6719 93.7595 24.6068 93.7595 24.4766C93.7595 24.4115 93.6944 24.3659 93.5641 24.3398C93.447 24.3008 93.3688 24.2292 93.3298 24.125C93.2907 24.0208 93.2516 23.9362 93.2126 23.8711C93.1735 23.793 93.154 23.7409 93.154 23.7148C93.154 23.6107 93.2126 23.4935 93.3298 23.3633C93.46 23.2331 93.5772 23.168 93.6813 23.168C93.7855 23.168 93.8897 23.1094 93.9938 22.9922C93.8376 22.9141 93.7595 22.8229 93.7595 22.7188C93.9157 22.5625 94.0655 22.3346 94.2087 22.0352C94.3649 21.7227 94.5342 21.5664 94.7165 21.5664C94.7425 21.5664 94.8076 21.5924 94.9118 21.6445C94.9378 21.5924 95.0095 21.4167 95.1266 21.1172L94.9899 20.7266C95.2373 20.375 95.4131 20.1732 95.5173 20.1211L95.6735 20.0039C95.7516 19.6393 96.0576 19.3333 96.5915 19.0859C97.2816 18.3568 97.6983 17.9922 97.8415 17.9922C97.8675 17.9922 97.9196 18.0378 97.9977 18.1289L98.1931 18.0703C98.2712 18.0703 98.3102 18.1159 98.3102 18.207C97.8936 18.5977 97.6852 18.806 97.6852 18.832H97.7048C97.7438 18.806 97.7894 18.7669 97.8415 18.7148C97.9066 18.6628 98.0108 18.5716 98.154 18.4414C98.154 18.4935 98.18 18.5195 98.2321 18.5195C98.3753 18.3372 98.447 18.1484 98.447 17.9531C98.447 17.9271 98.3753 17.875 98.2321 17.7969L98.1931 17.6797C98.1931 17.6016 98.4209 17.3607 98.8766 16.957C99.3454 16.5534 99.8532 16.1953 100.4 15.8828L100.595 15.6484C100.647 15.5833 100.719 15.5508 100.81 15.5508C100.914 15.5508 101.071 15.6224 101.279 15.7656L101.357 15.7266C101.331 15.6745 101.318 15.5768 101.318 15.4336C101.318 15.3555 101.37 15.3034 101.474 15.2773C101.605 15.082 101.884 14.9128 102.314 14.7695C102.744 14.6263 103.037 14.4896 103.193 14.3594L103.603 14.2031C103.812 14.1771 103.987 14.138 104.131 14.0859C104.287 14.0339 104.469 14.0078 104.677 14.0078C104.716 14.0078 104.821 13.9688 104.99 13.8906C105.159 13.7995 105.283 13.7539 105.361 13.7539C105.439 13.7539 105.582 13.8385 105.791 14.0078C105.791 14.0339 105.817 14.0469 105.869 14.0469L106.123 13.8711H106.162C106.344 14.0404 106.539 14.2031 106.748 14.3594C107.295 14.763 107.568 15.2513 107.568 15.8242L107.47 16.6445L107.509 17.3281C107.509 17.5495 107.405 17.7448 107.197 17.9141C107.106 18.5 106.989 18.9232 106.845 19.1836C106.702 19.431 106.585 19.776 106.494 20.2188C106.416 20.6615 106.038 21.2799 105.361 22.0742C105.361 22.1003 105.276 22.2174 105.107 22.4258C104.951 22.6211 104.756 22.9727 104.521 23.4805C104.157 23.8711 103.922 24.1836 103.818 24.418C103.727 24.6393 103.545 24.8086 103.271 24.9258H103.193L103.271 25.3555C102.776 26.1628 102.288 26.5664 101.806 26.5664C101.507 26.5664 101.207 26.4362 100.908 26.1758C100.621 25.9023 100.478 25.6289 100.478 25.3555C100.478 24.7174 101.227 23.9427 102.724 23.0312C102.75 23.0312 102.802 23.0443 102.881 23.0703L103.037 22.7969C102.985 22.6927 102.959 22.6276 102.959 22.6016C102.959 22.4193 103.161 22.2044 103.564 21.957C103.746 21.5794 103.942 21.3776 104.15 21.3516L104.912 20.1602L104.99 19.9648V19.6719C104.99 19.6198 105.127 19.5026 105.4 19.3203L105.439 19.2422V18.832C105.439 18.6758 105.543 18.5456 105.752 18.4414C105.804 18.3763 105.856 18.168 105.908 17.8164C105.973 17.4518 106.084 17.1263 106.24 16.8398C106.188 16.2279 106.11 15.8568 106.006 15.7266C105.914 15.5833 105.765 15.5117 105.556 15.5117C105.374 15.5117 105.068 15.6289 104.638 15.8633C104.209 16.0846 103.929 16.1953 103.799 16.1953C103.746 16.1953 103.694 16.1758 103.642 16.1367C103.59 16.0977 103.538 16.0781 103.486 16.0781C103.421 16.0781 103.356 16.1497 103.291 16.293C103.226 16.4232 103.147 16.5013 103.056 16.5273C102.965 16.5534 102.848 16.625 102.705 16.7422C102.575 16.8594 102.392 16.9701 102.158 17.0742L101.845 17.4844L101.513 17.7188C101.474 17.9922 101.305 18.1289 101.006 18.1289C100.94 18.1289 100.83 18.2852 100.674 18.5977L100.517 18.7539H100.205L100.166 18.9297V19.125C100.166 19.2031 100.12 19.2682 100.029 19.3203L99.2868 20.1211L99.1501 20.1992H98.9938L98.9157 20.2383C98.8766 20.707 98.7464 20.9479 98.5251 20.9609C98.5251 21.1302 98.3363 21.3581 97.9587 21.6445L97.8024 21.8398H97.5485L97.5095 21.8789C97.6006 21.957 97.6462 22.0091 97.6462 22.0352C97.6462 22.1133 97.5681 22.263 97.4118 22.4844C97.2686 22.6927 97.1579 22.7839 97.0798 22.7578C97.0277 23.1224 96.904 23.4414 96.7087 23.7148L96.5524 24.0078C96.4743 24.138 96.3962 24.2422 96.3181 24.3203V24.4766C96.3181 24.8151 95.999 25.1211 95.361 25.3945L95.4782 25.8828C95.4261 25.987 95.322 26.1432 95.1657 26.3516L94.9899 26.7227C94.9118 26.957 94.8207 27.1003 94.7165 27.1523C94.6774 27.2695 94.6123 27.3737 94.5212 27.4648C94.4431 27.556 94.404 27.6276 94.404 27.6797L94.4431 27.9531C94.2477 28.3047 94.1306 28.5586 94.0915 28.7148C94.0524 28.8581 93.9873 28.9948 93.8962 29.125C93.805 29.2552 93.7334 29.4049 93.6813 29.5742C93.6293 29.7305 93.5056 29.8997 93.3102 30.082C93.154 30.6419 93.0759 30.9479 93.0759 31L92.8024 31.2344C92.8024 31.2604 92.7634 31.3581 92.6852 31.5273L92.6462 31.6836V31.957C92.6462 32.1263 92.4834 32.3281 92.1579 32.5625C92.3141 32.6146 92.3923 32.7188 92.3923 32.875C92.3923 33.1745 92.3337 33.4023 92.2165 33.5586C92.0993 33.7148 92.0147 33.8776 91.9626 34.0469C91.9105 34.2031 91.8128 34.4115 91.6696 34.6719C91.8128 34.763 91.8845 34.8737 91.8845 35.0039L91.7087 36.3125L91.8454 36.6836C91.8194 36.7096 91.7347 36.7487 91.5915 36.8008C91.6175 36.957 91.6957 37.0938 91.8259 37.2109C91.9561 37.3151 92.1579 37.6341 92.4313 38.168C92.4834 38.2201 92.5941 38.2461 92.7634 38.2461C92.9196 38.2461 93.0368 38.2331 93.1149 38.207C93.1931 38.181 93.3623 38.1549 93.6227 38.1289C93.8962 38.0898 94.1826 37.9661 94.4821 37.7578H94.7946C95.1071 37.7578 95.322 37.6471 95.4391 37.4258C95.5694 37.1914 95.6996 37.0742 95.8298 37.0742C95.947 37.0742 96.1358 37.0221 96.3962 36.918H96.5134C96.5655 36.8138 96.6175 36.7422 96.6696 36.7031C96.7217 36.6641 96.8259 36.5469 96.9821 36.3516C97.1514 36.1432 97.3011 36.0391 97.4313 36.0391C97.8871 35.7396 98.2386 35.4727 98.486 35.2383C98.5121 35.2122 98.5837 35.1927 98.7009 35.1797C98.8181 35.1667 98.9092 35.1016 98.9743 34.9844C99.0394 34.8672 99.3324 34.5938 99.8532 34.1641C100.374 33.7344 100.687 33.3958 100.791 33.1484C100.895 32.888 101.019 32.7578 101.162 32.7578C101.214 32.7578 101.305 32.7708 101.435 32.7969H101.474C101.526 32.7969 101.565 32.7383 101.591 32.6211C101.618 32.5039 101.884 32.2956 102.392 31.9961C102.405 31.7357 102.607 31.5078 102.998 31.3125L103.681 30.6484L103.994 30.6875C104.072 30.6354 104.118 30.5182 104.131 30.3359C104.144 30.1536 104.248 30.0299 104.443 29.9648H104.599L104.716 29.8867C104.808 29.457 104.957 29.2422 105.166 29.2422H105.322C105.426 29.2422 105.478 29.1185 105.478 28.8711C105.478 28.6367 105.758 28.4544 106.318 28.3242L106.709 28.1289C106.735 28.0898 106.793 28.0703 106.884 28.0703C107.223 28.0703 107.392 28.3372 107.392 28.8711C107.392 29.0143 107.34 29.125 107.236 29.2031L106.963 29.4375L106.924 29.7695L106.22 30.4141C106.103 30.5052 106.038 30.6289 106.025 30.7852C106.012 30.9284 105.973 31 105.908 31C105.869 31.0651 105.784 31.1237 105.654 31.1758C105.537 31.2148 105.459 31.2799 105.42 31.3711C105.237 31.8008 104.951 32.0612 104.56 32.1523C104.339 32.6602 104.131 32.9661 103.935 33.0703C103.74 33.1615 103.629 33.2591 103.603 33.3633C103.551 33.7018 103.375 33.8581 103.076 33.832C102.594 34.3008 102.288 34.6654 102.158 34.9258C102.158 34.9518 102.145 34.9648 102.119 34.9648L101.845 34.9258C101.819 34.9518 101.748 35.0299 101.631 35.1602C101.526 35.2904 101.377 35.362 101.181 35.375C100.999 35.388 100.869 35.5052 100.791 35.7266C100.713 35.9349 100.641 36.0651 100.576 36.1172C100.511 36.1693 100.439 36.2604 100.361 36.3906C100.283 36.5078 100.205 36.5664 100.127 36.5664C100.009 36.5664 99.9248 36.4557 99.8727 36.2344C99.7686 36.2865 99.6644 36.3841 99.5602 36.5273L99.6774 36.8008C99.6774 36.8529 99.6514 36.8984 99.5993 36.9375C99.5472 36.9766 99.4496 37.1068 99.3063 37.3281C99.1761 37.5365 98.8571 37.6797 98.3493 37.7578C98.3233 37.7578 98.2712 37.849 98.1931 38.0312C98.1149 38.2005 97.9326 38.2982 97.6462 38.3242C97.3727 38.7279 97.1449 38.9297 96.9626 38.9297L96.1227 39.2031C95.9795 39.2031 95.8558 39.1901 95.7516 39.1641C95.6735 39.3464 95.5824 39.4375 95.4782 39.4375L95.2048 39.5156C95.1136 39.6458 95.003 39.7109 94.8727 39.7109C94.6905 39.7109 94.5993 39.6589 94.5993 39.5547C94.5993 39.5286 94.6123 39.4896 94.6384 39.4375V39.3594C94.6384 39.2812 94.6123 39.2422 94.5602 39.2422C94.5602 39.8021 94.4105 40.082 94.111 40.082C94.0589 40.082 93.9157 40.0299 93.6813 39.9258H93.6423L93.2712 40.1211C93.2451 40.1471 93.1931 40.1602 93.1149 40.1602C92.6332 40.1602 92.1514 40.0104 91.6696 39.7109H91.4743C91.0707 39.7109 90.7647 39.4766 90.5563 39.0078L90.5173 38.9297C90.2048 38.8516 90.029 38.6497 89.9899 38.3242C89.9378 38.2461 89.8076 38.1094 89.5993 37.9141C89.5733 37.7318 89.5147 37.569 89.4235 37.4258C89.3324 37.2695 89.2868 37.1784 89.2868 37.1523L88.8376 35.6875C88.7855 35.2578 88.7595 34.9062 88.7595 34.6328L88.7204 34.4766V34.3594L88.7985 33.832L88.7595 33.6367C88.7595 33.5326 88.8766 33.1484 89.111 32.4844C89.3584 31.8203 89.5147 31.3255 89.5798 31C89.6449 30.6745 89.7035 30.4727 89.7556 30.3945L90.322 28.8711ZM106.884 32.3281L107.041 32.1133C107.379 32.0352 107.594 31.9049 107.685 31.7227C107.724 31.6315 108.05 31.293 108.662 30.707C109.274 30.1211 109.612 29.8086 109.677 29.7695C110.094 29.0143 110.348 28.4479 110.439 28.0703C110.595 27.9922 110.674 27.901 110.674 27.7969L110.83 27.4844L111.006 27.4453L111.084 27.3672V27.1914C111.084 26.957 111.338 26.4102 111.845 25.5508C112.353 24.4961 112.627 23.9167 112.666 23.8125C112.705 23.6953 112.783 23.5326 112.9 23.3242C113.017 23.1029 113.193 22.6862 113.427 22.0742C113.675 21.4622 114.052 20.8242 114.56 20.1602C114.612 20.1341 114.69 19.9909 114.795 19.7305C114.899 19.457 115.062 19.1901 115.283 18.9297L115.517 18.5195C115.595 18.3893 115.732 18.1615 115.927 17.8359C116.123 17.5104 116.299 17.2565 116.455 17.0742C116.624 16.8789 116.748 16.6771 116.826 16.4688C116.917 16.2604 117.021 16.1107 117.138 16.0195C117.256 15.9284 117.373 15.7656 117.49 15.5312C117.62 15.2839 117.815 15.1602 118.076 15.1602C118.584 15.1602 118.948 15.3685 119.17 15.7852C119.404 16.2018 119.521 16.5664 119.521 16.8789C119.521 16.918 119.443 17.1979 119.287 17.7188L118.994 19.4766C118.733 19.6068 118.603 19.7565 118.603 19.9258C118.603 20.6159 118.336 21.332 117.802 22.0742C117.75 22.1263 117.705 22.2956 117.666 22.582C117.64 22.8685 117.529 23.1029 117.334 23.2852C117.138 23.4674 116.963 23.7734 116.806 24.2031L114.99 26.8008L114.834 26.957C114.756 27.0091 114.664 27.1198 114.56 27.2891L114.248 27.1914C113.896 27.1914 113.72 27.3021 113.72 27.5234C113.72 27.6016 113.746 27.7057 113.799 27.8359V27.875C113.799 27.888 113.317 28.5716 112.353 29.9258C112.301 30.0039 112.21 30.2578 112.08 30.6875L111.806 31.2734C111.533 31.651 111.338 32.0221 111.22 32.3867C111.116 32.7383 110.973 33.0247 110.791 33.2461C110.53 33.832 110.4 34.138 110.4 34.1641C110.4 34.2422 110.439 34.2812 110.517 34.2812C110.595 34.2812 110.778 34.0859 111.064 33.6953C111.364 33.3047 111.605 33.0443 111.787 32.9141C111.982 32.7839 112.145 32.6016 112.275 32.3672L112.47 32.2305C112.522 32.2044 112.633 32.1263 112.802 31.9961L112.998 32.0352C113.102 31.957 113.167 31.8659 113.193 31.7617C113.219 31.6576 113.258 31.5794 113.31 31.5273C113.649 31.4883 113.857 31.3646 113.935 31.1562C114.026 30.9479 114.131 30.8438 114.248 30.8438C114.352 30.8438 114.489 30.7266 114.658 30.4922C114.827 30.2448 115.062 30.0495 115.361 29.9062C115.674 29.75 115.901 29.6133 116.045 29.4961C116.201 29.3789 116.507 29.2422 116.963 29.0859C117.418 28.9167 117.724 28.832 117.881 28.832H117.998L118.154 28.8711L118.447 28.832C118.903 28.832 119.358 28.9622 119.814 29.2227C120.27 29.4701 120.465 29.8607 120.4 30.3945L120.244 31.6055L120.029 32.5625C120.003 32.7188 119.899 33.0638 119.716 33.5977C119.534 34.1315 119.443 34.4375 119.443 34.5156L119.365 34.8867L119.443 35.3945L119.404 35.8047C119.404 35.9349 119.469 36 119.599 36C119.651 36 119.795 35.8828 120.029 35.6484C120.172 35.6745 120.309 35.5964 120.439 35.4141C120.569 35.2318 120.745 35.043 120.966 34.8477C120.966 34.7956 121.051 34.75 121.22 34.7109C121.39 34.6589 121.624 34.5026 121.924 34.2422C121.976 34.125 122.23 33.8776 122.685 33.5C123.141 33.1094 123.577 32.8099 123.994 32.6016L124.111 32.4453C124.332 32.224 124.534 32.1133 124.716 32.1133C124.899 32.1133 124.99 32.2109 124.99 32.4062C124.99 32.5365 124.957 32.6732 124.892 32.8164C124.827 32.9596 124.782 33.1484 124.756 33.3828C124.73 33.6042 124.599 33.9297 124.365 34.3594L124.287 34.5547C124.196 34.776 124.085 34.9062 123.955 34.9453C123.825 34.9844 123.681 35.0951 123.525 35.2773C123.382 35.4466 123.076 35.6094 122.607 35.7656C122.399 36.1562 122.236 36.3516 122.119 36.3516L121.767 36.1953C121.494 36.4167 121.357 36.6445 121.357 36.8789C121.019 37.1654 120.817 37.3542 120.752 37.4453L120.361 37.4062C120.257 37.4062 120.205 37.5495 120.205 37.8359C120.205 37.862 120.068 37.9531 119.795 38.1094C119.534 38.2526 119.332 38.3828 119.189 38.5C119.046 38.6172 118.74 38.6758 118.271 38.6758C118.219 38.6758 118.141 38.6302 118.037 38.5391C117.933 38.4479 117.776 38.3698 117.568 38.3047C117.373 38.2396 117.236 38.0898 117.158 37.8555C117.08 37.6081 116.995 37.4193 116.904 37.2891C116.813 37.1458 116.767 37.0352 116.767 36.957L116.806 36.5664L116.709 36.1562L116.884 35.8828C116.806 35.7005 116.767 35.5768 116.767 35.5117L116.963 34.3203C117.106 33.4609 117.223 32.901 117.314 32.6406C117.34 32.6146 117.353 32.5365 117.353 32.4062L117.314 31.918L117.353 31.6445C117.353 31.4492 117.288 31.3451 117.158 31.332C117.028 31.319 116.95 31.2865 116.924 31.2344C116.754 31.1562 116.657 31.1172 116.631 31.1172C116.526 31.1172 116.435 31.2018 116.357 31.3711C116.279 31.5273 116.175 31.6706 116.045 31.8008L115.556 31.7227V31.7617C115.556 31.8659 115.381 32.0677 115.029 32.3672C114.703 32.4453 114.424 32.6146 114.189 32.875C114.085 32.875 113.903 32.9792 113.642 33.1875C113.395 33.3828 113.232 33.4935 113.154 33.5195L112.998 33.832L112.685 33.9297C112.594 34.1901 112.379 34.3594 112.041 34.4375L111.845 34.8086C111.572 34.8346 111.383 34.9779 111.279 35.2383C111.175 35.4857 111.097 35.6094 111.045 35.6094C111.019 35.6094 110.973 35.5964 110.908 35.5703C110.856 35.5312 110.804 35.5117 110.752 35.5117C110.465 35.5117 110.309 35.7266 110.283 36.1562C110.283 36.2083 110.016 36.5143 109.482 37.0742C108.948 37.6341 108.662 37.9206 108.623 37.9336C108.584 37.9466 108.506 38.0833 108.388 38.3438C108.284 38.5911 108.134 38.7799 107.939 38.9102C107.744 39.0273 107.594 39.125 107.49 39.2031C107.399 39.2812 107.327 39.3203 107.275 39.3203C107.002 39.3203 106.78 39.125 106.611 38.7344C106.442 38.3438 106.357 38.1419 106.357 38.1289L106.474 37.7188L106.435 37.3672C106.435 37.3542 106.513 37.0938 106.67 36.5859C106.839 36.0651 107.028 35.6615 107.236 35.375C107.444 35.0755 107.607 34.5938 107.724 33.9297C107.138 34.3203 106.787 34.5156 106.67 34.5156C106.409 34.5156 106.279 34.3464 106.279 34.0078C106.279 33.3828 106.481 32.8229 106.884 32.3281ZM126.611 31.4883L127.021 31.1562C127.334 31.1302 127.503 30.9674 127.529 30.668C127.555 30.3685 127.77 30.1081 128.174 29.8867L128.408 29.5547C128.603 29.3594 129.137 29.1055 130.009 28.793C130.231 28.6628 130.381 28.5456 130.459 28.4414C130.485 28.4154 130.511 28.4023 130.537 28.4023L130.849 28.4805C131.019 28.4805 131.233 28.4349 131.494 28.3438C131.767 28.2526 132.028 28.207 132.275 28.207L133.095 28.168C133.147 28.168 133.252 28.207 133.408 28.2852C133.577 28.3633 133.779 28.4023 134.013 28.4023C134.3 28.4023 134.56 28.5326 134.795 28.793C135.042 29.0534 135.166 29.2943 135.166 29.5156C135.166 29.9193 134.957 30.3294 134.541 30.7461C134.124 31.1628 133.792 31.3971 133.545 31.4492C133.323 31.6706 133.154 31.8138 133.037 31.8789C132.92 31.931 132.796 32.0221 132.666 32.1523C132.549 32.2695 132.451 32.3281 132.373 32.3281C132.321 32.3281 132.282 32.3151 132.256 32.2891C132.23 32.25 132.19 32.2305 132.138 32.2305C131.93 32.2305 131.702 32.4844 131.455 32.9922L131.103 32.9531C130.882 33.0964 130.739 33.2526 130.674 33.4219C130.608 33.5911 130.472 33.6758 130.263 33.6758C129.782 34.1576 129.456 34.3984 129.287 34.3984C129.261 34.3984 129.17 34.3724 129.013 34.3203C128.909 34.4505 128.857 34.5872 128.857 34.7305C128.857 34.8867 128.753 34.9779 128.545 35.0039L128.291 35.2383L128.095 35.1992L127.705 35.6094C127.509 35.6094 127.308 35.6745 127.099 35.8047C127.073 35.9609 127.034 36.1628 126.982 36.4102C126.93 36.6445 126.904 36.7747 126.904 36.8008C126.904 37.1784 127.249 37.3672 127.939 37.3672L128.877 37.2305C129.124 37.2305 129.352 37.1654 129.56 37.0352C129.782 36.9049 130.016 36.8398 130.263 36.8398C130.341 36.8398 130.459 36.8138 130.615 36.7617L130.81 36.8398C130.901 36.6445 131.071 36.4688 131.318 36.3125C131.565 36.1562 131.761 36.0781 131.904 36.0781L132.099 35.9609C132.151 35.8047 132.23 35.7005 132.334 35.6484L132.49 35.5117C132.594 35.4076 132.692 35.3555 132.783 35.3555H133.056L133.134 35.3164C133.291 34.9779 133.506 34.7826 133.779 34.7305C134.065 34.6654 134.241 34.5677 134.306 34.4375C134.384 34.3073 134.515 34.2292 134.697 34.2031C134.879 34.1771 135.029 34.0924 135.146 33.9492C135.276 33.793 135.433 33.6497 135.615 33.5195C135.797 33.3893 135.921 33.2917 135.986 33.2266C136.064 33.1615 136.129 33.1289 136.181 33.1289C136.259 33.1289 136.299 33.1875 136.299 33.3047C136.299 33.4219 136.325 33.4805 136.377 33.4805C136.429 33.4805 136.455 33.4544 136.455 33.4023C136.455 33.3503 136.442 33.2852 136.416 33.207V33.0703C136.416 32.875 136.52 32.7448 136.728 32.6797L137.607 32.1133C137.633 31.8398 137.705 31.6836 137.822 31.6445C137.952 31.5924 138.05 31.5404 138.115 31.4883C138.18 31.4232 138.252 31.3906 138.33 31.3906C138.499 31.3906 138.584 31.4883 138.584 31.6836L138.486 32.1914L138.584 32.7188C138.584 32.7969 138.519 32.9076 138.388 33.0508C138.271 33.181 138.18 33.3893 138.115 33.6758C138.05 33.9492 137.965 34.099 137.861 34.125H137.744C137.509 34.3724 137.321 34.5221 137.177 34.5742C137.047 34.6133 136.943 34.6914 136.865 34.8086L136.201 35.5703C136.071 35.7005 135.96 35.8177 135.869 35.9219C135.778 36.026 135.706 36.0781 135.654 36.0781L135.498 35.9219C135.498 35.8958 135.472 35.8828 135.42 35.8828C135.289 35.8828 135.205 35.9609 135.166 36.1172C135.14 36.2734 135.075 36.4102 134.97 36.5273C134.58 36.7096 134.326 36.8789 134.209 37.0352L134.091 37.0742H133.74C133.571 37.0742 133.453 37.2044 133.388 37.4648C133.323 37.7122 133.134 37.8555 132.822 37.8945C132.522 37.9336 132.308 38.0117 132.177 38.1289C132.151 38.1549 132.093 38.181 132.002 38.207C131.911 38.2331 131.728 38.3372 131.455 38.5195L129.814 39.1055C129.684 39.1706 129.599 39.2031 129.56 39.2031L129.013 39.2812C128.935 39.2812 128.857 39.2292 128.779 39.125C128.701 39.0208 128.649 38.9688 128.623 38.9688L128.271 39.0859C128.011 39.1641 127.763 39.2031 127.529 39.2031C127.399 39.2031 127.256 39.1576 127.099 39.0664C126.943 38.9753 126.819 38.9102 126.728 38.8711C126.351 38.8711 126.084 38.5781 125.927 37.9922L125.693 38.0312C125.641 38.0312 125.465 37.569 125.166 36.6445C125.088 36.5404 124.964 36.4688 124.795 36.4297C124.625 36.3776 124.541 36.2474 124.541 36.0391C124.541 35.4531 124.664 35.0625 124.912 34.8672C125.172 34.6589 125.315 34.5026 125.341 34.3984L125.615 33.3828C125.667 33.3438 125.732 33.2135 125.81 32.9922L126.259 32.1719C126.312 32.0807 126.429 31.8529 126.611 31.4883ZM130.732 30.3164L130.498 30.4336C130.446 30.4596 130.289 30.5768 130.029 30.7852C129.782 30.9805 129.534 31.1432 129.287 31.2734C129.052 31.3906 128.805 31.7096 128.545 32.2305C128.297 32.7513 128.174 33.0508 128.174 33.1289C128.174 33.207 128.213 33.2461 128.291 33.2461L128.955 32.9531C129.202 32.8359 129.43 32.6862 129.638 32.5039C129.86 32.3216 130.172 32.1003 130.576 31.8398L130.732 31.6836C130.758 31.6315 130.875 31.5404 131.084 31.4102C131.305 31.2669 131.468 31.1302 131.572 31L131.767 30.9219C131.989 30.5703 132.21 30.3555 132.431 30.2773C132.666 30.1992 132.783 30.1211 132.783 30.043C132.783 29.8867 132.659 29.8086 132.412 29.8086C132.308 29.8086 132.151 29.8737 131.943 30.0039H131.494C131.442 30.0039 131.299 30.082 131.064 30.2383L130.732 30.3164ZM144.873 30.5703L145.42 30.3164C145.602 30.1992 145.778 30.0299 145.947 29.8086L146.631 29.3203C147.021 29.0599 147.275 28.9297 147.392 28.9297L147.705 29.0469C147.731 29.0469 147.809 28.9688 147.939 28.8125C148.082 28.6432 148.245 28.5586 148.427 28.5586C148.662 28.5586 148.981 28.7344 149.384 29.0859C149.788 29.4375 149.99 29.75 149.99 30.0234L149.912 30.6875C149.912 30.7917 149.964 31.0846 150.068 31.5664V31.7227L149.99 32.1914L150.068 32.6797L149.853 33.6367C149.853 33.8841 149.938 34.0078 150.107 34.0078C150.328 33.7995 150.517 33.6758 150.674 33.6367L150.947 33.3633C151.051 33.2591 151.129 33.207 151.181 33.207C151.233 33.207 151.299 33.1484 151.377 33.0312C151.468 32.901 151.578 32.8099 151.709 32.7578C151.839 32.7057 151.93 32.6146 151.982 32.4844C152.711 31.6901 153.271 31.2344 153.662 31.1172C153.714 31.1172 153.799 31.0521 153.916 30.9219C154.046 30.7917 154.15 30.7135 154.228 30.6875L154.658 30.3555L154.834 30.4336H154.873C154.899 30.4336 155.003 30.3685 155.185 30.2383C155.368 30.1081 155.498 30.043 155.576 30.043C156.071 30.043 156.474 30.2122 156.787 30.5508C157.112 30.8763 157.275 31.1302 157.275 31.3125L157.177 31.7617L157.314 32.3672V32.7578L157.216 33.168C157.216 33.2461 157.269 33.3568 157.373 33.5C157.49 33.6432 157.549 33.7409 157.549 33.793C157.392 33.9622 157.314 34.0729 157.314 34.125L157.353 34.4766L157.256 35.5508C157.256 35.6419 157.34 35.7917 157.509 36C157.588 35.9479 157.698 35.9023 157.841 35.8633C157.985 35.8242 158.095 35.7852 158.174 35.7461C158.252 35.694 158.291 35.668 158.291 35.668C158.291 35.6549 158.284 35.6484 158.271 35.6484C158.297 35.6484 158.375 35.6745 158.506 35.7266H158.584C158.688 35.7266 158.746 35.6289 158.759 35.4336C158.772 35.2253 158.903 35.056 159.15 34.9258L159.619 34.9648C159.645 34.9388 159.697 34.8346 159.775 34.6523C159.866 34.457 160.14 34.1771 160.595 33.8125C161.064 33.4349 161.422 33.2461 161.67 33.2461C161.878 33.2461 161.982 33.3372 161.982 33.5195C161.982 33.5716 161.956 33.7083 161.904 33.9297C162.008 34.112 162.06 34.2682 162.06 34.3984C162.06 34.6458 161.845 34.9128 161.416 35.1992C160.999 35.4857 160.68 35.8438 160.459 36.2734L160.381 36.3516L159.99 36.3125C159.964 36.3125 159.899 36.4167 159.795 36.625C159.703 36.8203 159.593 36.931 159.463 36.957C159.332 36.9831 159.241 37.0221 159.189 37.0742L158.779 37.3281C158.701 37.3802 158.44 37.6471 157.998 38.1289C157.568 38.5977 157.203 38.832 156.904 38.832C156.774 38.832 156.539 38.7669 156.201 38.6367C155.862 38.4935 155.634 38.3503 155.517 38.207C155.4 38.0638 155.231 37.901 155.009 37.7188C154.801 37.5365 154.697 37.1914 154.697 36.6836C154.697 36.6576 154.73 36.612 154.795 36.5469C154.873 36.4818 154.912 36.4297 154.912 36.3906C154.612 36 154.463 35.7201 154.463 35.5508C154.463 35.4727 154.476 35.388 154.502 35.2969C154.528 35.2057 154.541 35.1211 154.541 35.043L154.502 34.3594L154.58 34.0078L154.541 33.793L154.658 32.7969C154.658 32.6406 154.567 32.5625 154.384 32.5625C154.332 32.5625 154.261 32.6146 154.17 32.7188C154.078 32.8229 153.961 32.9076 153.818 32.9727C153.688 33.0247 153.545 33.207 153.388 33.5195C153.154 33.6497 152.991 33.7799 152.9 33.9102C152.822 34.0273 152.757 34.0859 152.705 34.0859C152.679 34.0859 152.627 34.0729 152.549 34.0469C152.392 34.151 152.314 34.2682 152.314 34.3984V34.4766L152.353 34.6328C152.353 34.75 152.256 34.8607 152.06 34.9648C151.865 35.069 151.624 35.3359 151.338 35.7656C151.207 35.7656 151.116 35.7786 151.064 35.8047L150.83 36.2734C150.7 36.3516 150.576 36.4883 150.459 36.6836L150.224 36.8008C150.133 36.9701 150.042 37.1133 149.951 37.2305L149.834 37.4453C149.274 38.1094 148.883 38.4414 148.662 38.4414C148.44 38.4414 148.174 38.1484 147.861 37.5625C147.549 36.9766 147.392 36.5208 147.392 36.1953L147.47 35.4727C147.47 35.4466 147.418 35.3424 147.314 35.1602V35.082C147.314 35.056 147.366 34.9062 147.47 34.6328V34.0469C147.47 34.0208 147.457 33.9818 147.431 33.9297V33.832C147.431 33.806 147.483 33.7018 147.588 33.5195L147.47 32.9531L147.549 32.6406L147.509 31.957L147.588 31.3516C147.588 31.3125 147.549 31.2474 147.47 31.1562C147.405 31.0521 147.36 31 147.334 31C147.243 31 146.969 31.1497 146.513 31.4492C146.071 31.7487 145.771 31.9831 145.615 32.1523C145.459 32.3216 145.25 32.5234 144.99 32.7578C144.716 32.888 144.528 33.2201 144.424 33.7539C144.424 33.7799 144.397 33.793 144.345 33.793C144.345 33.7669 144.306 33.7409 144.228 33.7148H144.15C144.085 33.7148 143.883 33.9948 143.545 34.5547L143.466 34.6328L143.095 34.5547C142.783 34.5547 142.627 34.8867 142.627 35.5508C142.627 35.668 142.542 35.7461 142.373 35.7852C142.216 35.8242 142.093 35.9349 142.002 36.1172C141.911 36.2995 141.787 36.4883 141.631 36.6836C141.331 36.8138 141.162 36.9115 141.123 36.9766C141.123 36.9896 140.98 37.1849 140.693 37.5625C140.407 37.9401 140.25 38.1615 140.224 38.2266C140.198 38.2917 140.107 38.3698 139.951 38.4609C139.808 38.5391 139.736 38.6107 139.736 38.6758L139.795 39.0078C139.795 39.2161 139.593 39.3203 139.189 39.3203C138.408 39.3203 138.017 38.5065 138.017 36.8789C138.017 36.6966 138.095 36.4948 138.252 36.2734C138.421 36.0391 138.584 35.7591 138.74 35.4336C138.987 35.1862 139.28 34.8281 139.619 34.3594C139.957 33.8906 140.211 33.5716 140.381 33.4023L140.634 32.9922C140.634 32.8359 140.667 32.7188 140.732 32.6406C140.797 32.5625 140.83 32.4648 140.83 32.3477C140.83 32.1393 140.778 32.0352 140.674 32.0352C140.426 32.0352 140.231 32.1003 140.088 32.2305C139.944 32.3477 139.782 32.4323 139.599 32.4844C139.43 32.5365 139.319 32.6276 139.267 32.7578C139.085 32.8359 138.89 33.0052 138.681 33.2656C138.486 33.513 138.356 33.6693 138.291 33.7344C138.226 33.7995 138.161 33.8906 138.095 34.0078C138.043 34.112 137.972 34.1706 137.881 34.1836C137.789 34.1966 137.705 34.2422 137.627 34.3203C137.549 34.3984 137.425 34.4375 137.256 34.4375C137.138 34.4375 137.028 34.3203 136.924 34.0859C136.832 33.8385 136.787 33.6888 136.787 33.6367C136.787 32.6862 137.418 31.8659 138.681 31.1758C138.851 31.0846 138.981 30.9935 139.072 30.9023C139.176 30.8112 139.28 30.7396 139.384 30.6875L139.463 30.5508C139.567 30.3945 139.957 30.1732 140.634 29.8867H140.908L142.216 29.5547C142.776 29.4245 143.056 30.056 143.056 31.4492L143.017 31.8008L143.095 31.957C143.317 31.7487 143.538 31.5664 143.759 31.4102C143.994 31.2409 144.163 31.0911 144.267 30.9609C144.371 30.8307 144.573 30.7005 144.873 30.5703ZM172.256 37.4062L171.338 38.207C171.286 38.1549 171.233 38.1289 171.181 38.1289C171.051 38.1289 170.888 38.2461 170.693 38.4805C170.511 38.7148 170.381 38.832 170.302 38.832L170.107 38.793C169.782 39.0404 169.547 39.1836 169.404 39.2227C169.261 39.2617 169.085 39.3333 168.877 39.4375C168.681 39.5417 168.499 39.6003 168.33 39.6133C168.174 39.6263 168.043 39.6849 167.939 39.7891C167.835 39.8802 167.581 39.9258 167.177 39.9258L166.865 39.8867C166.696 39.9648 166.585 40.0039 166.533 40.0039C166.429 40.0039 166.318 39.9518 166.201 39.8477C166.084 39.7305 165.953 39.6654 165.81 39.6523C165.68 39.6393 165.543 39.5482 165.4 39.3789C165.257 39.2096 165.12 39.0924 164.99 39.0273C164.873 38.9622 164.775 38.8711 164.697 38.7539L164.424 38.5195C164.202 38.3633 163.987 38.0768 163.779 37.6602C163.571 37.2435 163.466 36.918 163.466 36.6836V36.6055L163.506 36.2344L163.466 35.8047C163.519 35.7526 163.584 35.6419 163.662 35.4727V34.8477L164.131 33.2852C164.157 33.2201 164.105 33.1354 163.974 33.0312C163.844 33.2266 163.714 33.3438 163.584 33.3828C163.453 33.4219 163.362 33.513 163.31 33.6562C163.271 33.7995 163.2 33.8711 163.095 33.8711L162.861 33.793C162.835 33.819 162.776 33.9557 162.685 34.2031C162.594 34.4375 162.438 34.5547 162.216 34.5547C161.982 34.5547 161.865 34.4635 161.865 34.2812L161.904 33.9297L161.787 33.4414C161.787 33.3372 161.891 33.1354 162.099 32.8359C162.308 32.5234 162.496 32.3477 162.666 32.3086C162.848 32.2565 162.998 32.1328 163.115 31.9375C163.245 31.7292 163.519 31.4818 163.935 31.1953C164.17 31.1432 164.371 30.974 164.541 30.6875C164.723 30.5443 164.957 30.4271 165.244 30.3359C165.543 30.2448 165.765 30.1146 165.908 29.9453C166.064 29.763 166.507 29.4896 167.236 29.125C167.978 28.7474 168.519 28.5586 168.857 28.5586C168.961 28.5586 169.105 28.5326 169.287 28.4805C169.469 28.4154 169.638 28.3633 169.795 28.3242C169.951 28.2721 170.114 28.2005 170.283 28.1094C170.452 28.0052 170.589 27.9531 170.693 27.9531L171.259 28.1484C171.676 28.2656 171.93 28.3503 172.021 28.4023C172.047 28.4284 172.177 28.487 172.412 28.5781C172.659 28.6562 172.907 28.7669 173.154 28.9102C173.414 29.0534 173.545 29.3203 173.545 29.7109C173.323 30.0365 173.213 30.2122 173.213 30.2383C173.213 30.2904 173.362 30.3685 173.662 30.4727C173.766 30.668 173.922 30.9219 174.131 31.2344L174.345 31.918L174.384 33.5195L174.345 33.6758C174.202 33.806 174.131 33.8906 174.131 33.9297L174.189 34.3203L174.033 34.8672C173.994 35.0365 173.929 35.1471 173.838 35.1992C173.746 35.2513 173.688 35.3164 173.662 35.3945L173.545 35.5508C173.519 35.5898 173.46 35.707 173.369 35.9023C173.291 36.0846 173.2 36.2279 173.095 36.332C172.991 36.4362 172.926 36.5599 172.9 36.7031C172.874 36.8464 172.809 36.9505 172.705 37.0156C172.601 37.0807 172.522 37.1523 172.47 37.2305C172.431 37.2956 172.36 37.3542 172.256 37.4062ZM166.181 37.9141L166.259 38.3633L166.299 38.4023H166.611L166.709 38.4414C166.969 38.4935 167.164 38.5195 167.295 38.5195C167.698 38.5195 168.017 38.4219 168.252 38.2266C168.499 38.0182 168.694 37.9141 168.838 37.9141C168.981 37.9141 169.098 37.8164 169.189 37.6211C169.293 37.4258 169.358 37.3281 169.384 37.3281H169.658L169.736 37.2891C169.736 36.9896 169.866 36.7747 170.127 36.6445C170.4 36.5143 170.589 36.3451 170.693 36.1367C170.81 35.9154 170.94 35.7526 171.084 35.6484C171.227 35.5312 171.325 35.3815 171.377 35.1992L171.533 34.9648C171.585 34.9128 171.611 34.8151 171.611 34.6719L171.982 33.9688C172.06 33.6432 172.099 33.3893 172.099 33.207C172.099 32.9336 171.956 32.7188 171.67 32.5625C171.396 32.4062 171.259 32.1003 171.259 31.6445C171.259 31.3451 171.409 31.0716 171.709 30.8242C172.021 30.5638 172.177 30.4076 172.177 30.3555C172.177 30.2773 172.138 30.2383 172.06 30.2383C172.021 30.2383 171.871 30.2904 171.611 30.3945C171.52 30.5768 171.058 30.8177 170.224 31.1172C169.951 30.987 169.801 30.9219 169.775 30.9219C169.697 30.9219 169.619 31 169.541 31.1562C169.463 31.3125 169.384 31.4232 169.306 31.4883H169.052C169.026 31.4883 168.942 31.5729 168.799 31.7422C168.655 31.9115 168.473 31.9961 168.252 31.9961L168.017 32.2305C168.03 32.4388 167.9 32.6536 167.627 32.875L167.412 33.1289C167.282 33.2852 167.112 33.4674 166.904 33.6758L166.552 34.5547C166.409 34.8932 166.338 35.1471 166.338 35.3164C166.299 35.3945 166.207 35.4792 166.064 35.5703C165.934 35.6484 165.869 35.7526 165.869 35.8828C165.869 35.9089 165.914 35.974 166.006 36.0781C166.097 36.1823 166.142 36.2604 166.142 36.3125L166.064 36.5664L165.986 37.2891L166.181 37.9141ZM177.392 37.5625L177.236 36.5664C177.236 36.4883 177.275 36.3646 177.353 36.1953C177.431 36.1953 177.496 36.1693 177.549 36.1172L177.431 35.7656C177.431 35.3099 177.555 34.9193 177.802 34.5938C178.063 34.2552 178.206 34.0273 178.232 33.9102C178.258 33.793 178.44 33.4154 178.779 32.7773C179.131 32.1263 179.391 31.7096 179.56 31.5273L179.677 31.2734L179.834 31.2344C180.133 30.7526 180.556 30.3164 181.103 29.9258C181.286 29.6393 181.507 29.4049 181.767 29.2227C182.028 29.0404 182.203 28.9102 182.295 28.832C182.386 28.7539 182.522 28.7018 182.705 28.6758L182.783 28.6367C183.161 28.2591 183.486 28.0703 183.759 28.0703C183.851 27.9792 184.033 27.875 184.306 27.7578H184.521C184.599 27.7578 184.677 27.7318 184.756 27.6797C184.834 27.6276 184.912 27.6016 184.99 27.6016C185.042 27.6016 185.179 27.6536 185.4 27.7578C185.608 27.5495 185.778 27.4453 185.908 27.4453C186.181 27.4453 186.455 27.5495 186.728 27.7578C187.015 27.9661 187.197 28.2201 187.275 28.5195C187.353 28.819 187.418 28.9948 187.47 29.0469C187.522 29.099 187.575 29.1641 187.627 29.2422C187.731 29.2422 187.868 29.0013 188.037 28.5195L188.271 28.207C188.623 27.7513 188.864 27.2174 188.994 26.6055C189.02 26.5794 189.059 26.4753 189.111 26.293C189.163 26.0977 189.3 25.7721 189.521 25.3164C189.899 24.7695 190.166 24.2096 190.322 23.6367L190.556 23.2852C190.713 23.181 190.797 23.0703 190.81 22.9531C190.823 22.8229 190.862 22.7057 190.927 22.6016C190.993 22.4974 191.064 22.3737 191.142 22.2305C191.233 22.0742 191.305 21.9701 191.357 21.918C191.409 21.8659 191.487 21.6901 191.591 21.3906C191.696 21.0781 191.819 20.9023 191.963 20.8633C192.119 20.8242 192.275 20.7526 192.431 20.6484L192.47 20.5117L192.392 20.2383C192.392 20.082 192.562 19.8086 192.9 19.418C193.252 19.0273 193.499 18.7083 193.642 18.4609C193.799 18.2005 194.052 17.8099 194.404 17.2891C194.769 16.7552 195.029 16.4297 195.185 16.3125L195.634 15.8438C195.843 15.5443 196.136 15.3945 196.513 15.3945C196.8 15.3945 197.099 15.5508 197.412 15.8633C197.724 16.1628 197.881 16.4622 197.881 16.7617C197.881 16.8659 197.809 17.1068 197.666 17.4844L197.627 17.7188C197.627 17.9271 197.555 18.1745 197.412 18.4609C197.269 18.7474 197.184 18.9688 197.158 19.125L196.064 21.8008C195.934 21.8529 195.856 21.8919 195.83 21.918C195.491 22.6602 195.224 23.0638 195.029 23.1289V23.5195C195.029 23.6628 194.938 23.7669 194.756 23.832L194.677 23.8711C194.56 24.3659 194.411 24.724 194.228 24.9453C194.046 25.1667 193.909 25.3945 193.818 25.6289C193.74 25.8503 193.61 25.974 193.427 26C193.245 26.026 193.154 26.2799 193.154 26.7617C193.102 27.0221 192.972 27.1523 192.763 27.1523C192.568 27.1523 192.444 27.3216 192.392 27.6602C192.34 27.9987 192.086 28.181 191.631 28.207C191.5 28.2852 191.422 28.3763 191.396 28.4805L191.552 28.9688C191.552 29.0469 191.312 29.3529 190.83 29.8867L190.674 30.3945C190.426 30.4857 190.224 31.1562 190.068 32.4062L189.834 33.7539L189.873 34.2812L189.795 34.5547L190.029 35.3555L189.99 35.8047C189.99 36.013 190.068 36.1172 190.224 36.1172C190.302 36.1172 190.478 36 190.752 35.7656L191.025 35.6484C191.845 35.2318 192.353 34.8281 192.549 34.4375C192.601 34.3854 192.692 34.3333 192.822 34.2812C192.965 34.2292 193.069 34.1576 193.134 34.0664C193.2 33.9753 193.252 33.9102 193.291 33.8711C194.085 33.3503 194.599 32.8945 194.834 32.5039C195.068 32.1133 195.309 31.8789 195.556 31.8008L195.713 31.6445C195.869 31.5143 195.999 31.4492 196.103 31.4492C196.325 31.4492 196.435 31.5143 196.435 31.6445L196.279 32.1914C196.409 32.543 196.474 32.7448 196.474 32.7969C196.474 33.2526 196.272 33.5326 195.869 33.6367C195.7 33.806 195.563 34.0013 195.459 34.2227C195.368 34.444 195.159 34.5807 194.834 34.6328C194.612 34.9453 194.411 35.1536 194.228 35.2578C194.046 35.349 193.955 35.4466 193.955 35.5508V35.7266C193.851 35.8828 193.759 35.987 193.681 36.0391L193.31 35.9609C193.258 36.1172 193.141 36.332 192.959 36.6055C192.894 36.5534 192.835 36.5273 192.783 36.5273C192.601 36.5273 192.451 36.638 192.334 36.8594C192.216 37.0807 192.132 37.1914 192.08 37.1914H191.631C191.565 37.2305 191.461 37.3151 191.318 37.4453C191.175 37.5755 190.934 37.6406 190.595 37.6406L189.99 37.7578C189.417 37.7578 188.89 37.5755 188.408 37.2109C187.926 36.8333 187.666 36.4948 187.627 36.1953C187.601 35.8828 187.496 35.5117 187.314 35.082L187.275 34.2812C187.132 33.4479 186.969 33.0312 186.787 33.0312L186.748 33.2852L186.591 33.3633C186.513 33.7669 186.383 33.9688 186.201 33.9688C186.123 34.0078 186.038 34.0729 185.947 34.1641L185.83 34.2422C185.778 34.2682 185.7 34.3789 185.595 34.5742C185.504 34.7695 185.237 35.043 184.795 35.3945C184.612 35.8763 184.476 36.1172 184.384 36.1172L184.15 35.9609H184.111C184.007 35.9609 183.922 36.1172 183.857 36.4297C183.792 36.7292 183.662 36.8789 183.466 36.8789C183.414 36.8789 183.362 36.9701 183.31 37.1523C183.271 37.3216 183.161 37.4323 182.978 37.4844C182.796 37.5234 182.633 37.6992 182.49 38.0117C182.347 38.3242 182.249 38.4805 182.197 38.4805C182.171 38.4805 182.132 38.4674 182.08 38.4414L181.748 38.5195C181.683 38.6107 181.591 38.7604 181.474 38.9688C181.357 39.0078 181.253 39.0599 181.162 39.125C180.758 39.5156 180.224 39.7109 179.56 39.7109C179.091 39.7109 178.72 39.6133 178.447 39.418C178.174 39.2096 178.011 39.0339 177.959 38.8906C177.907 38.7474 177.809 38.5716 177.666 38.3633C177.522 38.1419 177.431 37.875 177.392 37.5625ZM191.943 25.1992L191.748 25.7656C191.917 25.7396 192.067 25.5638 192.197 25.2383C192.588 24.6784 192.855 24.3333 192.998 24.2031C193.167 24.2031 193.291 24.099 193.369 23.8906C193.46 23.6693 193.616 23.4544 193.838 23.2461C193.838 23.1549 193.935 22.9792 194.131 22.7188C194.326 22.4583 194.45 22.276 194.502 22.1719C194.567 22.0547 194.69 21.9049 194.873 21.7227C195.055 21.5404 195.224 21.2279 195.381 20.7852C195.55 20.3424 195.693 20.0755 195.81 19.9844C195.927 19.8932 195.986 19.7109 195.986 19.4375C195.986 19.0599 195.96 18.8711 195.908 18.8711C195.791 18.8711 195.7 18.9492 195.634 19.1055C195.582 19.2487 195.459 19.4375 195.263 19.6719L194.599 20.7852C194.339 21.2279 194.163 21.5794 194.072 21.8398C193.994 22.1003 193.896 22.2565 193.779 22.3086C193.675 22.3477 193.545 22.4714 193.388 22.6797L193.115 22.9531C193.05 23.1094 192.998 23.2982 192.959 23.5195L192.783 23.6758V24.0469C192.783 24.2161 192.685 24.3724 192.49 24.5156C192.295 24.6458 192.197 24.7305 192.197 24.7695L191.943 25.1992ZM185.185 33.1289L185.322 32.875C185.543 32.7969 185.687 32.6016 185.752 32.2891C185.856 32.2109 186.123 31.8724 186.552 31.2734C186.982 30.6745 187.197 30.3424 187.197 30.2773C187.067 30.1471 186.917 30.082 186.748 30.082C186.722 30.082 186.644 30.1081 186.513 30.1602C186.383 30.2122 186.246 30.2513 186.103 30.2773C185.973 30.3034 185.83 30.3555 185.674 30.4336L185.185 30.3555C185.042 30.3555 184.723 30.5443 184.228 30.9219L183.779 30.8438C183.701 30.8438 183.571 31.013 183.388 31.3516L182.392 32.1523H182.275C182.093 32.1523 181.969 32.3151 181.904 32.6406C181.683 32.9271 181.474 33.1289 181.279 33.2461C181.084 33.3503 180.947 33.5065 180.869 33.7148V33.9688C180.504 34.3724 180.322 34.6784 180.322 34.8867C180.049 35.1471 179.866 35.4271 179.775 35.7266C179.697 36.026 179.599 36.2799 179.482 36.4883C179.534 36.6706 179.573 36.8984 179.599 37.1719C179.625 37.4323 179.756 37.5625 179.99 37.5625C180.368 37.5625 180.784 37.3346 181.24 36.8789C181.266 36.8529 181.377 36.7812 181.572 36.6641C181.767 36.5469 182.034 36.319 182.373 35.9805C182.724 35.6289 182.92 35.4466 182.959 35.4336C183.089 35.3034 183.167 35.2383 183.193 35.2383L183.349 35.082C183.349 35.0299 183.401 34.9714 183.506 34.9062C183.623 34.8411 183.772 34.7109 183.955 34.5156C184.137 34.3073 184.274 34.1836 184.365 34.1445C184.469 34.1055 184.541 34.0534 184.58 33.9883C184.619 33.9102 184.684 33.8385 184.775 33.7734C184.866 33.7083 184.912 33.6367 184.912 33.5586L184.951 33.3242L185.185 33.1289ZM209.443 34.3984L209.756 34.125C209.951 34.125 210.068 34.0404 210.107 33.8711C210.146 33.6888 210.283 33.5456 210.517 33.4414C210.765 33.3372 210.993 33.1289 211.201 32.8164C211.409 32.4909 211.624 32.3281 211.845 32.3281C211.924 32.3281 212.015 32.3932 212.119 32.5234C212.223 32.6536 212.275 32.7578 212.275 32.8359C212.275 33.2656 212.145 33.7083 211.884 34.1641L211.806 34.7109L211.67 34.9648C211.474 35.069 211.344 35.1797 211.279 35.2969C211.227 35.4141 211.077 35.5573 210.83 35.7266L210.634 36C210.348 36.0911 210.153 36.2409 210.049 36.4492C209.957 36.6576 209.821 36.7747 209.638 36.8008C209.469 36.8268 209.28 36.957 209.072 37.1914C208.942 37.2565 208.786 37.3151 208.603 37.3672L208.564 37.5625C208.434 37.6927 208.226 37.7969 207.939 37.875C207.666 37.9531 207.457 38.0312 207.314 38.1094C207.184 38.1745 207.093 38.207 207.041 38.207C206.793 38.207 206.565 38.1615 206.357 38.0703C206.149 37.9661 205.934 37.901 205.713 37.875C205.634 37.7969 205.589 37.7122 205.576 37.6211C205.563 37.5299 205.498 37.4128 205.381 37.2695C205.263 37.1133 205.205 36.9049 205.205 36.6445L205.283 36.2734C205.283 36.2214 205.25 36.1562 205.185 36.0781C205.12 36 205.088 35.9349 205.088 35.8828C205.088 35.8307 205.101 35.7917 205.127 35.7656C205.153 35.7396 205.166 35.7005 205.166 35.6484C205.166 35.5833 205.153 35.5117 205.127 35.4336C205.101 35.3555 205.088 35.2904 205.088 35.2383L205.205 34.2812C205.205 34.2031 205.179 34.1641 205.127 34.1641C205.075 34.1641 204.977 34.2292 204.834 34.3594C204.703 34.4896 204.547 34.5547 204.365 34.5547C204.261 34.6328 204.176 34.7956 204.111 35.043C204.007 35.1732 203.877 35.2904 203.72 35.3945L203.642 35.5117C203.616 35.6029 203.519 35.681 203.349 35.7461C203.18 35.7982 203.063 35.8698 202.998 35.9609L202.802 36.1562L202.431 36.1172C202.405 36.1432 202.334 36.2604 202.216 36.4688C202.099 36.6641 201.95 36.8268 201.767 36.957L200.283 38.168C200.127 38.2721 199.899 38.4023 199.599 38.5586L199.482 38.6758C198.44 39.3659 197.705 39.7109 197.275 39.7109C196.924 39.7109 196.513 39.6133 196.045 39.418C195.576 39.2227 195.322 38.9883 195.283 38.7148L195.088 37.9141C194.97 37.7318 194.912 37.4779 194.912 37.1523C194.912 36.9961 194.925 36.8919 194.951 36.8398V36.7227L194.912 36.0781C194.912 35.9219 195.036 35.8438 195.283 35.8438L195.244 35.3164C195.244 35.2643 195.355 35.0625 195.576 34.7109C195.81 34.3464 195.966 34.138 196.045 34.0859L196.24 33.832C196.227 33.6758 196.318 33.513 196.513 33.3438C196.709 33.1615 196.865 32.9792 196.982 32.7969C197.099 32.6146 197.321 32.4128 197.646 32.1914L198.232 31.6055C198.688 31.1497 199.183 30.7852 199.716 30.5117C199.795 30.4857 199.951 30.3555 200.185 30.1211C200.433 29.8867 200.706 29.7174 201.006 29.6133C201.318 29.4961 201.618 29.3529 201.904 29.1836C202.203 29.0143 202.438 28.9297 202.607 28.9297H202.763C202.815 28.9297 203.161 28.7669 203.799 28.4414H203.916C203.968 28.4414 204.091 28.4935 204.287 28.5977H204.326L204.638 28.4414C204.69 28.4154 204.756 28.4023 204.834 28.4023C205.641 28.4023 206.084 28.9622 206.162 30.082C206.188 30.3164 206.253 30.4336 206.357 30.4336C206.487 30.4336 206.67 30.1992 206.904 29.7305C207.151 29.2487 207.666 29.0078 208.447 29.0078C209.007 29.0078 209.287 29.3659 209.287 30.082C209.287 30.9284 208.909 31.7292 208.154 32.4844C208.102 32.5885 208.063 32.7057 208.037 32.8359L207.763 33.6367V33.6758C207.763 33.7539 207.705 33.8646 207.588 34.0078C207.483 34.138 207.431 34.2552 207.431 34.3594L207.47 34.8477L207.392 35.3945C207.392 35.6419 207.438 35.8047 207.529 35.8828C207.946 35.7786 208.245 35.6094 208.427 35.375C208.623 35.1276 208.759 34.9909 208.838 34.9648L209.033 34.8867C209.15 34.6914 209.287 34.5286 209.443 34.3984ZM202.959 34.3984C203.011 34.112 203.167 33.8971 203.427 33.7539C203.701 33.5977 203.864 33.4414 203.916 33.2852C204.163 33.1029 204.515 32.7773 204.97 32.3086C205.439 31.8398 205.674 31.5534 205.674 31.4492C205.674 31.4102 205.647 31.3906 205.595 31.3906H205.556L205.4 31.4883L205.049 31.4492L204.677 31.4883L204.404 31.3516L204.15 31.3906L203.759 31.3125C203.551 31.3125 203.369 31.3581 203.213 31.4492C203.069 31.5273 202.783 31.6185 202.353 31.7227C201.937 31.8268 201.559 32.0091 201.22 32.2695C200.882 32.5169 200.634 32.6406 200.478 32.6406C200.387 32.8359 200.081 33.1159 199.56 33.4805C199.248 33.5846 199.046 33.8125 198.955 34.1641C198.616 34.4375 198.447 34.5938 198.447 34.6328L198.31 34.9648C198.206 35.056 198.076 35.1341 197.92 35.1992C197.763 35.2513 197.672 35.388 197.646 35.6094C197.62 35.8177 197.529 36.013 197.373 36.1953C197.23 36.3646 197.158 36.5013 197.158 36.6055C197.158 37.2435 197.282 37.5625 197.529 37.5625C197.633 37.5625 197.848 37.4974 198.174 37.3672C198.512 37.224 198.707 37.1263 198.759 37.0742C198.812 37.0221 198.916 36.9701 199.072 36.918L199.443 36.7227C199.495 36.6706 199.554 36.638 199.619 36.625C199.684 36.612 199.749 36.5729 199.814 36.5078C199.879 36.4297 199.996 36.3516 200.166 36.2734C200.335 36.1823 200.465 36.0651 200.556 35.9219C200.778 35.7917 201.136 35.5898 201.631 35.3164L202.041 35.0039C202.327 34.8737 202.503 34.763 202.568 34.6719C202.633 34.5807 202.763 34.4896 202.959 34.3984ZM228.955 35.6094H229.033L229.228 35.6875C229.254 35.6875 229.28 35.6745 229.306 35.6484C229.306 35.4271 229.411 35.2383 229.619 35.082C229.684 34.8346 229.827 34.6458 230.049 34.5156C230.283 34.3854 230.647 34.1706 231.142 33.8711L231.631 33.4414L231.865 33.3242L232.021 33.1289C232.164 32.9596 232.301 32.875 232.431 32.875C232.627 32.875 232.724 32.9466 232.724 33.0898L232.549 33.4805L232.627 34.125C232.627 34.3594 232.542 34.5677 232.373 34.75C232.216 34.9323 231.969 35.1992 231.631 35.5508L230.634 36.6055L230.107 36.8789C229.977 36.957 229.86 37.0482 229.756 37.1523L228.994 37.7969C228.994 37.9792 228.935 38.1159 228.818 38.207H228.506L228.349 38.2852C228.258 38.5326 227.991 38.7734 227.549 39.0078L227.275 39.2031C227.184 39.2812 227.099 39.3203 227.021 39.3203L226.474 39.2422L226.103 39.3203C225.999 39.3203 225.856 39.2682 225.674 39.1641C225.504 39.0599 225.328 38.9818 225.146 38.9297C224.964 38.8646 224.73 38.6237 224.443 38.207C224.17 37.7773 224.02 37.4974 223.994 37.3672C223.994 37.3151 223.961 37.2305 223.896 37.1133C223.844 36.9831 223.818 36.9049 223.818 36.8789C223.818 36.8529 223.877 36.7227 223.994 36.4883V36.4492C223.994 36.4102 223.955 36.319 223.877 36.1758C223.812 36.0326 223.779 35.8568 223.779 35.6484C223.779 35.5312 223.74 35.3815 223.662 35.1992C223.766 35.0951 223.818 35.0169 223.818 34.9648C223.818 34.9128 223.799 34.8411 223.759 34.75C223.72 34.6458 223.701 34.5677 223.701 34.5156L223.818 33.5586L223.74 33.0703L223.779 32.6016C223.779 32.3281 223.662 32.1914 223.427 32.1914C223.323 32.1914 223.193 32.263 223.037 32.4062L222.9 32.4453C222.549 32.6146 222.301 32.7578 222.158 32.875C222.015 32.9792 221.865 33.0312 221.709 33.0312C221.631 33.1094 221.481 33.181 221.259 33.2461L221.103 33.3633C221.051 33.4154 220.947 33.4935 220.791 33.5977C220.791 33.6367 220.543 33.8581 220.049 34.2617C219.567 34.6523 219.131 35.0234 218.74 35.375C218.349 35.7266 218.063 35.9219 217.881 35.9609C217.711 35.987 217.627 36.1497 217.627 36.4492C217.627 36.5013 217.509 36.6055 217.275 36.7617C217.249 36.7617 217.112 36.9049 216.865 37.1914C216.657 37.0352 216.539 36.957 216.513 36.957C216.344 36.957 216.22 37.1719 216.142 37.6016C216.064 37.7708 215.856 37.875 215.517 37.9141C215.491 37.9271 215.446 38.0247 215.381 38.207L215.302 38.2852H215.107C215.081 38.2852 214.99 38.3633 214.834 38.5195C214.677 38.6628 214.541 38.7539 214.424 38.793C214.254 39.1445 214.111 39.3203 213.994 39.3203C213.942 39.3203 213.864 39.2943 213.759 39.2422C213.668 39.1901 213.551 39.1445 213.408 39.1055C213.265 39.0664 213.102 38.9102 212.92 38.6367C212.75 38.3503 212.666 38.1094 212.666 37.9141C212.666 36.4688 212.946 35.681 213.506 35.5508L213.545 35.4727V35.3164C213.545 35.1471 213.616 35.0299 213.759 34.9648C213.916 34.8867 214.072 34.7435 214.228 34.5352C214.384 34.3138 214.489 34.1901 214.541 34.1641H214.795C214.847 34.1641 214.873 34.0273 214.873 33.7539C214.873 33.6758 214.905 33.6042 214.97 33.5391C215.036 33.474 215.075 33.3828 215.088 33.2656C215.101 33.1354 215.192 32.9336 215.361 32.6602C215.543 32.3737 215.634 32.2044 215.634 32.1523L215.595 32.0742C215.27 32.3737 215.036 32.5365 214.892 32.5625C214.749 32.5885 214.554 32.7773 214.306 33.1289L213.994 33.0703C213.447 33.474 213.108 33.7018 212.978 33.7539C212.848 33.806 212.705 33.9557 212.549 34.2031C212.549 34.2812 212.503 34.3333 212.412 34.3594C212.321 34.3854 212.151 34.4896 211.904 34.6719H211.787C211.461 34.6719 211.299 34.4375 211.299 33.9688L211.709 32.8555C211.826 32.5039 212.099 32.2109 212.529 31.9766C212.972 31.7292 213.343 31.4948 213.642 31.2734C213.942 31.0521 214.241 30.9349 214.541 30.9219L214.677 30.7266C215.12 30.5573 215.42 30.2904 215.576 29.9258C215.732 29.5612 215.947 29.3789 216.22 29.3789C216.937 29.3789 217.483 29.6458 217.861 30.1797C218.239 30.7005 218.427 31.1172 218.427 31.4297L218.466 31.957C218.466 32.1393 218.427 32.3932 218.349 32.7188C218.193 32.9531 218.115 33.1289 218.115 33.2461C218.115 33.3503 218.18 33.4023 218.31 33.4023C218.388 33.4023 218.493 33.3503 218.623 33.2461C218.753 33.1289 218.896 33.0247 219.052 32.9336C219.222 32.8424 219.319 32.7643 219.345 32.6992C219.476 32.3867 219.703 32.1719 220.029 32.0547C220.355 31.9375 220.556 31.8398 220.634 31.7617L220.83 31.6055L220.986 31.3125C221.338 31.1562 221.572 31.013 221.689 30.8828C221.806 30.7526 221.963 30.668 222.158 30.6289C222.353 30.5898 222.575 30.4727 222.822 30.2773L223.115 30.1992L223.388 30.043C223.414 30.0169 223.493 29.9844 223.623 29.9453C223.753 29.9062 223.942 29.8411 224.189 29.75C224.45 29.6458 224.625 29.5938 224.716 29.5938C225.381 29.5938 225.901 29.8607 226.279 30.3945C226.67 30.9284 226.865 31.3581 226.865 31.6836L226.826 32.0352L226.904 32.5625V32.6406L226.748 33.7148L226.787 34.0859C226.787 34.6979 226.657 35.1211 226.396 35.3555C226.331 35.3815 226.299 35.4466 226.299 35.5508V35.7266L226.689 36.5469C226.806 36.8333 226.897 36.9766 226.963 36.9766L227.588 36.8008C227.77 36.7487 227.92 36.612 228.037 36.3906C228.141 36.3385 228.323 36.1823 228.584 35.9219C228.662 35.7135 228.786 35.6094 228.955 35.6094Z" fill="#FFFBFB"/>
<path d="M251.057 28.5391V33.8027C251.057 34.8783 251.066 35.7806 251.085 36.5098C251.094 36.7559 251.212 36.9108 251.44 36.9746L252.958 37.4531L252.999 38.041C251.914 38.0137 250.829 38 249.745 38C248.66 38 247.53 38.0137 246.354 38.041L246.299 37.4531L247.981 36.9473C248.218 36.8743 248.341 36.7331 248.35 36.5234C248.369 35.7852 248.378 34.8783 248.378 33.8027V22.7148C248.378 21.8034 248.369 21.0469 248.35 20.4453C248.341 20.2083 248.232 20.0534 248.022 19.9805L246.327 19.4473L246.299 18.8594C247.475 18.8958 248.605 18.9141 249.69 18.9141C250.784 18.9141 251.864 18.8958 252.93 18.8594L252.999 19.4473L251.44 19.9258C251.212 19.9805 251.094 20.1217 251.085 20.3496C251.066 21.0059 251.057 21.776 251.057 22.6602V27.2949H261.01V22.6602C261.01 21.776 261.001 21.0059 260.983 20.3496C260.974 20.1217 260.855 19.9805 260.628 19.9258L259.11 19.4473L259.083 18.8594C260.195 18.8958 261.293 18.9141 262.378 18.9141C263.462 18.9141 264.574 18.8958 265.714 18.8594L265.768 19.4473L264.046 19.9805C263.836 20.0534 263.727 20.2083 263.717 20.4453C263.699 21.0469 263.69 21.8034 263.69 22.7148V33.8027C263.69 34.8783 263.699 35.7852 263.717 36.5234C263.727 36.7331 263.85 36.8743 264.087 36.9473L265.741 37.4531L265.768 38.041C264.565 38.0137 263.417 38 262.323 38C261.238 38 260.176 38.0137 259.137 38.041L259.083 37.4531L260.628 36.9746C260.855 36.9108 260.974 36.7559 260.983 36.5098C261.001 35.7806 261.01 34.8783 261.01 33.8027V28.5391H251.057ZM270.321 31.5469C270.321 33.2513 270.64 34.6413 271.278 35.7168C271.916 36.7832 272.864 37.3164 274.122 37.3164C275.298 37.3164 276.191 36.847 276.801 35.9082C277.421 34.9603 277.731 33.5612 277.731 31.7109C277.731 29.9701 277.408 28.5983 276.76 27.5957C276.113 26.5931 275.174 26.0918 273.944 26.0918C272.777 26.0918 271.88 26.543 271.251 27.4453C270.631 28.3477 270.321 29.7148 270.321 31.5469ZM280.52 31.4238C280.52 33.502 279.891 35.1836 278.633 36.4688C277.385 37.7448 275.794 38.3828 273.862 38.3828C271.975 38.3828 270.449 37.7812 269.282 36.5781C268.124 35.3659 267.546 33.7845 267.546 31.834C267.546 29.8288 268.152 28.1927 269.364 26.9258C270.585 25.6497 272.199 25.0117 274.204 25.0117C276.1 25.0117 277.626 25.5996 278.784 26.7754C279.941 27.9421 280.52 29.4915 280.52 31.4238ZM286.522 26.8164C286.467 29.8971 286.44 32.3809 286.44 34.2676C286.44 35.2155 286.581 35.8717 286.864 36.2363C287.147 36.5918 287.684 36.7695 288.477 36.7695C289.106 36.7695 289.926 36.6875 290.938 36.5234L291.02 37.1387C289.443 37.9316 288.035 38.3281 286.796 38.3281C285.802 38.3281 285.064 38.0638 284.581 37.5352C284.098 36.9974 283.856 36.1908 283.856 35.1152C283.856 33.347 283.888 30.5534 283.952 26.7344L282.065 26.2695L281.983 25.709L284.089 25.5312L285.032 22.2227C285.542 22.0859 286.007 21.9538 286.426 21.8262L286.563 21.9219C286.536 23.0247 286.522 24.0547 286.522 25.0117V25.5176H290.637V26.8164H286.522ZM303.448 37.0293C302.673 37.5124 301.876 37.8587 301.055 38.0684C300.235 38.278 299.474 38.3828 298.772 38.3828C296.767 38.3828 295.167 37.8132 293.973 36.6738C292.779 35.5254 292.182 33.9349 292.182 31.9023C292.182 29.8789 292.752 28.2246 293.891 26.9395C295.04 25.6543 296.571 25.0117 298.485 25.0117C300.089 25.0117 301.338 25.4948 302.231 26.4609C303.124 27.418 303.571 28.7441 303.571 30.4395C303.571 30.6947 303.557 30.9544 303.53 31.2188H294.862C294.862 33.1784 295.322 34.582 296.243 35.4297C297.163 36.2682 298.604 36.6875 300.563 36.6875C301.438 36.6875 302.372 36.6055 303.366 36.4414L303.448 37.0293ZM300.85 30.084V29.6738C300.85 28.3796 300.641 27.4544 300.221 26.8984C299.811 26.3424 299.196 26.0645 298.376 26.0645C297.291 26.0645 296.462 26.4564 295.887 27.2402C295.313 28.0241 294.99 28.972 294.917 30.084H300.85ZM305.307 18.8184L305.239 18.3672C306.852 18.0573 308.338 17.7337 309.696 17.3965L309.819 17.5059C309.764 18.9915 309.737 21.056 309.737 23.6992V32.5996C309.737 34.2311 309.746 35.5436 309.764 36.5371C309.792 36.8014 309.919 36.9655 310.147 37.0293L311.637 37.4805L311.678 38.041C310.448 38.0137 309.386 38 308.493 38C307.6 38 306.542 38.0137 305.321 38.041L305.266 37.4805L306.811 37.0293C307.039 36.9564 307.162 36.8105 307.18 36.5918C307.199 35.5618 307.208 34.4134 307.208 33.1465V27.5273C307.208 24.1367 307.189 21.416 307.153 19.3652L305.307 18.8184Z" fill="#FFFBFB"/>
<g clip-path="url(#clip0)">
<path d="M79.3723 29.9357C80.2221 29.9357 80.9135 29.2137 80.9135 28.3262C80.9135 27.4388 80.2221 26.7168 79.3723 26.7168C78.5224 26.7168 77.831 27.4388 77.831 28.3262C77.831 29.2137 78.5224 29.9357 79.3723 29.9357ZM79.3723 27.3029C79.9126 27.3029 80.3523 27.762 80.3523 28.3262C80.3523 28.8905 79.9126 29.3496 79.3723 29.3496C78.8319 29.3496 78.3922 28.8905 78.3922 28.3262C78.3922 27.762 78.8318 27.3029 79.3723 27.3029Z" fill="#FFFBFB"/>
<path d="M75.9535 33.9675L77.5501 34.9859C77.6384 35.0422 77.7365 35.0705 77.835 35.0705C77.9237 35.0705 78.0125 35.0476 78.0946 35.0015C78.2678 34.9042 78.3753 34.7236 78.3822 34.5183L78.4464 32.6094C78.4533 32.4046 78.3585 32.2168 78.1929 32.107C78.0272 31.9972 77.8241 31.9875 77.6496 32.0811L75.9888 32.9717C75.8131 33.0659 75.6993 33.2526 75.692 33.4588C75.6846 33.665 75.7849 33.8599 75.9535 33.9675V33.9675ZM77.8846 32.6139L77.8222 34.4727L76.2675 33.481L77.8846 32.6139Z" fill="#FFFBFB"/>
<path d="M87.421 33.7795C87.576 33.7795 87.7016 33.6483 87.7016 33.4864V26.2103C87.7016 25.5455 87.1837 25.0047 86.5471 25.0047H81.2999V23.5184C81.2999 22.8508 80.7798 22.3077 80.1405 22.3077H79.5668C79.4117 22.3077 79.2861 22.4389 79.2861 22.6008C79.2861 22.7626 79.4117 22.8938 79.5668 22.8938H80.1405C80.4703 22.8938 80.7386 23.174 80.7386 23.5184V25.0047H80.1189V23.9493C80.1189 23.6877 79.9151 23.475 79.6646 23.475H76.5854C76.3349 23.475 76.1311 23.6877 76.1311 23.9493V25.0047H75.5114V23.5184C75.5114 23.174 75.7797 22.8938 76.1095 22.8938H78.2622C78.4172 22.8938 78.5428 22.7626 78.5428 22.6008C78.5428 22.4389 78.4172 22.3077 78.2622 22.3077H76.1095C75.4702 22.3077 74.9501 22.8508 74.9501 23.5184V25.0047H69.7029C69.0663 25.0047 68.5484 25.5455 68.5484 26.2103V37.4477C68.5484 37.9048 68.7932 38.3032 69.1531 38.5076C69.3166 38.6005 69.504 38.6533 69.7029 38.6533H69.7072V39.2548C69.7072 39.685 70.0424 40.035 70.4543 40.035H71.4466C71.7544 40.035 72.0269 39.842 72.1408 39.5433L72.4801 38.6533H83.77L84.1094 39.5433C84.2232 39.842 84.4957 40.035 84.8035 40.035H85.7958C86.2078 40.035 86.5429 39.685 86.5429 39.2548V38.6533H86.5472C86.7461 38.6533 86.9335 38.6005 87.0971 38.5076C87.4569 38.3032 87.7017 37.9048 87.7017 37.4477V34.8474C87.7017 34.6856 87.5761 34.5544 87.4211 34.5544C87.2661 34.5544 87.1405 34.6856 87.1405 34.8474V35.7645C87.1244 35.7641 87.1085 35.7631 87.0925 35.7631C86.0942 35.7631 85.2821 36.6111 85.2821 37.6535C85.2821 37.7946 85.297 37.9327 85.3257 38.0672H83.2328V32.8364C83.4489 32.7707 83.6074 32.5623 83.6074 32.3157V31.3423C83.6074 31.0956 83.4489 30.8873 83.2328 30.8215V25.5908H85.3257C85.297 25.7253 85.2821 25.8635 85.2821 26.0047C85.2821 27.0471 86.0942 27.895 87.0925 27.895C87.1085 27.895 87.1244 27.8942 87.1405 27.8937V30.1851L85.3621 31.2479C85.0942 31.408 84.9796 31.7427 85.0895 32.0438L85.5031 33.1771C85.5698 33.3599 85.71 33.5003 85.8878 33.5623C85.9525 33.5849 86.0192 33.596 86.0855 33.596C86.2013 33.596 86.316 33.562 86.4168 33.4958L87.1405 33.0199V33.4864C87.1403 33.6483 87.266 33.7795 87.421 33.7795V33.7795ZM87.0923 36.3492C87.1083 36.3492 87.1243 36.3495 87.1402 36.3502V37.4475C87.1402 37.6824 87.0145 37.8873 86.8296 37.9923C86.7456 38.04 86.6493 38.0672 86.5471 38.0672H85.9072C85.8647 37.935 85.8433 37.7965 85.8433 37.6534C85.8433 36.9343 86.4036 36.3492 87.0923 36.3492V36.3492ZM85.7194 38.6533C85.7197 38.6533 85.7199 38.6533 85.7202 38.6533H85.9815V39.2548C85.9815 39.3618 85.8981 39.4488 85.7957 39.4488H84.8034C84.7268 39.4488 84.6591 39.4008 84.6307 39.3266L84.3741 38.6533H85.7194ZM81.9839 25.5908H82.6713V30.7996H81.9839V25.5908ZM76.6924 24.061H79.5576V25.0047H76.6924V24.061ZM69.1098 26.2102C69.1098 25.8687 69.3759 25.5909 69.7029 25.5909H70.5347C70.5772 25.7235 70.5987 25.862 70.5987 26.0047C70.5987 26.7239 70.0385 27.309 69.3501 27.309C69.2689 27.309 69.1886 27.3009 69.1098 27.2849V26.2102ZM69.7029 38.0672C69.6007 38.0672 69.5044 38.04 69.4204 37.9923C69.2355 37.8873 69.1098 37.6824 69.1098 37.4475V36.3733C69.1886 36.3572 69.2689 36.3492 69.35 36.3492C70.0385 36.3492 70.5987 36.9343 70.5987 37.6534C70.5987 37.7961 70.5772 37.9346 70.5347 38.0672H69.7029ZM71.6193 39.3265C71.5909 39.4008 71.5232 39.4488 71.4466 39.4488H70.4543C70.3519 39.4488 70.2685 39.3618 70.2685 39.2548V38.6533H70.7218C70.7221 38.6533 70.7223 38.6533 70.7226 38.6533H71.8759L71.6193 39.3265ZM73.0174 30.8216C72.8013 30.8873 72.6428 31.0957 72.6428 31.3423V32.3157C72.6428 32.5624 72.8013 32.7707 73.0174 32.8365V38.0672H71.1163C71.1451 37.9326 71.1599 37.7945 71.1599 37.6535C71.1599 36.6111 70.348 35.7631 69.35 35.7631C69.2692 35.7631 69.189 35.7688 69.1096 35.7798V27.8784C69.189 27.8894 69.2692 27.895 69.35 27.895C70.348 27.895 71.1599 27.0471 71.1599 26.0047C71.1599 25.8637 71.145 25.7255 71.1162 25.5908H73.0174V30.8216H73.0174ZM74.2661 38.0672H73.5787V32.8584H74.2661V38.0672ZM74.6407 32.2723H73.204V31.3857H74.6407V32.2723ZM81.4227 30.8216C81.2065 30.8873 81.048 31.0957 81.048 31.3423V32.3157C81.048 32.5624 81.2065 32.7707 81.4227 32.8365V38.0672H74.8273V32.8365C75.0434 32.7707 75.202 32.5624 75.202 32.3157V31.3423C75.202 31.0957 75.0435 30.8873 74.8273 30.8216V30.1604C74.8273 29.9985 74.7017 29.8673 74.5467 29.8673C74.3917 29.8673 74.266 29.9985 74.266 30.1604V30.7996H73.5787V25.5908H74.266V28.814C74.266 28.9758 74.3917 29.107 74.5467 29.107C74.7017 29.107 74.8273 28.9758 74.8273 28.814V25.5908H81.4227V30.8216ZM82.6714 38.0672H81.984V32.8584H82.6714V38.0672ZM83.046 32.2723H81.6093V31.3857H83.046V32.2723ZM87.1402 27.308C87.1242 27.3086 87.1083 27.309 87.0923 27.309C86.4036 27.309 85.8433 26.7239 85.8433 26.0047C85.8433 25.8616 85.8647 25.7231 85.9072 25.5909H86.5472C86.8742 25.5909 87.1402 25.8687 87.1402 26.2102V27.308H87.1402ZM86.1176 32.9998C86.0972 33.0133 86.078 33.0108 86.0654 33.0064C86.0528 33.002 86.036 32.9918 86.0274 32.9684L85.6138 31.8351C85.603 31.8054 85.6143 31.7724 85.6407 31.7566L87.1403 30.8604V32.3273L86.1176 32.9998Z" fill="#FFFBFB"/>
</g>
<path d="M41.7357 38.0345C40.7809 38.5414 39.7315 39.1134 38.5877 39.7505L38.2648 39.2803L39.7053 37.8589C39.8693 37.7022 39.9038 37.5296 39.8088 37.3414C39.4986 36.7499 39.0907 36.0015 38.585 35.096L32.1698 23.6087L28.0594 25.791L28.7329 29.4029L28.3121 29.7308L25.7081 25.7708L25.7382 25.6355C27.665 24.6523 29.5017 23.6971 31.2484 22.7697L34.3574 21.1191C36.0963 20.1959 37.9236 19.2059 39.8394 18.1489L39.9607 18.2039L41.4834 22.6335L41.0626 22.9614L38.5625 20.2147L34.4521 22.397L40.8673 33.8843C41.3729 34.7898 41.7964 35.53 42.1376 36.1049C42.2482 36.285 42.4156 36.3503 42.6396 36.301L44.6458 35.8925L44.9455 36.3751C43.7294 36.9909 42.6595 37.544 41.7357 38.0345ZM40.3882 17.3204C41.5164 16.403 42.6296 15.4588 43.7278 14.4878L43.884 14.5242C44.248 15.2661 44.799 16.3068 45.5369 17.6461C46.2825 18.9813 47.1246 20.4891 48.0631 22.1696C48.9339 20.5931 49.9515 19.4957 51.1159 18.8775C52.1949 18.3046 53.2199 18.1484 54.1907 18.409C55.1572 18.6619 55.9619 19.3639 56.6047 20.5149L58.8738 24.5781C59.3666 25.4605 59.7707 26.1662 60.0862 26.6951C60.2054 26.8905 60.3775 26.9733 60.6023 26.9434L62.125 26.6424L62.4119 27.1019C61.3743 27.6229 60.4752 28.0854 59.7144 28.4893C58.9537 28.8932 58.1139 29.3539 57.1953 29.8715L56.8851 29.4243L57.8515 28.4785C58.0035 28.3182 58.038 28.1457 57.955 27.961C57.9027 27.8494 57.7716 27.6056 57.5617 27.2296L54.759 22.2111C54.2319 21.2673 53.6258 20.7136 52.9407 20.5501C52.2513 20.3788 51.4602 20.5302 50.5675 21.0042C49.7989 21.4122 49.0906 22.0271 48.4424 22.8487L51.3286 28.0169C51.8599 28.9684 52.3541 29.8352 52.811 30.6173C52.9388 30.8281 53.1108 30.9109 53.3271 30.8657L54.7309 30.568L55.0178 31.0276C54.0268 31.5239 53.1509 31.9739 52.3902 32.3778C51.6294 32.7817 50.7354 33.2713 49.708 33.8466L49.3979 33.3994L50.5016 32.321C50.6691 32.1525 50.7053 31.974 50.6102 31.7858C50.2144 31.0409 49.6972 30.0967 49.0587 28.9534L46.3717 24.1421C45.4975 22.5767 44.7201 21.1936 44.0396 19.993C43.3668 18.7883 42.8495 17.889 42.4876 17.2951L40.6585 17.6693L40.3882 17.3204ZM72.9051 20.4266C72.4724 21.1837 71.956 21.8359 71.3559 22.3833C70.7558 22.9307 70.1569 23.3631 69.5591 23.6804C67.8513 24.5871 66.2211 24.8309 64.6685 24.4116C63.1116 23.9846 61.8553 22.9155 60.8997 21.2043C59.9484 19.5008 59.6557 17.8505 60.0219 16.2533C60.3957 14.652 61.3978 13.4187 63.028 12.5532C64.3942 11.8278 65.6849 11.6699 66.8999 12.0794C68.1106 12.4812 69.1145 13.3957 69.9116 14.823C70.0316 15.0379 70.1421 15.2628 70.243 15.4977L62.8606 19.4171C63.7819 21.0669 64.8339 22.0405 66.0165 22.3379C67.1948 22.6276 68.6184 22.3294 70.2875 21.4433C71.0327 21.0476 71.7898 20.5561 72.5588 19.9688L72.9051 20.4266ZM67.4272 15.754L67.2344 15.4087C66.6259 14.319 66.0124 13.635 65.3939 13.3565C64.7831 13.0738 64.1284 13.118 63.4298 13.4889C62.506 13.9794 61.9839 14.6844 61.8633 15.604C61.7428 16.5235 61.9129 17.4679 62.3736 18.437L67.4272 15.754Z" fill="#FFFBFB"/>
<defs>
<clipPath id="clip0">
<rect x="68.5484" y="20" width="19.1532" height="20" fill="white"/>
</clipPath>
</defs>
</svg>
