<svg width="372" height="56" viewBox="0 0 372 56" fill="none" xmlns="http://www.w3.org/2000/svg">
<path d="M93.7734 34.4453L94.0547 34.1641V33.9766C94.0547 33.9141 94.1328 33.7266 94.2891 33.4141C94.4453 33.0859 94.5859 32.8672 94.7109 32.7578C94.8516 32.6484 94.9531 32.5234 95.0156 32.3828C95.0781 32.2266 95.2188 32.1328 95.4375 32.1016C95.3438 31.9453 95.2969 31.8203 95.2969 31.7266L95.2031 31.2812C95.2031 31.25 95.25 31.1875 95.3438 31.0938L95.4844 30.9062C95.5625 30.8438 95.6641 30.7656 95.7891 30.6719C95.9141 30.5781 95.9844 30.4531 96 30.2969C96.0156 30.125 96.125 29.8984 96.3281 29.6172C96.5469 29.3203 96.7109 29.1719 96.8203 29.1719C96.9297 29.1719 97.0234 29.1406 97.1016 29.0781C97.1797 29.0156 97.25 28.9844 97.3125 28.9844C97.4062 28.9844 97.4844 29.0547 97.5469 29.1953C97.625 29.3359 97.6797 29.4062 97.7109 29.4062C97.8359 29.4062 97.8984 29.3281 97.8984 29.1719C97.8984 29.0938 97.8203 29.0391 97.6641 29.0078C97.5234 28.9609 97.4297 28.875 97.3828 28.75C97.3359 28.625 97.2891 28.5234 97.2422 28.4453C97.1953 28.3516 97.1719 28.2891 97.1719 28.2578C97.1719 28.1328 97.2422 27.9922 97.3828 27.8359C97.5391 27.6797 97.6797 27.6016 97.8047 27.6016C97.9297 27.6016 98.0547 27.5312 98.1797 27.3906C97.9922 27.2969 97.8984 27.1875 97.8984 27.0625C98.0859 26.875 98.2656 26.6016 98.4375 26.2422C98.625 25.8672 98.8281 25.6797 99.0469 25.6797C99.0781 25.6797 99.1562 25.7109 99.2812 25.7734C99.3125 25.7109 99.3984 25.5 99.5391 25.1406L99.375 24.6719C99.6719 24.25 99.8828 24.0078 100.008 23.9453L100.195 23.8047C100.289 23.3672 100.656 23 101.297 22.7031C102.125 21.8281 102.625 21.3906 102.797 21.3906C102.828 21.3906 102.891 21.4453 102.984 21.5547L103.219 21.4844C103.312 21.4844 103.359 21.5391 103.359 21.6484C102.859 22.1172 102.609 22.3672 102.609 22.3984H102.633C102.68 22.3672 102.734 22.3203 102.797 22.2578C102.875 22.1953 103 22.0859 103.172 21.9297C103.172 21.9922 103.203 22.0234 103.266 22.0234C103.438 21.8047 103.523 21.5781 103.523 21.3438C103.523 21.3125 103.438 21.25 103.266 21.1562L103.219 21.0156C103.219 20.9219 103.492 20.6328 104.039 20.1484C104.602 19.6641 105.211 19.2344 105.867 18.8594L106.102 18.5781C106.164 18.5 106.25 18.4609 106.359 18.4609C106.484 18.4609 106.672 18.5469 106.922 18.7188L107.016 18.6719C106.984 18.6094 106.969 18.4922 106.969 18.3203C106.969 18.2266 107.031 18.1641 107.156 18.1328C107.312 17.8984 107.648 17.6953 108.164 17.5234C108.68 17.3516 109.031 17.1875 109.219 17.0312L109.711 16.8438C109.961 16.8125 110.172 16.7656 110.344 16.7031C110.531 16.6406 110.75 16.6094 111 16.6094C111.047 16.6094 111.172 16.5625 111.375 16.4688C111.578 16.3594 111.727 16.3047 111.82 16.3047C111.914 16.3047 112.086 16.4062 112.336 16.6094C112.336 16.6406 112.367 16.6562 112.43 16.6562L112.734 16.4453H112.781C113 16.6484 113.234 16.8438 113.484 17.0312C114.141 17.5156 114.469 18.1016 114.469 18.7891L114.352 19.7734L114.398 20.5938C114.398 20.8594 114.273 21.0938 114.023 21.2969C113.914 22 113.773 22.5078 113.602 22.8203C113.43 23.1172 113.289 23.5312 113.18 24.0625C113.086 24.5938 112.633 25.3359 111.82 26.2891C111.82 26.3203 111.719 26.4609 111.516 26.7109C111.328 26.9453 111.094 27.3672 110.812 27.9766C110.375 28.4453 110.094 28.8203 109.969 29.1016C109.859 29.3672 109.641 29.5703 109.312 29.7109H109.219L109.312 30.2266C108.719 31.1953 108.133 31.6797 107.555 31.6797C107.195 31.6797 106.836 31.5234 106.477 31.2109C106.133 30.8828 105.961 30.5547 105.961 30.2266C105.961 29.4609 106.859 28.5312 108.656 27.4375C108.688 27.4375 108.75 27.4531 108.844 27.4844L109.031 27.1562C108.969 27.0312 108.938 26.9531 108.938 26.9219C108.938 26.7031 109.18 26.4453 109.664 26.1484C109.883 25.6953 110.117 25.4531 110.367 25.4219L111.281 23.9922L111.375 23.7578V23.4062C111.375 23.3438 111.539 23.2031 111.867 22.9844L111.914 22.8906V22.3984C111.914 22.2109 112.039 22.0547 112.289 21.9297C112.352 21.8516 112.414 21.6016 112.477 21.1797C112.555 20.7422 112.688 20.3516 112.875 20.0078C112.812 19.2734 112.719 18.8281 112.594 18.6719C112.484 18.5 112.305 18.4141 112.055 18.4141C111.836 18.4141 111.469 18.5547 110.953 18.8359C110.438 19.1016 110.102 19.2344 109.945 19.2344C109.883 19.2344 109.82 19.2109 109.758 19.1641C109.695 19.1172 109.633 19.0938 109.57 19.0938C109.492 19.0938 109.414 19.1797 109.336 19.3516C109.258 19.5078 109.164 19.6016 109.055 19.6328C108.945 19.6641 108.805 19.75 108.633 19.8906C108.477 20.0312 108.258 20.1641 107.977 20.2891L107.602 20.7812L107.203 21.0625C107.156 21.3906 106.953 21.5547 106.594 21.5547C106.516 21.5547 106.383 21.7422 106.195 22.1172L106.008 22.3047H105.633L105.586 22.5156V22.75C105.586 22.8438 105.531 22.9219 105.422 22.9844L104.531 23.9453L104.367 24.0391H104.18L104.086 24.0859C104.039 24.6484 103.883 24.9375 103.617 24.9531C103.617 25.1562 103.391 25.4297 102.938 25.7734L102.75 26.0078H102.445L102.398 26.0547C102.508 26.1484 102.562 26.2109 102.562 26.2422C102.562 26.3359 102.469 26.5156 102.281 26.7812C102.109 27.0312 101.977 27.1406 101.883 27.1094C101.82 27.5469 101.672 27.9297 101.438 28.2578L101.25 28.6094C101.156 28.7656 101.062 28.8906 100.969 28.9844V29.1719C100.969 29.5781 100.586 29.9453 99.8203 30.2734L99.9609 30.8594C99.8984 30.9844 99.7734 31.1719 99.5859 31.4219L99.375 31.8672C99.2812 32.1484 99.1719 32.3203 99.0469 32.3828C99 32.5234 98.9219 32.6484 98.8125 32.7578C98.7188 32.8672 98.6719 32.9531 98.6719 33.0156L98.7188 33.3438C98.4844 33.7656 98.3438 34.0703 98.2969 34.2578C98.25 34.4297 98.1719 34.5938 98.0625 34.75C97.9531 34.9062 97.8672 35.0859 97.8047 35.2891C97.7422 35.4766 97.5938 35.6797 97.3594 35.8984C97.1719 36.5703 97.0781 36.9375 97.0781 37L96.75 37.2812C96.75 37.3125 96.7031 37.4297 96.6094 37.6328L96.5625 37.8203V38.1484C96.5625 38.3516 96.3672 38.5938 95.9766 38.875C96.1641 38.9375 96.2578 39.0625 96.2578 39.25C96.2578 39.6094 96.1875 39.8828 96.0469 40.0703C95.9062 40.2578 95.8047 40.4531 95.7422 40.6562C95.6797 40.8438 95.5625 41.0938 95.3906 41.4062C95.5625 41.5156 95.6484 41.6484 95.6484 41.8047L95.4375 43.375L95.6016 43.8203C95.5703 43.8516 95.4688 43.8984 95.2969 43.9609C95.3281 44.1484 95.4219 44.3125 95.5781 44.4531C95.7344 44.5781 95.9766 44.9609 96.3047 45.6016C96.3672 45.6641 96.5 45.6953 96.7031 45.6953C96.8906 45.6953 97.0312 45.6797 97.125 45.6484C97.2188 45.6172 97.4219 45.5859 97.7344 45.5547C98.0625 45.5078 98.4062 45.3594 98.7656 45.1094H99.1406C99.5156 45.1094 99.7734 44.9766 99.9141 44.7109C100.07 44.4297 100.227 44.2891 100.383 44.2891C100.523 44.2891 100.75 44.2266 101.062 44.1016H101.203C101.266 43.9766 101.328 43.8906 101.391 43.8438C101.453 43.7969 101.578 43.6562 101.766 43.4219C101.969 43.1719 102.148 43.0469 102.305 43.0469C102.852 42.6875 103.273 42.3672 103.57 42.0859C103.602 42.0547 103.688 42.0312 103.828 42.0156C103.969 42 104.078 41.9219 104.156 41.7812C104.234 41.6406 104.586 41.3125 105.211 40.7969C105.836 40.2812 106.211 39.875 106.336 39.5781C106.461 39.2656 106.609 39.1094 106.781 39.1094C106.844 39.1094 106.953 39.125 107.109 39.1562H107.156C107.219 39.1562 107.266 39.0859 107.297 38.9453C107.328 38.8047 107.648 38.5547 108.258 38.1953C108.273 37.8828 108.516 37.6094 108.984 37.375L109.805 36.5781L110.18 36.625C110.273 36.5625 110.328 36.4219 110.344 36.2031C110.359 35.9844 110.484 35.8359 110.719 35.7578H110.906L111.047 35.6641C111.156 35.1484 111.336 34.8906 111.586 34.8906H111.773C111.898 34.8906 111.961 34.7422 111.961 34.4453C111.961 34.1641 112.297 33.9453 112.969 33.7891L113.438 33.5547C113.469 33.5078 113.539 33.4844 113.648 33.4844C114.055 33.4844 114.258 33.8047 114.258 34.4453C114.258 34.6172 114.195 34.75 114.07 34.8438L113.742 35.125L113.695 35.5234L112.852 36.2969C112.711 36.4062 112.633 36.5547 112.617 36.7422C112.602 36.9141 112.555 37 112.477 37C112.43 37.0781 112.328 37.1484 112.172 37.2109C112.031 37.2578 111.938 37.3359 111.891 37.4453C111.672 37.9609 111.328 38.2734 110.859 38.3828C110.594 38.9922 110.344 39.3594 110.109 39.4844C109.875 39.5938 109.742 39.7109 109.711 39.8359C109.648 40.2422 109.438 40.4297 109.078 40.3984C108.5 40.9609 108.133 41.3984 107.977 41.7109C107.977 41.7422 107.961 41.7578 107.93 41.7578L107.602 41.7109C107.57 41.7422 107.484 41.8359 107.344 41.9922C107.219 42.1484 107.039 42.2344 106.805 42.25C106.586 42.2656 106.43 42.4062 106.336 42.6719C106.242 42.9219 106.156 43.0781 106.078 43.1406C106 43.2031 105.914 43.3125 105.82 43.4688C105.727 43.6094 105.633 43.6797 105.539 43.6797C105.398 43.6797 105.297 43.5469 105.234 43.2812C105.109 43.3438 104.984 43.4609 104.859 43.6328L105 43.9609C105 44.0234 104.969 44.0781 104.906 44.125C104.844 44.1719 104.727 44.3281 104.555 44.5938C104.398 44.8438 104.016 45.0156 103.406 45.1094C103.375 45.1094 103.312 45.2188 103.219 45.4375C103.125 45.6406 102.906 45.7578 102.562 45.7891C102.234 46.2734 101.961 46.5156 101.742 46.5156L100.734 46.8438C100.562 46.8438 100.414 46.8281 100.289 46.7969C100.195 47.0156 100.086 47.125 99.9609 47.125L99.6328 47.2188C99.5234 47.375 99.3906 47.4531 99.2344 47.4531C99.0156 47.4531 98.9062 47.3906 98.9062 47.2656C98.9062 47.2344 98.9219 47.1875 98.9531 47.125V47.0312C98.9531 46.9375 98.9219 46.8906 98.8594 46.8906C98.8594 47.5625 98.6797 47.8984 98.3203 47.8984C98.2578 47.8984 98.0859 47.8359 97.8047 47.7109H97.7578L97.3125 47.9453C97.2812 47.9766 97.2188 47.9922 97.125 47.9922C96.5469 47.9922 95.9688 47.8125 95.3906 47.4531H95.1562C94.6719 47.4531 94.3047 47.1719 94.0547 46.6094L94.0078 46.5156C93.6328 46.4219 93.4219 46.1797 93.375 45.7891C93.3125 45.6953 93.1562 45.5312 92.9062 45.2969C92.875 45.0781 92.8047 44.8828 92.6953 44.7109C92.5859 44.5234 92.5312 44.4141 92.5312 44.3828L91.9922 42.625C91.9297 42.1094 91.8984 41.6875 91.8984 41.3594L91.8516 41.1719V41.0312L91.9453 40.3984L91.8984 40.1641C91.8984 40.0391 92.0391 39.5781 92.3203 38.7812C92.6172 37.9844 92.8047 37.3906 92.8828 37C92.9609 36.6094 93.0312 36.3672 93.0938 36.2734L93.7734 34.4453ZM113.648 38.5938L113.836 38.3359C114.242 38.2422 114.5 38.0859 114.609 37.8672C114.656 37.7578 115.047 37.3516 115.781 36.6484C116.516 35.9453 116.922 35.5703 117 35.5234C117.5 34.6172 117.805 33.9375 117.914 33.4844C118.102 33.3906 118.195 33.2812 118.195 33.1562L118.383 32.7812L118.594 32.7344L118.688 32.6406V32.4297C118.688 32.1484 118.992 31.4922 119.602 30.4609C120.211 29.1953 120.539 28.5 120.586 28.375C120.633 28.2344 120.727 28.0391 120.867 27.7891C121.008 27.5234 121.219 27.0234 121.5 26.2891C121.797 25.5547 122.25 24.7891 122.859 23.9922C122.922 23.9609 123.016 23.7891 123.141 23.4766C123.266 23.1484 123.461 22.8281 123.727 22.5156L124.008 22.0234C124.102 21.8672 124.266 21.5938 124.5 21.2031C124.734 20.8125 124.945 20.5078 125.133 20.2891C125.336 20.0547 125.484 19.8125 125.578 19.5625C125.688 19.3125 125.812 19.1328 125.953 19.0234C126.094 18.9141 126.234 18.7188 126.375 18.4375C126.531 18.1406 126.766 17.9922 127.078 17.9922C127.688 17.9922 128.125 18.2422 128.391 18.7422C128.672 19.2422 128.812 19.6797 128.812 20.0547C128.812 20.1016 128.719 20.4375 128.531 21.0625L128.18 23.1719C127.867 23.3281 127.711 23.5078 127.711 23.7109C127.711 24.5391 127.391 25.3984 126.75 26.2891C126.688 26.3516 126.633 26.5547 126.586 26.8984C126.555 27.2422 126.422 27.5234 126.188 27.7422C125.953 27.9609 125.742 28.3281 125.555 28.8438L123.375 31.9609L123.188 32.1484C123.094 32.2109 122.984 32.3438 122.859 32.5469L122.484 32.4297C122.062 32.4297 121.852 32.5625 121.852 32.8281C121.852 32.9219 121.883 33.0469 121.945 33.2031V33.25C121.945 33.2656 121.367 34.0859 120.211 35.7109C120.148 35.8047 120.039 36.1094 119.883 36.625L119.555 37.3281C119.227 37.7812 118.992 38.2266 118.852 38.6641C118.727 39.0859 118.555 39.4297 118.336 39.6953C118.023 40.3984 117.867 40.7656 117.867 40.7969C117.867 40.8906 117.914 40.9375 118.008 40.9375C118.102 40.9375 118.32 40.7031 118.664 40.2344C119.023 39.7656 119.312 39.4531 119.531 39.2969C119.766 39.1406 119.961 38.9219 120.117 38.6406L120.352 38.4766C120.414 38.4453 120.547 38.3516 120.75 38.1953L120.984 38.2422C121.109 38.1484 121.188 38.0391 121.219 37.9141C121.25 37.7891 121.297 37.6953 121.359 37.6328C121.766 37.5859 122.016 37.4375 122.109 37.1875C122.219 36.9375 122.344 36.8125 122.484 36.8125C122.609 36.8125 122.773 36.6719 122.977 36.3906C123.18 36.0938 123.461 35.8594 123.82 35.6875C124.195 35.5 124.469 35.3359 124.641 35.1953C124.828 35.0547 125.195 34.8906 125.742 34.7031C126.289 34.5 126.656 34.3984 126.844 34.3984H126.984L127.172 34.4453L127.523 34.3984C128.07 34.3984 128.617 34.5547 129.164 34.8672C129.711 35.1641 129.945 35.6328 129.867 36.2734L129.68 37.7266L129.422 38.875C129.391 39.0625 129.266 39.4766 129.047 40.1172C128.828 40.7578 128.719 41.125 128.719 41.2188L128.625 41.6641L128.719 42.2734L128.672 42.7656C128.672 42.9219 128.75 43 128.906 43C128.969 43 129.141 42.8594 129.422 42.5781C129.594 42.6094 129.758 42.5156 129.914 42.2969C130.07 42.0781 130.281 41.8516 130.547 41.6172C130.547 41.5547 130.648 41.5 130.852 41.4531C131.055 41.3906 131.336 41.2031 131.695 40.8906C131.758 40.75 132.062 40.4531 132.609 40C133.156 39.5312 133.68 39.1719 134.18 38.9219L134.32 38.7344C134.586 38.4688 134.828 38.3359 135.047 38.3359C135.266 38.3359 135.375 38.4531 135.375 38.6875C135.375 38.8438 135.336 39.0078 135.258 39.1797C135.18 39.3516 135.125 39.5781 135.094 39.8594C135.062 40.125 134.906 40.5156 134.625 41.0312L134.531 41.2656C134.422 41.5312 134.289 41.6875 134.133 41.7344C133.977 41.7812 133.805 41.9141 133.617 42.1328C133.445 42.3359 133.078 42.5312 132.516 42.7188C132.266 43.1875 132.07 43.4219 131.93 43.4219L131.508 43.2344C131.18 43.5 131.016 43.7734 131.016 44.0547C130.609 44.3984 130.367 44.625 130.289 44.7344L129.82 44.6875C129.695 44.6875 129.633 44.8594 129.633 45.2031C129.633 45.2344 129.469 45.3438 129.141 45.5312C128.828 45.7031 128.586 45.8594 128.414 46C128.242 46.1406 127.875 46.2109 127.312 46.2109C127.25 46.2109 127.156 46.1562 127.031 46.0469C126.906 45.9375 126.719 45.8438 126.469 45.7656C126.234 45.6875 126.07 45.5078 125.977 45.2266C125.883 44.9297 125.781 44.7031 125.672 44.5469C125.562 44.375 125.508 44.2422 125.508 44.1484L125.555 43.6797L125.438 43.1875L125.648 42.8594C125.555 42.6406 125.508 42.4922 125.508 42.4141L125.742 40.9844C125.914 39.9531 126.055 39.2812 126.164 38.9688C126.195 38.9375 126.211 38.8438 126.211 38.6875L126.164 38.1016L126.211 37.7734C126.211 37.5391 126.133 37.4141 125.977 37.3984C125.82 37.3828 125.727 37.3438 125.695 37.2812C125.492 37.1875 125.375 37.1406 125.344 37.1406C125.219 37.1406 125.109 37.2422 125.016 37.4453C124.922 37.6328 124.797 37.8047 124.641 37.9609L124.055 37.8672V37.9141C124.055 38.0391 123.844 38.2812 123.422 38.6406C123.031 38.7344 122.695 38.9375 122.414 39.25C122.289 39.25 122.07 39.375 121.758 39.625C121.461 39.8594 121.266 39.9922 121.172 40.0234L120.984 40.3984L120.609 40.5156C120.5 40.8281 120.242 41.0312 119.836 41.125L119.602 41.5703C119.273 41.6016 119.047 41.7734 118.922 42.0859C118.797 42.3828 118.703 42.5312 118.641 42.5312C118.609 42.5312 118.555 42.5156 118.477 42.4844C118.414 42.4375 118.352 42.4141 118.289 42.4141C117.945 42.4141 117.758 42.6719 117.727 43.1875C117.727 43.25 117.406 43.6172 116.766 44.2891C116.125 44.9609 115.781 45.3047 115.734 45.3203C115.688 45.3359 115.594 45.5 115.453 45.8125C115.328 46.1094 115.148 46.3359 114.914 46.4922C114.68 46.6328 114.5 46.75 114.375 46.8438C114.266 46.9375 114.18 46.9844 114.117 46.9844C113.789 46.9844 113.523 46.75 113.32 46.2812C113.117 45.8125 113.016 45.5703 113.016 45.5547L113.156 45.0625L113.109 44.6406C113.109 44.625 113.203 44.3125 113.391 43.7031C113.594 43.0781 113.82 42.5938 114.07 42.25C114.32 41.8906 114.516 41.3125 114.656 40.5156C113.953 40.9844 113.531 41.2188 113.391 41.2188C113.078 41.2188 112.922 41.0156 112.922 40.6094C112.922 39.8594 113.164 39.1875 113.648 38.5938ZM137.32 37.5859L137.812 37.1875C138.188 37.1562 138.391 36.9609 138.422 36.6016C138.453 36.2422 138.711 35.9297 139.195 35.6641L139.477 35.2656C139.711 35.0312 140.352 34.7266 141.398 34.3516C141.664 34.1953 141.844 34.0547 141.938 33.9297C141.969 33.8984 142 33.8828 142.031 33.8828L142.406 33.9766C142.609 33.9766 142.867 33.9219 143.18 33.8125C143.508 33.7031 143.82 33.6484 144.117 33.6484L145.102 33.6016C145.164 33.6016 145.289 33.6484 145.477 33.7422C145.68 33.8359 145.922 33.8828 146.203 33.8828C146.547 33.8828 146.859 34.0391 147.141 34.3516C147.438 34.6641 147.586 34.9531 147.586 35.2188C147.586 35.7031 147.336 36.1953 146.836 36.6953C146.336 37.1953 145.938 37.4766 145.641 37.5391C145.375 37.8047 145.172 37.9766 145.031 38.0547C144.891 38.1172 144.742 38.2266 144.586 38.3828C144.445 38.5234 144.328 38.5938 144.234 38.5938C144.172 38.5938 144.125 38.5781 144.094 38.5469C144.062 38.5 144.016 38.4766 143.953 38.4766C143.703 38.4766 143.43 38.7812 143.133 39.3906L142.711 39.3438C142.445 39.5156 142.273 39.7031 142.195 39.9062C142.117 40.1094 141.953 40.2109 141.703 40.2109C141.125 40.7891 140.734 41.0781 140.531 41.0781C140.5 41.0781 140.391 41.0469 140.203 40.9844C140.078 41.1406 140.016 41.3047 140.016 41.4766C140.016 41.6641 139.891 41.7734 139.641 41.8047L139.336 42.0859L139.102 42.0391L138.633 42.5312C138.398 42.5312 138.156 42.6094 137.906 42.7656C137.875 42.9531 137.828 43.1953 137.766 43.4922C137.703 43.7734 137.672 43.9297 137.672 43.9609C137.672 44.4141 138.086 44.6406 138.914 44.6406L140.039 44.4766C140.336 44.4766 140.609 44.3984 140.859 44.2422C141.125 44.0859 141.406 44.0078 141.703 44.0078C141.797 44.0078 141.938 43.9766 142.125 43.9141L142.359 44.0078C142.469 43.7734 142.672 43.5625 142.969 43.375C143.266 43.1875 143.5 43.0938 143.672 43.0938L143.906 42.9531C143.969 42.7656 144.062 42.6406 144.188 42.5781L144.375 42.4141C144.5 42.2891 144.617 42.2266 144.727 42.2266H145.055L145.148 42.1797C145.336 41.7734 145.594 41.5391 145.922 41.4766C146.266 41.3984 146.477 41.2812 146.555 41.125C146.648 40.9688 146.805 40.875 147.023 40.8438C147.242 40.8125 147.422 40.7109 147.562 40.5391C147.719 40.3516 147.906 40.1797 148.125 40.0234C148.344 39.8672 148.492 39.75 148.57 39.6719C148.664 39.5938 148.742 39.5547 148.805 39.5547C148.898 39.5547 148.945 39.625 148.945 39.7656C148.945 39.9062 148.977 39.9766 149.039 39.9766C149.102 39.9766 149.133 39.9453 149.133 39.8828C149.133 39.8203 149.117 39.7422 149.086 39.6484V39.4844C149.086 39.25 149.211 39.0938 149.461 39.0156L150.516 38.3359C150.547 38.0078 150.633 37.8203 150.773 37.7734C150.93 37.7109 151.047 37.6484 151.125 37.5859C151.203 37.5078 151.289 37.4688 151.383 37.4688C151.586 37.4688 151.688 37.5859 151.688 37.8203L151.57 38.4297L151.688 39.0625C151.688 39.1562 151.609 39.2891 151.453 39.4609C151.312 39.6172 151.203 39.8672 151.125 40.2109C151.047 40.5391 150.945 40.7188 150.82 40.75H150.68C150.398 41.0469 150.172 41.2266 150 41.2891C149.844 41.3359 149.719 41.4297 149.625 41.5703L148.828 42.4844C148.672 42.6406 148.539 42.7812 148.43 42.9062C148.32 43.0312 148.234 43.0938 148.172 43.0938L147.984 42.9062C147.984 42.875 147.953 42.8594 147.891 42.8594C147.734 42.8594 147.633 42.9531 147.586 43.1406C147.555 43.3281 147.477 43.4922 147.352 43.6328C146.883 43.8516 146.578 44.0547 146.438 44.2422L146.297 44.2891H145.875C145.672 44.2891 145.531 44.4453 145.453 44.7578C145.375 45.0547 145.148 45.2266 144.773 45.2734C144.414 45.3203 144.156 45.4141 144 45.5547C143.969 45.5859 143.898 45.6172 143.789 45.6484C143.68 45.6797 143.461 45.8047 143.133 46.0234L141.164 46.7266C141.008 46.8047 140.906 46.8438 140.859 46.8438L140.203 46.9375C140.109 46.9375 140.016 46.875 139.922 46.75C139.828 46.625 139.766 46.5625 139.734 46.5625L139.312 46.7031C139 46.7969 138.703 46.8438 138.422 46.8438C138.266 46.8438 138.094 46.7891 137.906 46.6797C137.719 46.5703 137.57 46.4922 137.461 46.4453C137.008 46.4453 136.688 46.0938 136.5 45.3906L136.219 45.4375C136.156 45.4375 135.945 44.8828 135.586 43.7734C135.492 43.6484 135.344 43.5625 135.141 43.5156C134.938 43.4531 134.836 43.2969 134.836 43.0469C134.836 42.3438 134.984 41.875 135.281 41.6406C135.594 41.3906 135.766 41.2031 135.797 41.0781L136.125 39.8594C136.188 39.8125 136.266 39.6562 136.359 39.3906L136.898 38.4062C136.961 38.2969 137.102 38.0234 137.32 37.5859ZM142.266 36.1797L141.984 36.3203C141.922 36.3516 141.734 36.4922 141.422 36.7422C141.125 36.9766 140.828 37.1719 140.531 37.3281C140.25 37.4688 139.953 37.8516 139.641 38.4766C139.344 39.1016 139.195 39.4609 139.195 39.5547C139.195 39.6484 139.242 39.6953 139.336 39.6953L140.133 39.3438C140.43 39.2031 140.703 39.0234 140.953 38.8047C141.219 38.5859 141.594 38.3203 142.078 38.0078L142.266 37.8203C142.297 37.7578 142.438 37.6484 142.688 37.4922C142.953 37.3203 143.148 37.1562 143.273 37L143.508 36.9062C143.773 36.4844 144.039 36.2266 144.305 36.1328C144.586 36.0391 144.727 35.9453 144.727 35.8516C144.727 35.6641 144.578 35.5703 144.281 35.5703C144.156 35.5703 143.969 35.6484 143.719 35.8047H143.18C143.117 35.8047 142.945 35.8984 142.664 36.0859L142.266 36.1797ZM159.234 36.4844L159.891 36.1797C160.109 36.0391 160.32 35.8359 160.523 35.5703L161.344 34.9844C161.812 34.6719 162.117 34.5156 162.258 34.5156L162.633 34.6562C162.664 34.6562 162.758 34.5625 162.914 34.375C163.086 34.1719 163.281 34.0703 163.5 34.0703C163.781 34.0703 164.164 34.2812 164.648 34.7031C165.133 35.125 165.375 35.5 165.375 35.8281L165.281 36.625C165.281 36.75 165.344 37.1016 165.469 37.6797V37.8672L165.375 38.4297L165.469 39.0156L165.211 40.1641C165.211 40.4609 165.312 40.6094 165.516 40.6094C165.781 40.3594 166.008 40.2109 166.195 40.1641L166.523 39.8359C166.648 39.7109 166.742 39.6484 166.805 39.6484C166.867 39.6484 166.945 39.5781 167.039 39.4375C167.148 39.2812 167.281 39.1719 167.438 39.1094C167.594 39.0469 167.703 38.9375 167.766 38.7812C168.641 37.8281 169.312 37.2812 169.781 37.1406C169.844 37.1406 169.945 37.0625 170.086 36.9062C170.242 36.75 170.367 36.6562 170.461 36.625L170.977 36.2266L171.188 36.3203H171.234C171.266 36.3203 171.391 36.2422 171.609 36.0859C171.828 35.9297 171.984 35.8516 172.078 35.8516C172.672 35.8516 173.156 36.0547 173.531 36.4609C173.922 36.8516 174.117 37.1562 174.117 37.375L174 37.9141L174.164 38.6406V39.1094L174.047 39.6016C174.047 39.6953 174.109 39.8281 174.234 40C174.375 40.1719 174.445 40.2891 174.445 40.3516C174.258 40.5547 174.164 40.6875 174.164 40.75L174.211 41.1719L174.094 42.4609C174.094 42.5703 174.195 42.75 174.398 43C174.492 42.9375 174.625 42.8828 174.797 42.8359C174.969 42.7891 175.102 42.7422 175.195 42.6953C175.289 42.6328 175.336 42.6016 175.336 42.6016C175.336 42.5859 175.328 42.5781 175.312 42.5781C175.344 42.5781 175.438 42.6094 175.594 42.6719H175.688C175.812 42.6719 175.883 42.5547 175.898 42.3203C175.914 42.0703 176.07 41.8672 176.367 41.7109L176.93 41.7578C176.961 41.7266 177.023 41.6016 177.117 41.3828C177.227 41.1484 177.555 40.8125 178.102 40.375C178.664 39.9219 179.094 39.6953 179.391 39.6953C179.641 39.6953 179.766 39.8047 179.766 40.0234C179.766 40.0859 179.734 40.25 179.672 40.5156C179.797 40.7344 179.859 40.9219 179.859 41.0781C179.859 41.375 179.602 41.6953 179.086 42.0391C178.586 42.3828 178.203 42.8125 177.938 43.3281L177.844 43.4219L177.375 43.375C177.344 43.375 177.266 43.5 177.141 43.75C177.031 43.9844 176.898 44.1172 176.742 44.1484C176.586 44.1797 176.477 44.2266 176.414 44.2891L175.922 44.5938C175.828 44.6562 175.516 44.9766 174.984 45.5547C174.469 46.1172 174.031 46.3984 173.672 46.3984C173.516 46.3984 173.234 46.3203 172.828 46.1641C172.422 45.9922 172.148 45.8203 172.008 45.6484C171.867 45.4766 171.664 45.2812 171.398 45.0625C171.148 44.8438 171.023 44.4297 171.023 43.8203C171.023 43.7891 171.062 43.7344 171.141 43.6562C171.234 43.5781 171.281 43.5156 171.281 43.4688C170.922 43 170.742 42.6641 170.742 42.4609C170.742 42.3672 170.758 42.2656 170.789 42.1562C170.82 42.0469 170.836 41.9453 170.836 41.8516L170.789 41.0312L170.883 40.6094L170.836 40.3516L170.977 39.1562C170.977 38.9688 170.867 38.875 170.648 38.875C170.586 38.875 170.5 38.9375 170.391 39.0625C170.281 39.1875 170.141 39.2891 169.969 39.3672C169.812 39.4297 169.641 39.6484 169.453 40.0234C169.172 40.1797 168.977 40.3359 168.867 40.4922C168.773 40.6328 168.695 40.7031 168.633 40.7031C168.602 40.7031 168.539 40.6875 168.445 40.6562C168.258 40.7812 168.164 40.9219 168.164 41.0781V41.1719L168.211 41.3594C168.211 41.5 168.094 41.6328 167.859 41.7578C167.625 41.8828 167.336 42.2031 166.992 42.7188C166.836 42.7188 166.727 42.7344 166.664 42.7656L166.383 43.3281C166.227 43.4219 166.078 43.5859 165.938 43.8203L165.656 43.9609C165.547 44.1641 165.438 44.3359 165.328 44.4766L165.188 44.7344C164.516 45.5312 164.047 45.9297 163.781 45.9297C163.516 45.9297 163.195 45.5781 162.82 44.875C162.445 44.1719 162.258 43.625 162.258 43.2344L162.352 42.3672C162.352 42.3359 162.289 42.2109 162.164 41.9922V41.8984C162.164 41.8672 162.227 41.6875 162.352 41.3594V40.6562C162.352 40.625 162.336 40.5781 162.305 40.5156V40.3984C162.305 40.3672 162.367 40.2422 162.492 40.0234L162.352 39.3438L162.445 38.9688L162.398 38.1484L162.492 37.4219C162.492 37.375 162.445 37.2969 162.352 37.1875C162.273 37.0625 162.219 37 162.188 37C162.078 37 161.75 37.1797 161.203 37.5391C160.672 37.8984 160.312 38.1797 160.125 38.3828C159.938 38.5859 159.688 38.8281 159.375 39.1094C159.047 39.2656 158.82 39.6641 158.695 40.3047C158.695 40.3359 158.664 40.3516 158.602 40.3516C158.602 40.3203 158.555 40.2891 158.461 40.2578H158.367C158.289 40.2578 158.047 40.5938 157.641 41.2656L157.547 41.3594L157.102 41.2656C156.727 41.2656 156.539 41.6641 156.539 42.4609C156.539 42.6016 156.438 42.6953 156.234 42.7422C156.047 42.7891 155.898 42.9219 155.789 43.1406C155.68 43.3594 155.531 43.5859 155.344 43.8203C154.984 43.9766 154.781 44.0938 154.734 44.1719C154.734 44.1875 154.562 44.4219 154.219 44.875C153.875 45.3281 153.688 45.5938 153.656 45.6719C153.625 45.75 153.516 45.8438 153.328 45.9531C153.156 46.0469 153.07 46.1328 153.07 46.2109L153.141 46.6094C153.141 46.8594 152.898 46.9844 152.414 46.9844C151.477 46.9844 151.008 46.0078 151.008 44.0547C151.008 43.8359 151.102 43.5938 151.289 43.3281C151.492 43.0469 151.688 42.7109 151.875 42.3203C152.172 42.0234 152.523 41.5938 152.93 41.0312C153.336 40.4688 153.641 40.0859 153.844 39.8828L154.148 39.3906C154.148 39.2031 154.188 39.0625 154.266 38.9688C154.344 38.875 154.383 38.7578 154.383 38.6172C154.383 38.3672 154.32 38.2422 154.195 38.2422C153.898 38.2422 153.664 38.3203 153.492 38.4766C153.32 38.6172 153.125 38.7188 152.906 38.7812C152.703 38.8438 152.57 38.9531 152.508 39.1094C152.289 39.2031 152.055 39.4062 151.805 39.7188C151.57 40.0156 151.414 40.2031 151.336 40.2812C151.258 40.3594 151.18 40.4688 151.102 40.6094C151.039 40.7344 150.953 40.8047 150.844 40.8203C150.734 40.8359 150.633 40.8906 150.539 40.9844C150.445 41.0781 150.297 41.125 150.094 41.125C149.953 41.125 149.82 40.9844 149.695 40.7031C149.586 40.4062 149.531 40.2266 149.531 40.1641C149.531 39.0234 150.289 38.0391 151.805 37.2109C152.008 37.1016 152.164 36.9922 152.273 36.8828C152.398 36.7734 152.523 36.6875 152.648 36.625L152.742 36.4609C152.867 36.2734 153.336 36.0078 154.148 35.6641H154.477L156.047 35.2656C156.719 35.1094 157.055 35.8672 157.055 37.5391L157.008 37.9609L157.102 38.1484C157.367 37.8984 157.633 37.6797 157.898 37.4922C158.18 37.2891 158.383 37.1094 158.508 36.9531C158.633 36.7969 158.875 36.6406 159.234 36.4844ZM192.094 44.6875L190.992 45.6484C190.93 45.5859 190.867 45.5547 190.805 45.5547C190.648 45.5547 190.453 45.6953 190.219 45.9766C190 46.2578 189.844 46.3984 189.75 46.3984L189.516 46.3516C189.125 46.6484 188.844 46.8203 188.672 46.8672C188.5 46.9141 188.289 47 188.039 47.125C187.805 47.25 187.586 47.3203 187.383 47.3359C187.195 47.3516 187.039 47.4219 186.914 47.5469C186.789 47.6562 186.484 47.7109 186 47.7109L185.625 47.6641C185.422 47.7578 185.289 47.8047 185.227 47.8047C185.102 47.8047 184.969 47.7422 184.828 47.6172C184.688 47.4766 184.531 47.3984 184.359 47.3828C184.203 47.3672 184.039 47.2578 183.867 47.0547C183.695 46.8516 183.531 46.7109 183.375 46.6328C183.234 46.5547 183.117 46.4453 183.023 46.3047L182.695 46.0234C182.43 45.8359 182.172 45.4922 181.922 44.9922C181.672 44.4922 181.547 44.1016 181.547 43.8203V43.7266L181.594 43.2812L181.547 42.7656C181.609 42.7031 181.688 42.5703 181.781 42.3672V41.6172L182.344 39.7422C182.375 39.6641 182.312 39.5625 182.156 39.4375C182 39.6719 181.844 39.8125 181.688 39.8594C181.531 39.9062 181.422 40.0156 181.359 40.1875C181.312 40.3594 181.227 40.4453 181.102 40.4453L180.82 40.3516C180.789 40.3828 180.719 40.5469 180.609 40.8438C180.5 41.125 180.312 41.2656 180.047 41.2656C179.766 41.2656 179.625 41.1562 179.625 40.9375L179.672 40.5156L179.531 39.9297C179.531 39.8047 179.656 39.5625 179.906 39.2031C180.156 38.8281 180.383 38.6172 180.586 38.5703C180.805 38.5078 180.984 38.3594 181.125 38.125C181.281 37.875 181.609 37.5781 182.109 37.2344C182.391 37.1719 182.633 36.9688 182.836 36.625C183.055 36.4531 183.336 36.3125 183.68 36.2031C184.039 36.0938 184.305 35.9375 184.477 35.7344C184.664 35.5156 185.195 35.1875 186.07 34.75C186.961 34.2969 187.609 34.0703 188.016 34.0703C188.141 34.0703 188.312 34.0391 188.531 33.9766C188.75 33.8984 188.953 33.8359 189.141 33.7891C189.328 33.7266 189.523 33.6406 189.727 33.5312C189.93 33.4062 190.094 33.3438 190.219 33.3438L190.898 33.5781C191.398 33.7188 191.703 33.8203 191.812 33.8828C191.844 33.9141 192 33.9844 192.281 34.0938C192.578 34.1875 192.875 34.3203 193.172 34.4922C193.484 34.6641 193.641 34.9844 193.641 35.4531C193.375 35.8438 193.242 36.0547 193.242 36.0859C193.242 36.1484 193.422 36.2422 193.781 36.3672C193.906 36.6016 194.094 36.9062 194.344 37.2812L194.602 38.1016L194.648 40.0234L194.602 40.2109C194.43 40.3672 194.344 40.4688 194.344 40.5156L194.414 40.9844L194.227 41.6406C194.18 41.8438 194.102 41.9766 193.992 42.0391C193.883 42.1016 193.812 42.1797 193.781 42.2734L193.641 42.4609C193.609 42.5078 193.539 42.6484 193.43 42.8828C193.336 43.1016 193.227 43.2734 193.102 43.3984C192.977 43.5234 192.898 43.6719 192.867 43.8438C192.836 44.0156 192.758 44.1406 192.633 44.2188C192.508 44.2969 192.414 44.3828 192.352 44.4766C192.305 44.5547 192.219 44.625 192.094 44.6875ZM184.805 45.2969L184.898 45.8359L184.945 45.8828H185.32L185.438 45.9297C185.75 45.9922 185.984 46.0234 186.141 46.0234C186.625 46.0234 187.008 45.9062 187.289 45.6719C187.586 45.4219 187.82 45.2969 187.992 45.2969C188.164 45.2969 188.305 45.1797 188.414 44.9453C188.539 44.7109 188.617 44.5938 188.648 44.5938H188.977L189.07 44.5469C189.07 44.1875 189.227 43.9297 189.539 43.7734C189.867 43.6172 190.094 43.4141 190.219 43.1641C190.359 42.8984 190.516 42.7031 190.688 42.5781C190.859 42.4375 190.977 42.2578 191.039 42.0391L191.227 41.7578C191.289 41.6953 191.32 41.5781 191.32 41.4062L191.766 40.5625C191.859 40.1719 191.906 39.8672 191.906 39.6484C191.906 39.3203 191.734 39.0625 191.391 38.875C191.062 38.6875 190.898 38.3203 190.898 37.7734C190.898 37.4141 191.078 37.0859 191.438 36.7891C191.812 36.4766 192 36.2891 192 36.2266C192 36.1328 191.953 36.0859 191.859 36.0859C191.812 36.0859 191.633 36.1484 191.32 36.2734C191.211 36.4922 190.656 36.7812 189.656 37.1406C189.328 36.9844 189.148 36.9062 189.117 36.9062C189.023 36.9062 188.93 37 188.836 37.1875C188.742 37.375 188.648 37.5078 188.555 37.5859H188.25C188.219 37.5859 188.117 37.6875 187.945 37.8906C187.773 38.0938 187.555 38.1953 187.289 38.1953L187.008 38.4766C187.023 38.7266 186.867 38.9844 186.539 39.25L186.281 39.5547C186.125 39.7422 185.922 39.9609 185.672 40.2109L185.25 41.2656C185.078 41.6719 184.992 41.9766 184.992 42.1797C184.945 42.2734 184.836 42.375 184.664 42.4844C184.508 42.5781 184.43 42.7031 184.43 42.8594C184.43 42.8906 184.484 42.9688 184.594 43.0938C184.703 43.2188 184.758 43.3125 184.758 43.375L184.664 43.6797L184.57 44.5469L184.805 45.2969ZM198.258 44.875L198.07 43.6797C198.07 43.5859 198.117 43.4375 198.211 43.2344C198.305 43.2344 198.383 43.2031 198.445 43.1406L198.305 42.7188C198.305 42.1719 198.453 41.7031 198.75 41.3125C199.062 40.9062 199.234 40.6328 199.266 40.4922C199.297 40.3516 199.516 39.8984 199.922 39.1328C200.344 38.3516 200.656 37.8516 200.859 37.6328L201 37.3281L201.188 37.2812C201.547 36.7031 202.055 36.1797 202.711 35.7109C202.93 35.3672 203.195 35.0859 203.508 34.8672C203.82 34.6484 204.031 34.4922 204.141 34.3984C204.25 34.3047 204.414 34.2422 204.633 34.2109L204.727 34.1641C205.18 33.7109 205.57 33.4844 205.898 33.4844C206.008 33.375 206.227 33.25 206.555 33.1094H206.812C206.906 33.1094 207 33.0781 207.094 33.0156C207.188 32.9531 207.281 32.9219 207.375 32.9219C207.438 32.9219 207.602 32.9844 207.867 33.1094C208.117 32.8594 208.32 32.7344 208.477 32.7344C208.805 32.7344 209.133 32.8594 209.461 33.1094C209.805 33.3594 210.023 33.6641 210.117 34.0234C210.211 34.3828 210.289 34.5938 210.352 34.6562C210.414 34.7188 210.477 34.7969 210.539 34.8906C210.664 34.8906 210.828 34.6016 211.031 34.0234L211.312 33.6484C211.734 33.1016 212.023 32.4609 212.18 31.7266C212.211 31.6953 212.258 31.5703 212.32 31.3516C212.383 31.1172 212.547 30.7266 212.812 30.1797C213.266 29.5234 213.586 28.8516 213.773 28.1641L214.055 27.7422C214.242 27.6172 214.344 27.4844 214.359 27.3438C214.375 27.1875 214.422 27.0469 214.5 26.9219C214.578 26.7969 214.664 26.6484 214.758 26.4766C214.867 26.2891 214.953 26.1641 215.016 26.1016C215.078 26.0391 215.172 25.8281 215.297 25.4688C215.422 25.0938 215.57 24.8828 215.742 24.8359C215.93 24.7891 216.117 24.7031 216.305 24.5781L216.352 24.4141L216.258 24.0859C216.258 23.8984 216.461 23.5703 216.867 23.1016C217.289 22.6328 217.586 22.25 217.758 21.9531C217.945 21.6406 218.25 21.1719 218.672 20.5469C219.109 19.9062 219.422 19.5156 219.609 19.375L220.148 18.8125C220.398 18.4531 220.75 18.2734 221.203 18.2734C221.547 18.2734 221.906 18.4609 222.281 18.8359C222.656 19.1953 222.844 19.5547 222.844 19.9141C222.844 20.0391 222.758 20.3281 222.586 20.7812L222.539 21.0625C222.539 21.3125 222.453 21.6094 222.281 21.9531C222.109 22.2969 222.008 22.5625 221.977 22.75L220.664 25.9609C220.508 26.0234 220.414 26.0703 220.383 26.1016C219.977 26.9922 219.656 27.4766 219.422 27.5547V28.0234C219.422 28.1953 219.312 28.3203 219.094 28.3984L219 28.4453C218.859 29.0391 218.68 29.4688 218.461 29.7344C218.242 30 218.078 30.2734 217.969 30.5547C217.875 30.8203 217.719 30.9688 217.5 31C217.281 31.0312 217.172 31.3359 217.172 31.9141C217.109 32.2266 216.953 32.3828 216.703 32.3828C216.469 32.3828 216.32 32.5859 216.258 32.9922C216.195 33.3984 215.891 33.6172 215.344 33.6484C215.188 33.7422 215.094 33.8516 215.062 33.9766L215.25 34.5625C215.25 34.6562 214.961 35.0234 214.383 35.6641L214.195 36.2734C213.898 36.3828 213.656 37.1875 213.469 38.6875L213.188 40.3047L213.234 40.9375L213.141 41.2656L213.422 42.2266L213.375 42.7656C213.375 43.0156 213.469 43.1406 213.656 43.1406C213.75 43.1406 213.961 43 214.289 42.7188L214.617 42.5781C215.602 42.0781 216.211 41.5938 216.445 41.125C216.508 41.0625 216.617 41 216.773 40.9375C216.945 40.875 217.07 40.7891 217.148 40.6797C217.227 40.5703 217.289 40.4922 217.336 40.4453C218.289 39.8203 218.906 39.2734 219.188 38.8047C219.469 38.3359 219.758 38.0547 220.055 37.9609L220.242 37.7734C220.43 37.6172 220.586 37.5391 220.711 37.5391C220.977 37.5391 221.109 37.6172 221.109 37.7734L220.922 38.4297C221.078 38.8516 221.156 39.0938 221.156 39.1562C221.156 39.7031 220.914 40.0391 220.43 40.1641C220.227 40.3672 220.062 40.6016 219.938 40.8672C219.828 41.1328 219.578 41.2969 219.188 41.3594C218.922 41.7344 218.68 41.9844 218.461 42.1094C218.242 42.2188 218.133 42.3359 218.133 42.4609V42.6719C218.008 42.8594 217.898 42.9844 217.805 43.0469L217.359 42.9531C217.297 43.1406 217.156 43.3984 216.938 43.7266C216.859 43.6641 216.789 43.6328 216.727 43.6328C216.508 43.6328 216.328 43.7656 216.188 44.0312C216.047 44.2969 215.945 44.4297 215.883 44.4297H215.344C215.266 44.4766 215.141 44.5781 214.969 44.7344C214.797 44.8906 214.508 44.9688 214.102 44.9688L213.375 45.1094C212.688 45.1094 212.055 44.8906 211.477 44.4531C210.898 44 210.586 43.5938 210.539 43.2344C210.508 42.8594 210.383 42.4141 210.164 41.8984L210.117 40.9375C209.945 39.9375 209.75 39.4375 209.531 39.4375L209.484 39.7422L209.297 39.8359C209.203 40.3203 209.047 40.5625 208.828 40.5625C208.734 40.6094 208.633 40.6875 208.523 40.7969L208.383 40.8906C208.32 40.9219 208.227 41.0547 208.102 41.2891C207.992 41.5234 207.672 41.8516 207.141 42.2734C206.922 42.8516 206.758 43.1406 206.648 43.1406L206.367 42.9531H206.32C206.195 42.9531 206.094 43.1406 206.016 43.5156C205.938 43.875 205.781 44.0547 205.547 44.0547C205.484 44.0547 205.422 44.1641 205.359 44.3828C205.312 44.5859 205.18 44.7188 204.961 44.7812C204.742 44.8281 204.547 45.0391 204.375 45.4141C204.203 45.7891 204.086 45.9766 204.023 45.9766C203.992 45.9766 203.945 45.9609 203.883 45.9297L203.484 46.0234C203.406 46.1328 203.297 46.3125 203.156 46.5625C203.016 46.6094 202.891 46.6719 202.781 46.75C202.297 47.2188 201.656 47.4531 200.859 47.4531C200.297 47.4531 199.852 47.3359 199.523 47.1016C199.195 46.8516 199 46.6406 198.938 46.4688C198.875 46.2969 198.758 46.0859 198.586 45.8359C198.414 45.5703 198.305 45.25 198.258 44.875ZM215.719 30.0391L215.484 30.7188C215.688 30.6875 215.867 30.4766 216.023 30.0859C216.492 29.4141 216.812 29 216.984 28.8438C217.188 28.8438 217.336 28.7188 217.43 28.4688C217.539 28.2031 217.727 27.9453 217.992 27.6953C217.992 27.5859 218.109 27.375 218.344 27.0625C218.578 26.75 218.727 26.5312 218.789 26.4062C218.867 26.2656 219.016 26.0859 219.234 25.8672C219.453 25.6484 219.656 25.2734 219.844 24.7422C220.047 24.2109 220.219 23.8906 220.359 23.7812C220.5 23.6719 220.57 23.4531 220.57 23.125C220.57 22.6719 220.539 22.4453 220.477 22.4453C220.336 22.4453 220.227 22.5391 220.148 22.7266C220.086 22.8984 219.938 23.125 219.703 23.4062L218.906 24.7422C218.594 25.2734 218.383 25.6953 218.273 26.0078C218.18 26.3203 218.062 26.5078 217.922 26.5703C217.797 26.6172 217.641 26.7656 217.453 27.0156L217.125 27.3438C217.047 27.5312 216.984 27.7578 216.938 28.0234L216.727 28.2109V28.6562C216.727 28.8594 216.609 29.0469 216.375 29.2188C216.141 29.375 216.023 29.4766 216.023 29.5234L215.719 30.0391ZM207.609 39.5547L207.773 39.25C208.039 39.1562 208.211 38.9219 208.289 38.5469C208.414 38.4531 208.734 38.0469 209.25 37.3281C209.766 36.6094 210.023 36.2109 210.023 36.1328C209.867 35.9766 209.688 35.8984 209.484 35.8984C209.453 35.8984 209.359 35.9297 209.203 35.9922C209.047 36.0547 208.883 36.1016 208.711 36.1328C208.555 36.1641 208.383 36.2266 208.195 36.3203L207.609 36.2266C207.438 36.2266 207.055 36.4531 206.461 36.9062L205.922 36.8125C205.828 36.8125 205.672 37.0156 205.453 37.4219L204.258 38.3828H204.117C203.898 38.3828 203.75 38.5781 203.672 38.9688C203.406 39.3125 203.156 39.5547 202.922 39.6953C202.688 39.8203 202.523 40.0078 202.43 40.2578V40.5625C201.992 41.0469 201.773 41.4141 201.773 41.6641C201.445 41.9766 201.227 42.3125 201.117 42.6719C201.023 43.0312 200.906 43.3359 200.766 43.5859C200.828 43.8047 200.875 44.0781 200.906 44.4062C200.938 44.7188 201.094 44.875 201.375 44.875C201.828 44.875 202.328 44.6016 202.875 44.0547C202.906 44.0234 203.039 43.9375 203.273 43.7969C203.508 43.6562 203.828 43.3828 204.234 42.9766C204.656 42.5547 204.891 42.3359 204.938 42.3203C205.094 42.1641 205.188 42.0859 205.219 42.0859L205.406 41.8984C205.406 41.8359 205.469 41.7656 205.594 41.6875C205.734 41.6094 205.914 41.4531 206.133 41.2188C206.352 40.9688 206.516 40.8203 206.625 40.7734C206.75 40.7266 206.836 40.6641 206.883 40.5859C206.93 40.4922 207.008 40.4062 207.117 40.3281C207.227 40.25 207.281 40.1641 207.281 40.0703L207.328 39.7891L207.609 39.5547ZM236.719 41.0781L237.094 40.75C237.328 40.75 237.469 40.6484 237.516 40.4453C237.562 40.2266 237.727 40.0547 238.008 39.9297C238.305 39.8047 238.578 39.5547 238.828 39.1797C239.078 38.7891 239.336 38.5938 239.602 38.5938C239.695 38.5938 239.805 38.6719 239.93 38.8281C240.055 38.9844 240.117 39.1094 240.117 39.2031C240.117 39.7188 239.961 40.25 239.648 40.7969L239.555 41.4531L239.391 41.7578C239.156 41.8828 239 42.0156 238.922 42.1562C238.859 42.2969 238.68 42.4688 238.383 42.6719L238.148 43C237.805 43.1094 237.57 43.2891 237.445 43.5391C237.336 43.7891 237.172 43.9297 236.953 43.9609C236.75 43.9922 236.523 44.1484 236.273 44.4297C236.117 44.5078 235.93 44.5781 235.711 44.6406L235.664 44.875C235.508 45.0312 235.258 45.1562 234.914 45.25C234.586 45.3438 234.336 45.4375 234.164 45.5312C234.008 45.6094 233.898 45.6484 233.836 45.6484C233.539 45.6484 233.266 45.5938 233.016 45.4844C232.766 45.3594 232.508 45.2812 232.242 45.25C232.148 45.1562 232.094 45.0547 232.078 44.9453C232.062 44.8359 231.984 44.6953 231.844 44.5234C231.703 44.3359 231.633 44.0859 231.633 43.7734L231.727 43.3281C231.727 43.2656 231.688 43.1875 231.609 43.0938C231.531 43 231.492 42.9219 231.492 42.8594C231.492 42.7969 231.508 42.75 231.539 42.7188C231.57 42.6875 231.586 42.6406 231.586 42.5781C231.586 42.5 231.57 42.4141 231.539 42.3203C231.508 42.2266 231.492 42.1484 231.492 42.0859L231.633 40.9375C231.633 40.8438 231.602 40.7969 231.539 40.7969C231.477 40.7969 231.359 40.875 231.188 41.0312C231.031 41.1875 230.844 41.2656 230.625 41.2656C230.5 41.3594 230.398 41.5547 230.32 41.8516C230.195 42.0078 230.039 42.1484 229.852 42.2734L229.758 42.4141C229.727 42.5234 229.609 42.6172 229.406 42.6953C229.203 42.7578 229.062 42.8438 228.984 42.9531L228.75 43.1875L228.305 43.1406C228.273 43.1719 228.188 43.3125 228.047 43.5625C227.906 43.7969 227.727 43.9922 227.508 44.1484L225.727 45.6016C225.539 45.7266 225.266 45.8828 224.906 46.0703L224.766 46.2109C223.516 47.0391 222.633 47.4531 222.117 47.4531C221.695 47.4531 221.203 47.3359 220.641 47.1016C220.078 46.8672 219.773 46.5859 219.727 46.2578L219.492 45.2969C219.352 45.0781 219.281 44.7734 219.281 44.3828C219.281 44.1953 219.297 44.0703 219.328 44.0078V43.8672L219.281 43.0938C219.281 42.9062 219.43 42.8125 219.727 42.8125L219.68 42.1797C219.68 42.1172 219.812 41.875 220.078 41.4531C220.359 41.0156 220.547 40.7656 220.641 40.7031L220.875 40.3984C220.859 40.2109 220.969 40.0156 221.203 39.8125C221.438 39.5938 221.625 39.375 221.766 39.1562C221.906 38.9375 222.172 38.6953 222.562 38.4297L223.266 37.7266C223.812 37.1797 224.406 36.7422 225.047 36.4141C225.141 36.3828 225.328 36.2266 225.609 35.9453C225.906 35.6641 226.234 35.4609 226.594 35.3359C226.969 35.1953 227.328 35.0234 227.672 34.8203C228.031 34.6172 228.312 34.5156 228.516 34.5156H228.703C228.766 34.5156 229.18 34.3203 229.945 33.9297H230.086C230.148 33.9297 230.297 33.9922 230.531 34.1172H230.578L230.953 33.9297C231.016 33.8984 231.094 33.8828 231.188 33.8828C232.156 33.8828 232.688 34.5547 232.781 35.8984C232.812 36.1797 232.891 36.3203 233.016 36.3203C233.172 36.3203 233.391 36.0391 233.672 35.4766C233.969 34.8984 234.586 34.6094 235.523 34.6094C236.195 34.6094 236.531 35.0391 236.531 35.8984C236.531 36.9141 236.078 37.875 235.172 38.7812C235.109 38.9062 235.062 39.0469 235.031 39.2031L234.703 40.1641V40.2109C234.703 40.3047 234.633 40.4375 234.492 40.6094C234.367 40.7656 234.305 40.9062 234.305 41.0312L234.352 41.6172L234.258 42.2734C234.258 42.5703 234.312 42.7656 234.422 42.8594C234.922 42.7344 235.281 42.5312 235.5 42.25C235.734 41.9531 235.898 41.7891 235.992 41.7578L236.227 41.6641C236.367 41.4297 236.531 41.2344 236.719 41.0781ZM228.938 41.0781C229 40.7344 229.188 40.4766 229.5 40.3047C229.828 40.1172 230.023 39.9297 230.086 39.7422C230.383 39.5234 230.805 39.1328 231.352 38.5703C231.914 38.0078 232.195 37.6641 232.195 37.5391C232.195 37.4922 232.164 37.4688 232.102 37.4688H232.055L231.867 37.5859L231.445 37.5391L231 37.5859L230.672 37.4219L230.367 37.4688L229.898 37.375C229.648 37.375 229.43 37.4297 229.242 37.5391C229.07 37.6328 228.727 37.7422 228.211 37.8672C227.711 37.9922 227.258 38.2109 226.852 38.5234C226.445 38.8203 226.148 38.9688 225.961 38.9688C225.852 39.2031 225.484 39.5391 224.859 39.9766C224.484 40.1016 224.242 40.375 224.133 40.7969C223.727 41.125 223.523 41.3125 223.523 41.3594L223.359 41.7578C223.234 41.8672 223.078 41.9609 222.891 42.0391C222.703 42.1016 222.594 42.2656 222.562 42.5312C222.531 42.7812 222.422 43.0156 222.234 43.2344C222.062 43.4375 221.977 43.6016 221.977 43.7266C221.977 44.4922 222.125 44.875 222.422 44.875C222.547 44.875 222.805 44.7969 223.195 44.6406C223.602 44.4688 223.836 44.3516 223.898 44.2891C223.961 44.2266 224.086 44.1641 224.273 44.1016L224.719 43.8672C224.781 43.8047 224.852 43.7656 224.93 43.75C225.008 43.7344 225.086 43.6875 225.164 43.6094C225.242 43.5156 225.383 43.4219 225.586 43.3281C225.789 43.2188 225.945 43.0781 226.055 42.9062C226.32 42.75 226.75 42.5078 227.344 42.1797L227.836 41.8047C228.18 41.6484 228.391 41.5156 228.469 41.4062C228.547 41.2969 228.703 41.1875 228.938 41.0781ZM260.133 42.5312H260.227L260.461 42.625C260.492 42.625 260.523 42.6094 260.555 42.5781C260.555 42.3125 260.68 42.0859 260.93 41.8984C261.008 41.6016 261.18 41.375 261.445 41.2188C261.727 41.0625 262.164 40.8047 262.758 40.4453L263.344 39.9297L263.625 39.7891L263.812 39.5547C263.984 39.3516 264.148 39.25 264.305 39.25C264.539 39.25 264.656 39.3359 264.656 39.5078L264.445 39.9766L264.539 40.75C264.539 41.0312 264.438 41.2812 264.234 41.5C264.047 41.7188 263.75 42.0391 263.344 42.4609L262.148 43.7266L261.516 44.0547C261.359 44.1484 261.219 44.2578 261.094 44.3828L260.18 45.1562C260.18 45.375 260.109 45.5391 259.969 45.6484H259.594L259.406 45.7422C259.297 46.0391 258.977 46.3281 258.445 46.6094L258.117 46.8438C258.008 46.9375 257.906 46.9844 257.812 46.9844L257.156 46.8906L256.711 46.9844C256.586 46.9844 256.414 46.9219 256.195 46.7969C255.992 46.6719 255.781 46.5781 255.562 46.5156C255.344 46.4375 255.062 46.1484 254.719 45.6484C254.391 45.1328 254.211 44.7969 254.18 44.6406C254.18 44.5781 254.141 44.4766 254.062 44.3359C254 44.1797 253.969 44.0859 253.969 44.0547C253.969 44.0234 254.039 43.8672 254.18 43.5859V43.5391C254.18 43.4922 254.133 43.3828 254.039 43.2109C253.961 43.0391 253.922 42.8281 253.922 42.5781C253.922 42.4375 253.875 42.2578 253.781 42.0391C253.906 41.9141 253.969 41.8203 253.969 41.7578C253.969 41.6953 253.945 41.6094 253.898 41.5C253.852 41.375 253.828 41.2812 253.828 41.2188L253.969 40.0703L253.875 39.4844L253.922 38.9219C253.922 38.5938 253.781 38.4297 253.5 38.4297C253.375 38.4297 253.219 38.5156 253.031 38.6875L252.867 38.7344C252.445 38.9375 252.148 39.1094 251.977 39.25C251.805 39.375 251.625 39.4375 251.438 39.4375C251.344 39.5312 251.164 39.6172 250.898 39.6953L250.711 39.8359C250.648 39.8984 250.523 39.9922 250.336 40.1172C250.336 40.1641 250.039 40.4297 249.445 40.9141C248.867 41.3828 248.344 41.8281 247.875 42.25C247.406 42.6719 247.062 42.9062 246.844 42.9531C246.641 42.9844 246.539 43.1797 246.539 43.5391C246.539 43.6016 246.398 43.7266 246.117 43.9141C246.086 43.9141 245.922 44.0859 245.625 44.4297C245.375 44.2422 245.234 44.1484 245.203 44.1484C245 44.1484 244.852 44.4062 244.758 44.9219C244.664 45.125 244.414 45.25 244.008 45.2969C243.977 45.3125 243.922 45.4297 243.844 45.6484L243.75 45.7422H243.516C243.484 45.7422 243.375 45.8359 243.188 46.0234C243 46.1953 242.836 46.3047 242.695 46.3516C242.492 46.7734 242.32 46.9844 242.18 46.9844C242.117 46.9844 242.023 46.9531 241.898 46.8906C241.789 46.8281 241.648 46.7734 241.477 46.7266C241.305 46.6797 241.109 46.4922 240.891 46.1641C240.688 45.8203 240.586 45.5312 240.586 45.2969C240.586 43.5625 240.922 42.6172 241.594 42.4609L241.641 42.3672V42.1797C241.641 41.9766 241.727 41.8359 241.898 41.7578C242.086 41.6641 242.273 41.4922 242.461 41.2422C242.648 40.9766 242.773 40.8281 242.836 40.7969H243.141C243.203 40.7969 243.234 40.6328 243.234 40.3047C243.234 40.2109 243.273 40.125 243.352 40.0469C243.43 39.9688 243.477 39.8594 243.492 39.7188C243.508 39.5625 243.617 39.3203 243.82 38.9922C244.039 38.6484 244.148 38.4453 244.148 38.3828L244.102 38.2891C243.711 38.6484 243.43 38.8438 243.258 38.875C243.086 38.9062 242.852 39.1328 242.555 39.5547L242.18 39.4844C241.523 39.9688 241.117 40.2422 240.961 40.3047C240.805 40.3672 240.633 40.5469 240.445 40.8438C240.445 40.9375 240.391 41 240.281 41.0312C240.172 41.0625 239.969 41.1875 239.672 41.4062H239.531C239.141 41.4062 238.945 41.125 238.945 40.5625L239.438 39.2266C239.578 38.8047 239.906 38.4531 240.422 38.1719C240.953 37.875 241.398 37.5938 241.758 37.3281C242.117 37.0625 242.477 36.9219 242.836 36.9062L243 36.6719C243.531 36.4688 243.891 36.1484 244.078 35.7109C244.266 35.2734 244.523 35.0547 244.852 35.0547C245.711 35.0547 246.367 35.375 246.82 36.0156C247.273 36.6406 247.5 37.1406 247.5 37.5156L247.547 38.1484C247.547 38.3672 247.5 38.6719 247.406 39.0625C247.219 39.3438 247.125 39.5547 247.125 39.6953C247.125 39.8203 247.203 39.8828 247.359 39.8828C247.453 39.8828 247.578 39.8203 247.734 39.6953C247.891 39.5547 248.062 39.4297 248.25 39.3203C248.453 39.2109 248.57 39.1172 248.602 39.0391C248.758 38.6641 249.031 38.4062 249.422 38.2656C249.812 38.125 250.055 38.0078 250.148 37.9141L250.383 37.7266L250.57 37.375C250.992 37.1875 251.273 37.0156 251.414 36.8594C251.555 36.7031 251.742 36.6016 251.977 36.5547C252.211 36.5078 252.477 36.3672 252.773 36.1328L253.125 36.0391L253.453 35.8516C253.484 35.8203 253.578 35.7812 253.734 35.7344C253.891 35.6875 254.117 35.6094 254.414 35.5C254.727 35.375 254.938 35.3125 255.047 35.3125C255.844 35.3125 256.469 35.6328 256.922 36.2734C257.391 36.9141 257.625 37.4297 257.625 37.8203L257.578 38.2422L257.672 38.875V38.9688L257.484 40.2578L257.531 40.7031C257.531 41.4375 257.375 41.9453 257.062 42.2266C256.984 42.2578 256.945 42.3359 256.945 42.4609V42.6719L257.414 43.6562C257.555 44 257.664 44.1719 257.742 44.1719L258.492 43.9609C258.711 43.8984 258.891 43.7344 259.031 43.4688C259.156 43.4062 259.375 43.2188 259.688 42.9062C259.781 42.6562 259.93 42.5312 260.133 42.5312Z" fill="#FFFBFB"/>
<path d="M285.404 35.5117V41.9033C285.404 43.2093 285.415 44.305 285.438 45.1904C285.449 45.4893 285.592 45.6774 285.869 45.7549L287.712 46.3359L287.762 47.0498C286.445 47.0166 285.128 47 283.811 47C282.493 47 281.121 47.0166 279.693 47.0498L279.627 46.3359L281.669 45.7217C281.957 45.6331 282.106 45.4616 282.117 45.207C282.139 44.3105 282.15 43.2093 282.15 41.9033V28.4395C282.15 27.3327 282.139 26.4141 282.117 25.6836C282.106 25.3958 281.973 25.2077 281.719 25.1191L279.66 24.4717L279.627 23.7578C281.055 23.8021 282.427 23.8242 283.744 23.8242C285.072 23.8242 286.384 23.8021 287.679 23.7578L287.762 24.4717L285.869 25.0527C285.592 25.1191 285.449 25.2907 285.438 25.5674C285.415 26.3643 285.404 27.2995 285.404 28.373V34.001H297.49V28.373C297.49 27.2995 297.479 26.3643 297.457 25.5674C297.446 25.2907 297.302 25.1191 297.025 25.0527L295.183 24.4717L295.149 23.7578C296.5 23.8021 297.833 23.8242 299.15 23.8242C300.467 23.8242 301.818 23.8021 303.201 23.7578L303.268 24.4717L301.176 25.1191C300.921 25.2077 300.788 25.3958 300.777 25.6836C300.755 26.4141 300.744 27.3327 300.744 28.4395V41.9033C300.744 43.2093 300.755 44.3105 300.777 45.207C300.788 45.4616 300.938 45.6331 301.226 45.7217L303.234 46.3359L303.268 47.0498C301.807 47.0166 300.412 47 299.084 47C297.767 47 296.478 47.0166 295.216 47.0498L295.149 46.3359L297.025 45.7549C297.302 45.6774 297.446 45.4893 297.457 45.1904C297.479 44.305 297.49 43.2093 297.49 41.9033V35.5117H285.404ZM308.796 39.1641C308.796 41.2337 309.183 42.9215 309.958 44.2275C310.733 45.5225 311.884 46.1699 313.411 46.1699C314.839 46.1699 315.924 45.5999 316.665 44.46C317.418 43.3089 317.794 41.61 317.794 39.3633C317.794 37.2493 317.401 35.5837 316.615 34.3662C315.829 33.1488 314.689 32.54 313.195 32.54C311.779 32.54 310.688 33.0879 309.925 34.1836C309.172 35.2793 308.796 36.9395 308.796 39.1641ZM321.181 39.0146C321.181 41.5381 320.417 43.5801 318.89 45.1406C317.373 46.6901 315.442 47.4648 313.096 47.4648C310.805 47.4648 308.951 46.7344 307.534 45.2734C306.129 43.8014 305.426 41.8812 305.426 39.5127C305.426 37.0778 306.162 35.0911 307.634 33.5527C309.117 32.0033 311.076 31.2285 313.511 31.2285C315.813 31.2285 317.667 31.9424 319.072 33.3701C320.478 34.7868 321.181 36.6683 321.181 39.0146ZM328.469 33.4199C328.402 37.1608 328.369 40.1768 328.369 42.4678C328.369 43.6188 328.541 44.4157 328.884 44.8584C329.227 45.29 329.88 45.5059 330.843 45.5059C331.606 45.5059 332.603 45.4062 333.831 45.207L333.931 45.9541C332.016 46.917 330.306 47.3984 328.801 47.3984C327.594 47.3984 326.698 47.0775 326.111 46.4355C325.525 45.7826 325.231 44.8031 325.231 43.4971C325.231 41.3499 325.27 37.9577 325.348 33.3203L323.057 32.7559L322.957 32.0752L325.514 31.8594L326.659 27.8418C327.279 27.6758 327.843 27.5153 328.353 27.3604L328.519 27.4766C328.485 28.8158 328.469 30.0664 328.469 31.2285V31.8428H333.466V33.4199H328.469ZM349.021 45.8213C348.081 46.4079 347.112 46.8285 346.116 47.083C345.12 47.3376 344.196 47.4648 343.344 47.4648C340.909 47.4648 338.966 46.7731 337.517 45.3896C336.067 43.9951 335.342 42.0638 335.342 39.5957C335.342 37.1387 336.034 35.1299 337.417 33.5693C338.812 32.0088 340.671 31.2285 342.995 31.2285C344.943 31.2285 346.459 31.8151 347.544 32.9883C348.629 34.1504 349.171 35.7607 349.171 37.8193C349.171 38.1292 349.154 38.4447 349.121 38.7656H338.596C338.596 41.1452 339.155 42.8496 340.272 43.8789C341.39 44.8971 343.139 45.4062 345.519 45.4062C346.581 45.4062 347.715 45.3066 348.922 45.1074L349.021 45.8213ZM345.867 37.3877V36.8896C345.867 35.318 345.613 34.1947 345.104 33.5195C344.605 32.8444 343.858 32.5068 342.862 32.5068C341.545 32.5068 340.538 32.9827 339.841 33.9346C339.144 34.8864 338.751 36.0374 338.662 37.3877H345.867ZM351.279 23.708L351.196 23.1602C353.155 22.7839 354.959 22.391 356.608 21.9814L356.758 22.1143C356.691 23.9183 356.658 26.4251 356.658 29.6348V40.4424C356.658 42.4235 356.669 44.0173 356.691 45.2236C356.725 45.5446 356.88 45.7438 357.156 45.8213L358.966 46.3691L359.016 47.0498C357.521 47.0166 356.232 47 355.147 47C354.063 47 352.779 47.0166 351.296 47.0498L351.229 46.3691L353.105 45.8213C353.382 45.7327 353.532 45.5557 353.554 45.29C353.576 44.0394 353.587 42.6449 353.587 41.1064V34.2832C353.587 30.166 353.565 26.8623 353.521 24.3721L351.279 23.708Z" fill="#FFFBFB"/>
<g clip-path="url(#clip0)">
<path d="M74.9536 37.4131C76.2848 37.4131 77.3677 36.4384 77.3677 35.2404C77.3677 34.0423 76.2847 33.0676 74.9536 33.0676C73.6225 33.0676 72.5394 34.0423 72.5394 35.2404C72.5394 36.4384 73.6224 37.4131 74.9536 37.4131ZM74.9536 33.8588C75.8 33.8588 76.4886 34.4786 76.4886 35.2404C76.4886 36.0022 75.8 36.6219 74.9536 36.6219C74.1072 36.6219 73.4186 36.0022 73.4186 35.2404C73.4186 34.4786 74.1071 33.8588 74.9536 33.8588Z" fill="#FFFBFB"/>
<path d="M69.5987 42.8562L72.0995 44.231C72.2377 44.307 72.3915 44.3452 72.5458 44.3452C72.6846 44.3452 72.8238 44.3143 72.9524 44.252C73.2236 44.1207 73.392 43.8768 73.4029 43.5998L73.5034 41.0227C73.5142 40.7463 73.3657 40.4928 73.1063 40.3445C72.8469 40.1963 72.5287 40.1832 72.2553 40.3095L69.6541 41.5118C69.3787 41.639 69.2006 41.891 69.1891 42.1694C69.1776 42.4478 69.3347 42.7109 69.5987 42.8562ZM72.6235 41.0288L72.5256 43.5381L70.0906 42.1994L72.6235 41.0288Z" fill="#FFFBFB"/>
<path d="M87.5604 42.6023C87.8032 42.6023 88 42.4252 88 42.2067V32.3839C88 31.4865 87.1888 30.7564 86.1917 30.7564H77.9728V28.7499C77.9728 27.8487 77.1582 27.1155 76.1568 27.1155H75.2582C75.0154 27.1155 74.8187 27.2926 74.8187 27.5111C74.8187 27.7296 75.0154 27.9067 75.2582 27.9067H76.1568C76.6734 27.9067 77.0937 28.285 77.0937 28.7499V30.7564H76.1231V29.3316C76.1231 28.9785 75.8039 28.6913 75.4116 28.6913H70.5884C70.1962 28.6913 69.8769 28.9785 69.8769 29.3316V30.7564H68.9063V28.7499C68.9063 28.285 69.3265 27.9067 69.8431 27.9067H73.2148C73.4576 27.9067 73.6544 27.7296 73.6544 27.5111C73.6544 27.2926 73.4576 27.1155 73.2148 27.1155H69.8431C68.8418 27.1155 68.0271 27.8487 68.0271 28.7499V30.7564H59.8083C58.8112 30.7564 58 31.4865 58 32.3839V47.5545C58 48.1715 58.3834 48.7094 58.9471 48.9853C59.2033 49.1108 59.4968 49.1821 59.8083 49.1821H59.8151V49.994C59.8151 50.5748 60.34 51.0473 60.9853 51.0473H62.5396C63.0217 51.0473 63.4485 50.7868 63.6269 50.3835L64.1583 49.182H81.8419L82.3734 50.3836C82.5517 50.7867 82.9785 51.0473 83.4606 51.0473H85.0149C85.6602 51.0473 86.1851 50.5748 86.1851 49.994V49.1821H86.1919C86.5034 49.1821 86.7969 49.1108 87.0531 48.9853C87.6168 48.7094 88.0002 48.1715 88.0002 47.5545V44.0441C88.0002 43.8256 87.8034 43.6485 87.5606 43.6485C87.3178 43.6485 87.121 43.8256 87.121 44.0441V45.2822C87.096 45.2816 87.0709 45.2803 87.0458 45.2803C85.4823 45.2803 84.2103 46.4251 84.2103 47.8323C84.2103 48.0228 84.2336 48.2093 84.2786 48.3908H81.0003V41.3292C81.3389 41.2404 81.5871 40.9592 81.5871 40.6262V39.3121C81.5871 38.9792 81.3389 38.6979 81.0003 38.6091V31.5476H84.2786C84.2336 31.7292 84.2103 31.9158 84.2103 32.1064C84.2103 33.5136 85.4823 34.6584 87.0458 34.6584C87.0709 34.6584 87.096 34.6572 87.121 34.6565V37.75L84.3355 39.1847C83.916 39.4009 83.7365 39.8527 83.9086 40.2592L84.5564 41.7892C84.6609 42.036 84.8805 42.2255 85.1589 42.3092C85.2603 42.3397 85.3648 42.3546 85.4686 42.3546C85.6501 42.3546 85.8297 42.3088 85.9875 42.2193L87.121 41.5769V42.2067C87.1209 42.4252 87.3177 42.6023 87.5604 42.6023ZM87.0457 46.0715C87.0707 46.0715 87.0957 46.072 87.1206 46.0728V47.5542C87.1206 47.8714 86.9237 48.1479 86.6342 48.2897C86.5025 48.3541 86.3517 48.3908 86.1916 48.3908H85.1893C85.1228 48.2124 85.0892 48.0253 85.0892 47.8322C85.0892 46.8614 85.9669 46.0715 87.0457 46.0715ZM84.8952 49.182C84.8957 49.182 84.8961 49.182 84.8965 49.182H85.3058V49.994C85.3058 50.1385 85.1752 50.256 85.0147 50.256H83.4604C83.3405 50.256 83.2344 50.1912 83.19 50.0909L82.788 49.182H84.8952ZM79.0443 31.5476H80.121V38.5795H79.0443V31.5476ZM70.7561 29.4825H75.2439V30.7564H70.7561V29.4825ZM58.8794 32.3839C58.8794 31.9229 59.2961 31.5478 59.8083 31.5478H61.1111C61.1778 31.7267 61.2114 31.9138 61.2114 32.1064C61.2114 33.0773 60.334 33.8672 59.2556 33.8672C59.1286 33.8672 59.0028 33.8562 58.8794 33.8347V32.3839ZM59.8083 48.3908C59.6482 48.3908 59.4975 48.3541 59.3658 48.2897C59.0762 48.1479 58.8793 47.8714 58.8793 47.5542V46.104C59.0027 46.0823 59.1285 46.0715 59.2556 46.0715C60.334 46.0715 61.2114 46.8613 61.2114 47.8322C61.2114 48.0248 61.1777 48.2118 61.1111 48.3908H59.8083ZM62.81 50.0909C62.7656 50.1912 62.6594 50.256 62.5395 50.256H60.9853C60.8248 50.256 60.6942 50.1385 60.6942 49.994V49.182H61.4042C61.4047 49.182 61.4051 49.182 61.4055 49.182H63.212L62.81 50.0909ZM64.9999 38.6092C64.6614 38.6979 64.4131 38.9792 64.4131 39.3122V40.6263C64.4131 40.9592 64.6614 41.2405 64.9999 41.3293V48.3908H62.0221C62.0672 48.209 62.0905 48.0226 62.0905 47.8323C62.0905 46.4251 60.8187 45.2803 59.2556 45.2803C59.129 45.2803 59.0034 45.288 58.8791 45.3028V34.6359C59.0034 34.6508 59.129 34.6584 59.2556 34.6584C60.8187 34.6584 62.0905 33.5136 62.0905 32.1064C62.0905 31.9161 62.0672 31.7295 62.022 31.5476H64.9998V38.6092H64.9999ZM66.9557 48.3908H65.879V41.3589H66.9557V48.3908ZM67.5425 40.5676H65.2922V39.3708H67.5425V40.5676ZM78.1652 38.6092C77.8267 38.6979 77.5783 38.9792 77.5783 39.3122V40.6263C77.5783 40.9592 77.8266 41.2405 78.1652 41.3293V48.3908H67.8348V41.3293C68.1733 41.2405 68.4216 40.9592 68.4216 40.6263V39.3122C68.4216 38.9792 68.1733 38.6979 67.8348 38.6092V37.7166C67.8348 37.4981 67.638 37.3209 67.3952 37.3209C67.1524 37.3209 66.9556 37.4981 66.9556 37.7166V38.5796H65.879V31.5476H66.9556V35.899C66.9556 36.1174 67.1524 36.2946 67.3952 36.2946C67.638 36.2946 67.8348 36.1174 67.8348 35.899V31.5476H78.1652V38.6092ZM80.121 48.3908H79.0444V41.3589H80.121V48.3908ZM80.7078 40.5676H78.4575V39.3708H80.7078V40.5676ZM87.1206 33.8659C87.0956 33.8667 87.0706 33.8672 87.0457 33.8672C85.9669 33.8672 85.0892 33.0773 85.0892 32.1064C85.0892 31.9133 85.1228 31.7262 85.1893 31.5478H86.1917C86.7039 31.5478 87.1207 31.9229 87.1207 32.3839V33.8659H87.1206ZM85.5188 41.5499C85.487 41.568 85.4568 41.5646 85.4371 41.5587C85.4174 41.5528 85.3911 41.539 85.3777 41.5074L84.7299 39.9774C84.7129 39.9373 84.7306 39.8928 84.772 39.8715L87.1208 38.6616V40.6419L85.5188 41.5499Z" fill="#FFFBFB"/>
</g>
<path d="M24.0305 47.4948C22.795 48.1561 21.4371 48.9022 19.957 49.7331L19.5406 49.1226L21.4062 47.2713C21.6187 47.0672 21.6637 46.8428 21.5412 46.5982C21.1417 45.8301 20.6162 44.858 19.9647 43.682L11.6996 28.7628L6.38071 31.6094L7.24263 36.3036L6.6979 36.7308L3.34129 31.5887L3.38051 31.4126C5.87368 30.13 8.25034 28.8838 10.5105 27.6742L14.5335 25.5211C16.7836 24.3168 19.1482 23.0255 21.6274 21.647L21.784 21.7182L23.7417 27.4733L23.1969 27.9006L19.9717 24.3356L14.6528 27.1822L22.918 42.1014C23.5695 43.2774 24.115 44.2387 24.5547 44.9854C24.6973 45.2192 24.9135 45.3038 25.2032 45.2392L27.7976 44.7034L28.1839 45.3301C26.6103 46.1335 25.2259 46.8551 24.0305 47.4948ZM22.3388 20.5685C23.7994 19.3733 25.2408 18.1432 26.6628 16.8782L26.8647 16.9252C27.3334 17.8889 28.0431 19.2405 28.9938 20.98C29.9544 22.7141 31.0393 24.6724 32.2485 26.855C33.3779 24.8033 34.6961 23.3743 36.2028 22.5679C37.5991 21.8206 38.9244 21.6152 40.1787 21.9518C41.4275 22.2783 42.466 23.189 43.2942 24.6839L46.2177 29.961C46.8526 31.1071 47.3733 32.0236 47.7799 32.7104C47.9335 32.9642 48.1557 33.0714 48.4465 33.0321L50.4156 32.6372L50.7853 33.2339C49.4428 33.9137 48.2793 34.517 47.2949 35.0438C46.3105 35.5707 45.2238 36.1716 44.035 36.8467L43.6352 36.266L44.8867 35.0341C45.0836 34.8254 45.1286 34.601 45.0217 34.361C44.9545 34.2161 44.7856 33.8995 44.515 33.4112L40.9042 26.8934C40.2251 25.6675 39.4429 24.9491 38.5577 24.7381C37.6669 24.5171 36.6439 24.7158 35.4887 25.334C34.4942 25.8662 33.577 26.6672 32.7371 27.737L36.4556 34.4491C37.1402 35.6849 37.7769 36.8107 38.3656 37.8264C38.5303 38.1001 38.7525 38.2073 39.0322 38.1481L40.8477 37.7579L41.2174 38.3547C39.9351 39.0021 38.8018 39.5893 37.8174 40.1162C36.833 40.643 35.676 41.2816 34.3465 42.0319L33.9467 41.4512L35.3761 40.0467C35.5931 39.8272 35.6403 39.5951 35.5179 39.3506C35.0079 38.3831 34.3416 37.1569 33.519 35.6719L30.0572 29.4232C28.9309 27.3901 27.9293 25.5939 27.0525 24.0346C26.1857 22.4699 25.5191 21.302 25.0528 20.5308L22.6874 21.0215L22.3388 20.5685ZM64.3661 24.5313C63.8049 25.5165 63.1358 26.3656 62.3587 27.0786C61.5816 27.7917 60.8064 28.3552 60.0329 28.7692C57.823 29.9519 55.715 30.2725 53.7089 29.7311C51.6974 29.1796 50.076 27.7926 48.8448 25.5702C47.6191 23.3577 47.2448 21.2129 47.722 19.1357C48.2092 17.0531 49.5075 15.4473 51.617 14.3183C53.3849 13.3721 55.0537 13.1638 56.6234 13.6933C58.1875 14.2129 59.483 15.3995 60.51 17.2532C60.6645 17.5323 60.8068 17.8244 60.9368 18.1295L51.3839 23.2422C52.571 25.3849 53.9285 26.6482 55.4565 27.032C56.979 27.4059 58.8201 27.015 60.9798 25.8591C61.9441 25.343 62.9241 24.7022 63.9196 23.9369L64.3661 24.5313ZM57.2962 18.4693L57.0477 18.0208C56.2637 16.6057 55.4723 15.7178 54.6734 15.3571C53.8846 14.9911 53.0382 15.05 52.1341 15.5339C50.9388 16.1736 50.2621 17.0914 50.104 18.2872C49.946 19.483 50.1636 20.7103 50.7568 21.9692L57.2962 18.4693Z" fill="#FFFBFB"/>
<defs>
<clipPath id="clip0">
<rect x="58" y="24" width="30" height="27" fill="white"/>
</clipPath>
</defs>
</svg>
