<svg width="34" height="33" viewBox="0 0 34 33" fill="none" xmlns="http://www.w3.org/2000/svg">
<g clip-path="url(#clip0)">
<path d="M17 0C7.61126 0 0 7.3874 0 16.5C0 25.6126 7.61126 33 17 33C17.5122 33 18.0224 32.9777 18.5301 32.9334C19.0022 32.8923 19.47 32.8295 19.9343 32.7508L20.1128 32.7202C28.7448 31.1566 34.7299 23.4698 33.9225 14.9829C33.1151 6.49607 25.7811 0.00268555 17 0V0ZM15.6342 31.8417H15.5941C15.1534 31.8039 14.7159 31.7467 14.2823 31.6733C14.2574 31.669 14.2325 31.6664 14.2082 31.6618C13.7843 31.5882 13.3648 31.4969 12.9495 31.3903L12.8491 31.3653C12.444 31.2587 12.0433 31.1349 11.6485 30.9974C11.6075 30.9832 11.5663 30.9705 11.5254 30.9558C11.1383 30.8177 10.7581 30.663 10.3837 30.4957C10.3372 30.4756 10.2908 30.4563 10.2443 30.4348C9.8771 30.2699 9.51712 30.084 9.16406 29.8885C9.11426 29.8611 9.0639 29.8337 9.0141 29.8066C8.66657 29.6098 8.32707 29.3987 7.99393 29.1758C7.94357 29.1417 7.89266 29.1086 7.84258 29.0745C7.51525 28.8492 7.19622 28.6099 6.8855 28.3596L6.8 28.2871V23.65C6.80415 20.3103 9.59238 17.604 13.0333 17.6H20.9667C24.4076 17.604 27.1959 20.3103 27.2 23.65V28.2877L27.1247 28.3486C26.8079 28.6054 26.4828 28.8481 26.1488 29.0775C26.1046 29.1076 26.0598 29.1363 26.0158 29.1658C25.6787 29.393 25.3334 29.6068 24.9798 29.8077C24.9355 29.8327 24.8902 29.8563 24.8462 29.881C24.4879 30.0789 24.1235 30.2658 23.7519 30.4342C23.7092 30.4536 23.6664 30.4716 23.6232 30.4893C23.2458 30.6582 22.8623 30.8137 22.4724 30.9528C22.4337 30.9668 22.3947 30.9789 22.359 30.992C21.9622 31.1301 21.5599 31.2549 21.1526 31.3621L21.0549 31.3857C20.6391 31.4923 20.2193 31.5842 19.7949 31.658C19.7705 31.6623 19.7462 31.6653 19.7218 31.669C19.2877 31.7426 18.8497 31.7998 18.4086 31.838H18.3685C17.9153 31.8758 17.4618 31.8962 17.0028 31.8962C16.5437 31.8962 16.0866 31.8796 15.6342 31.8417V31.8417ZM28.3333 27.268V23.65C28.3286 19.7031 25.0332 16.5046 20.9667 16.5H13.0333C8.96678 16.5046 5.67137 19.7031 5.66667 23.65V27.2674C-0.436621 21.2215 -0.368555 11.528 5.81885 5.56311C12.0063 -0.401489 21.9938 -0.401489 28.1812 5.56311C34.3686 11.528 34.4366 21.2215 28.3333 27.2674V27.268Z" fill="white"/>
<path d="M17 4.39999C13.8703 4.39999 11.3333 6.86237 11.3333 9.89999C11.3333 12.9376 13.8703 15.4 17 15.4C20.1297 15.4 22.6666 12.9376 22.6666 9.89999C22.6633 6.86371 20.1283 4.40322 17 4.39999ZM17 14.3C14.4962 14.3 12.4666 12.3301 12.4666 9.89999C12.4666 7.46984 14.4962 5.49999 17 5.49999C19.5038 5.49999 21.5333 7.46984 21.5333 9.89999C21.5305 12.3288 19.5024 14.2973 17 14.3Z" fill="white"/>
</g>
<defs>
<clipPath id="clip0">
<rect width="34" height="33" fill="white"/>
</clipPath>
</defs>
</svg>
