<?xml version="1.0" encoding="utf-8"?>
<!-- Generator: Adobe Illustrator 23.1.0, SVG Export Plug-In . SVG Version: 6.00 Build 0)  -->
<svg version="1.1" id="Capa_1" xmlns="http://www.w3.org/2000/svg" xmlns:xlink="http://www.w3.org/1999/xlink" x="0px" y="0px"
	 width="512px" height="453.8px" viewBox="0 0 512 453.8" style="enable-background:new 0 0 512 453.8;" xml:space="preserve">
<path d="M289.3,225.3c22.7,0,41.2-18.5,41.2-41.2s-18.5-41.2-41.2-41.2c-22.7,0-41.2,18.5-41.2,41.2S266.6,225.3,289.3,225.3
	L289.3,225.3z M289.3,157.9c14.4,0,26.2,11.8,26.2,26.2s-11.8,26.2-26.2,26.2c-14.4,0-26.2-11.8-26.2-26.2S274.9,157.9,289.3,157.9z
	"/>
<path d="M198,328.5l42.7,26.1c2.4,1.4,5,2.2,7.6,2.2c2.4,0,4.7-0.6,6.9-1.8c4.6-2.5,7.5-7.1,7.7-12.4l1.7-48.9
	c0.2-5.2-2.4-10-6.8-12.9c-4.4-2.8-9.9-3.1-14.5-0.7L198.9,303c-4.7,2.4-7.7,7.2-7.9,12.5C190.8,320.7,193.4,325.7,198,328.5
	L198,328.5z M249.6,293.8l-1.7,47.6L206.3,316L249.6,293.8z"/>
<path d="M504.5,293.7c4.1,0,7.5-3.4,7.5-7.5V99.9c0-17-13.8-30.9-30.9-30.9H340.9V31c0-17.1-13.9-31-31-31h-15.3
	c-4.1,0-7.5,3.4-7.5,7.5s3.4,7.5,7.5,7.5h15.3c8.8,0,16,7.2,16,16v38h-16.6V42c0-6.7-5.4-12.1-12.1-12.1h-82.3
	c-6.7,0-12.1,5.4-12.1,12.1v27h-16.6V31c0-8.8,7.2-16,16-16h57.5c4.1,0,7.5-3.4,7.5-7.5S263.8,0,259.7,0h-57.5
	c-17.1,0-31,13.9-31,31v38H30.9C13.8,69,0,82.9,0,99.9v287.7c0,11.7,6.5,21.9,16.2,27.1c4.4,2.4,9.4,3.7,14.7,3.7H31v15.4
	c0,11,9,20,20,20h26.5c8.2,0,15.5-4.9,18.6-12.6l9.1-22.8h301.8l9.1,22.8c3,7.6,10.3,12.6,18.6,12.6h26.5c11,0,20-9,20-20v-15.4h0.1
	c5.3,0,10.3-1.4,14.7-3.7c9.6-5.2,16.2-15.4,16.2-27.1V321c0-4.1-3.4-7.5-7.5-7.5s-7.5,3.4-7.5,7.5v23.5c-0.4,0-0.9,0-1.3,0
	c-26.7,0-48.4,21.7-48.4,48.4c0,3.6,0.4,7.1,1.2,10.6h-55.9V269.5c5.8-1.7,10-7,10-13.3v-24.9c0-6.3-4.2-11.6-10-13.3V84h55.9
	c-0.8,3.4-1.2,7-1.2,10.6c0,26.7,21.7,48.4,48.4,48.4c0.4,0,0.9,0,1.3,0v58.7l-47.5,27.2c-7.2,4.1-10.2,12.7-7.3,20.4l11.1,29
	c1.8,4.7,5.5,8.3,10.3,9.9c1.7,0.6,3.5,0.9,5.3,0.9c3.1,0,6.2-0.9,8.9-2.6l19.3-12.2v11.9C497,290.3,500.4,293.7,504.5,293.7
	L504.5,293.7z M495.7,359.5c0.4,0,0.9,0,1.3,0v28.1c0,6-3.4,11.3-8.3,13.9c-2.2,1.2-4.8,1.9-7.6,1.9H464c-1.1-3.4-1.7-6.9-1.7-10.6
	C462.3,374.4,477.3,359.5,495.7,359.5L495.7,359.5z M459,418.4C459,418.4,459,418.4,459,418.4l7,0v15.4c0,2.7-2.2,5-5,5h-26.5
	c-2,0-3.9-1.2-4.6-3.1l-6.9-17.2L459,418.4z M359.2,84h18.4v133.3h-18.4V84z M217.7,44.9h76.6V69h-76.6L217.7,44.9z M15,99.9
	C15,91.2,22.1,84,30.9,84h22.2c1.1,3.4,1.7,6.9,1.7,10.6c0,18.4-15,33.4-33.4,33.4c-2.2,0-4.3-0.2-6.4-0.6L15,99.9z M30.9,403.4
	c-2.7,0-5.3-0.7-7.6-1.9c-4.9-2.7-8.3-7.9-8.3-13.9v-27.5c2.1-0.4,4.3-0.6,6.4-0.6c18.4,0,33.4,15,33.4,33.4c0,3.7-0.6,7.2-1.7,10.6
	L30.9,403.4z M82.1,435.7c-0.8,1.9-2.6,3.1-4.6,3.1H50.9c-2.7,0-5-2.2-5-5v-15.4h12.1c0,0,0,0,0,0H89L82.1,435.7z M119.5,218
	c-5.8,1.7-10,7-10,13.3v24.9c0,6.3,4.2,11.6,10,13.3v133.9H68.6c0.8-3.4,1.2-7,1.2-10.6c0-26.7-21.7-48.4-48.4-48.4
	c-2.2,0-4.3,0.1-6.4,0.4V142.6c2.1,0.3,4.3,0.4,6.4,0.4c26.7,0,48.4-21.7,48.4-48.4c0-3.6-0.4-7.1-1.2-10.6h50.8L119.5,218
	L119.5,218z M152.8,403.4h-18.4V270.1h18.4V403.4z M162.9,255.1h-38.4v-22.7h38.4V255.1z M344.2,218c-5.8,1.7-10,7-10,13.3v24.9
	c0,6.3,4.2,11.6,10,13.3v133.9H167.8V269.5c5.8-1.7,10-7,10-13.3v-24.9c0-6.3-4.2-11.6-10-13.3V201c0-4.1-3.4-7.5-7.5-7.5
	c-4.1,0-7.5,3.4-7.5,7.5v16.4h-18.4V84h18.4v82.5c0,4.1,3.4,7.5,7.5,7.5c4.1,0,7.5-3.4,7.5-7.5V84h176.3V218z M377.5,403.4h-18.4
	V270.1h18.4V403.4z M387.5,255.1h-38.4v-22.7h38.4V255.1z M497,128c-0.4,0-0.9,0-1.3,0c-18.4,0-33.4-15-33.4-33.4
	c0-3.7,0.6-7.2,1.7-10.6h17.1c8.7,0,15.9,7.1,15.9,15.9L497,128L497,128z M469.7,273.7c-0.5,0.3-1.1,0.3-1.4,0.2
	c-0.3-0.1-0.8-0.4-1-1l-11.1-29c-0.3-0.8,0-1.6,0.7-2l40.1-22.9v37.6L469.7,273.7z"/>
</svg>
