<svg width="626" height="125" viewBox="0 0 626 125" fill="none" xmlns="http://www.w3.org/2000/svg">
<path d="M298.275 46.1602V53.3037C298.275 54.7633 298.288 55.988 298.312 56.9775C298.325 57.3115 298.486 57.5218 298.795 57.6084L300.854 58.2578L300.91 59.0557C299.438 59.0186 297.966 59 296.494 59C295.022 59 293.488 59.0186 291.893 59.0557L291.818 58.2578L294.101 57.5713C294.422 57.4723 294.589 57.2806 294.602 56.9961C294.626 55.9941 294.639 54.7633 294.639 53.3037V38.2559C294.639 37.0189 294.626 35.9922 294.602 35.1758C294.589 34.8542 294.441 34.6439 294.156 34.5449L291.855 33.8213L291.818 33.0234C293.414 33.0729 294.948 33.0977 296.42 33.0977C297.904 33.0977 299.37 33.0729 300.817 33.0234L300.91 33.8213L298.795 34.4707C298.486 34.5449 298.325 34.7367 298.312 35.0459C298.288 35.9365 298.275 36.9818 298.275 38.1816V44.4717H311.783V38.1816C311.783 36.9818 311.771 35.9365 311.746 35.0459C311.734 34.7367 311.573 34.5449 311.264 34.4707L309.204 33.8213L309.167 33.0234C310.676 33.0729 312.167 33.0977 313.639 33.0977C315.111 33.0977 316.62 33.0729 318.166 33.0234L318.24 33.8213L315.902 34.5449C315.618 34.6439 315.469 34.8542 315.457 35.1758C315.432 35.9922 315.42 37.0189 315.42 38.2559V53.3037C315.42 54.7633 315.432 55.9941 315.457 56.9961C315.469 57.2806 315.636 57.4723 315.958 57.5713L318.203 58.2578L318.24 59.0557C316.607 59.0186 315.049 59 313.564 59C312.092 59 310.651 59.0186 309.241 59.0557L309.167 58.2578L311.264 57.6084C311.573 57.5218 311.734 57.3115 311.746 56.9775C311.771 55.988 311.783 54.7633 311.783 53.3037V46.1602H298.275ZM324.419 50.2422C324.419 52.5553 324.852 54.4417 325.718 55.9014C326.584 57.3486 327.87 58.0723 329.577 58.0723C331.173 58.0723 332.385 57.4352 333.214 56.1611C334.055 54.8747 334.476 52.9759 334.476 50.4648C334.476 48.1022 334.036 46.2406 333.158 44.8799C332.28 43.5192 331.006 42.8389 329.336 42.8389C327.753 42.8389 326.534 43.4512 325.681 44.6758C324.84 45.9004 324.419 47.7559 324.419 50.2422ZM338.261 50.0752C338.261 52.8955 337.407 55.1777 335.7 56.9219C334.006 58.6536 331.847 59.5195 329.225 59.5195C326.664 59.5195 324.592 58.7031 323.009 57.0703C321.438 55.4251 320.652 53.279 320.652 50.6318C320.652 47.9105 321.475 45.6901 323.12 43.9707C324.778 42.2389 326.967 41.373 329.688 41.373C332.261 41.373 334.333 42.1709 335.904 43.7666C337.475 45.3499 338.261 47.4528 338.261 50.0752ZM346.406 43.8223C346.332 48.0033 346.295 51.374 346.295 53.9346C346.295 55.221 346.487 56.1117 346.87 56.6064C347.254 57.0889 347.983 57.3301 349.06 57.3301C349.913 57.3301 351.026 57.2188 352.399 56.9961L352.511 57.8311C350.371 58.9072 348.46 59.4453 346.777 59.4453C345.429 59.4453 344.427 59.0866 343.771 58.3691C343.116 57.6393 342.788 56.5446 342.788 55.085C342.788 52.6852 342.831 48.8939 342.918 43.7109L340.357 43.0801L340.246 42.3193L343.104 42.0781L344.384 37.5879C345.076 37.4023 345.707 37.223 346.276 37.0498L346.462 37.1797C346.425 38.6764 346.406 40.0742 346.406 41.373V42.0596H351.991V43.8223H346.406ZM369.377 57.6826C368.326 58.3382 367.243 58.8083 366.13 59.0928C365.017 59.3773 363.984 59.5195 363.031 59.5195C360.31 59.5195 358.139 58.7464 356.519 57.2002C354.898 55.6416 354.088 53.4831 354.088 50.7246C354.088 47.9785 354.861 45.7334 356.407 43.9893C357.966 42.2451 360.044 41.373 362.642 41.373C364.819 41.373 366.513 42.0286 367.726 43.3398C368.938 44.6387 369.544 46.4385 369.544 48.7393C369.544 49.0856 369.525 49.4382 369.488 49.7969H357.725C357.725 52.4564 358.349 54.3613 359.599 55.5117C360.848 56.6497 362.802 57.2188 365.462 57.2188C366.649 57.2188 367.917 57.1074 369.266 56.8848L369.377 57.6826ZM365.852 48.2568V47.7002C365.852 45.9437 365.567 44.6882 364.998 43.9336C364.441 43.179 363.606 42.8018 362.493 42.8018C361.021 42.8018 359.896 43.3337 359.116 44.3975C358.337 45.4613 357.898 46.7477 357.799 48.2568H365.852ZM371.9 32.9678L371.808 32.3555C373.997 31.9349 376.013 31.4958 377.856 31.0381L378.023 31.1865C377.949 33.2028 377.912 36.0046 377.912 39.5918V51.6709C377.912 53.8851 377.924 55.6663 377.949 57.0146C377.986 57.3734 378.16 57.596 378.469 57.6826L380.491 58.2949L380.547 59.0557C378.877 59.0186 377.436 59 376.224 59C375.011 59 373.576 59.0186 371.919 59.0557L371.845 58.2949L373.941 57.6826C374.251 57.5837 374.418 57.3857 374.442 57.0889C374.467 55.6911 374.479 54.1325 374.479 52.4131V44.7871C374.479 40.1855 374.455 36.4932 374.405 33.71L371.9 32.9678Z" fill="black"/>
<path d="M99.3379 46.2324L99.6426 45.9277V45.7246C99.6426 45.6569 99.7272 45.4538 99.8965 45.1152C100.066 44.7598 100.218 44.5228 100.354 44.4043C100.506 44.2858 100.616 44.1504 100.684 43.998C100.751 43.8288 100.904 43.7272 101.141 43.6934C101.039 43.5241 100.988 43.3887 100.988 43.2871L100.887 42.8047C100.887 42.7708 100.938 42.7031 101.039 42.6016L101.191 42.3984C101.276 42.3307 101.386 42.2461 101.521 42.1445C101.657 42.043 101.733 41.9076 101.75 41.7383C101.767 41.5521 101.885 41.3066 102.105 41.002C102.342 40.6803 102.52 40.5195 102.639 40.5195C102.757 40.5195 102.859 40.4857 102.943 40.418C103.028 40.3503 103.104 40.3164 103.172 40.3164C103.273 40.3164 103.358 40.3926 103.426 40.5449C103.51 40.6973 103.57 40.7734 103.604 40.7734C103.739 40.7734 103.807 40.6888 103.807 40.5195C103.807 40.4349 103.722 40.3757 103.553 40.3418C103.4 40.291 103.299 40.1979 103.248 40.0625C103.197 39.9271 103.146 39.8171 103.096 39.7324C103.045 39.6309 103.02 39.5632 103.02 39.5293C103.02 39.3939 103.096 39.2415 103.248 39.0723C103.417 38.903 103.57 38.8184 103.705 38.8184C103.84 38.8184 103.976 38.7422 104.111 38.5898C103.908 38.4883 103.807 38.3698 103.807 38.2344C104.01 38.0312 104.204 37.735 104.391 37.3457C104.594 36.9395 104.814 36.7363 105.051 36.7363C105.085 36.7363 105.169 36.7702 105.305 36.8379C105.339 36.7702 105.432 36.5417 105.584 36.1523L105.406 35.6445C105.728 35.1875 105.956 34.9251 106.092 34.8574L106.295 34.7051C106.396 34.2311 106.794 33.8333 107.488 33.5117C108.385 32.5638 108.927 32.0898 109.113 32.0898C109.147 32.0898 109.215 32.1491 109.316 32.2676L109.57 32.1914C109.672 32.1914 109.723 32.2507 109.723 32.3691C109.181 32.877 108.91 33.1478 108.91 33.1816H108.936C108.986 33.1478 109.046 33.097 109.113 33.0293C109.198 32.9616 109.333 32.8431 109.52 32.6738C109.52 32.7415 109.553 32.7754 109.621 32.7754C109.807 32.5384 109.9 32.293 109.9 32.0391C109.9 32.0052 109.807 31.9375 109.621 31.8359L109.57 31.6836C109.57 31.582 109.867 31.2689 110.459 30.7441C111.068 30.2194 111.729 29.7539 112.439 29.3477L112.693 29.043C112.761 28.9583 112.854 28.916 112.973 28.916C113.108 28.916 113.311 29.0091 113.582 29.1953L113.684 29.1445C113.65 29.0768 113.633 28.9499 113.633 28.7637C113.633 28.6621 113.701 28.5944 113.836 28.5605C114.005 28.3066 114.369 28.0866 114.928 27.9004C115.486 27.7142 115.867 27.5365 116.07 27.3672L116.604 27.1641C116.874 27.1302 117.103 27.0794 117.289 27.0117C117.492 26.944 117.729 26.9102 118 26.9102C118.051 26.9102 118.186 26.8594 118.406 26.7578C118.626 26.6393 118.787 26.5801 118.889 26.5801C118.99 26.5801 119.176 26.6901 119.447 26.9102C119.447 26.944 119.481 26.9609 119.549 26.9609L119.879 26.7324H119.93C120.167 26.9525 120.421 27.1641 120.691 27.3672C121.402 27.8919 121.758 28.5267 121.758 29.2715L121.631 30.3379L121.682 31.2266C121.682 31.5143 121.546 31.7682 121.275 31.9883C121.157 32.75 121.005 33.3001 120.818 33.6387C120.632 33.9603 120.48 34.4089 120.361 34.9844C120.26 35.5599 119.769 36.3639 118.889 37.3965C118.889 37.4303 118.779 37.5827 118.559 37.8535C118.355 38.1074 118.102 38.5645 117.797 39.2246C117.323 39.7324 117.018 40.1387 116.883 40.4434C116.764 40.7311 116.527 40.9512 116.172 41.1035H116.07L116.172 41.6621C115.529 42.7116 114.894 43.2363 114.268 43.2363C113.878 43.2363 113.489 43.0671 113.1 42.7285C112.727 42.373 112.541 42.0176 112.541 41.6621C112.541 40.8327 113.514 39.8255 115.461 38.6406C115.495 38.6406 115.562 38.6576 115.664 38.6914L115.867 38.3359C115.799 38.2005 115.766 38.1159 115.766 38.082C115.766 37.8451 116.028 37.5658 116.553 37.2441C116.79 36.7533 117.044 36.4909 117.314 36.457L118.305 34.9082L118.406 34.6543V34.2734C118.406 34.2057 118.584 34.0534 118.939 33.8164L118.99 33.7148V33.1816C118.99 32.9785 119.126 32.8092 119.396 32.6738C119.464 32.5892 119.532 32.3184 119.6 31.8613C119.684 31.3874 119.828 30.9642 120.031 30.5918C119.964 29.7962 119.862 29.3138 119.727 29.1445C119.608 28.9583 119.413 28.8652 119.143 28.8652C118.906 28.8652 118.508 29.0176 117.949 29.3223C117.391 29.61 117.027 29.7539 116.857 29.7539C116.79 29.7539 116.722 29.7285 116.654 29.6777C116.587 29.627 116.519 29.6016 116.451 29.6016C116.367 29.6016 116.282 29.6947 116.197 29.8809C116.113 30.0501 116.011 30.1517 115.893 30.1855C115.774 30.2194 115.622 30.3125 115.436 30.4648C115.266 30.6172 115.029 30.7611 114.725 30.8965L114.318 31.4297L113.887 31.7344C113.836 32.0898 113.616 32.2676 113.227 32.2676C113.142 32.2676 112.998 32.4707 112.795 32.877L112.592 33.0801H112.186L112.135 33.3086V33.5625C112.135 33.6641 112.076 33.7487 111.957 33.8164L110.992 34.8574L110.814 34.959H110.611L110.51 35.0098C110.459 35.6191 110.29 35.9323 110.002 35.9492C110.002 36.1693 109.757 36.4655 109.266 36.8379L109.062 37.0918H108.732L108.682 37.1426C108.8 37.2441 108.859 37.3118 108.859 37.3457C108.859 37.4473 108.758 37.6419 108.555 37.9297C108.368 38.2005 108.225 38.319 108.123 38.2852C108.055 38.7591 107.895 39.1738 107.641 39.5293L107.438 39.9102C107.336 40.0794 107.234 40.2148 107.133 40.3164V40.5195C107.133 40.9596 106.718 41.3574 105.889 41.7129L106.041 42.3477C105.973 42.4831 105.838 42.6862 105.635 42.957L105.406 43.4395C105.305 43.7441 105.186 43.9303 105.051 43.998C105 44.1504 104.915 44.2858 104.797 44.4043C104.695 44.5228 104.645 44.6159 104.645 44.6836L104.695 45.0391C104.441 45.4961 104.289 45.8262 104.238 46.0293C104.188 46.2155 104.103 46.3932 103.984 46.5625C103.866 46.7318 103.773 46.9264 103.705 47.1465C103.637 47.3496 103.477 47.5697 103.223 47.8066C103.02 48.5345 102.918 48.9323 102.918 49L102.562 49.3047C102.562 49.3385 102.512 49.4655 102.41 49.6855L102.359 49.8887V50.2441C102.359 50.4642 102.148 50.7266 101.725 51.0312C101.928 51.099 102.029 51.2344 102.029 51.4375C102.029 51.8268 101.953 52.123 101.801 52.3262C101.648 52.5293 101.538 52.7409 101.471 52.9609C101.403 53.1641 101.276 53.4349 101.09 53.7734C101.276 53.8919 101.369 54.0358 101.369 54.2051L101.141 55.9062L101.318 56.3887C101.285 56.4225 101.174 56.4733 100.988 56.541C101.022 56.7441 101.124 56.9219 101.293 57.0742C101.462 57.2096 101.725 57.6243 102.08 58.3184C102.148 58.3861 102.292 58.4199 102.512 58.4199C102.715 58.4199 102.867 58.403 102.969 58.3691C103.07 58.3353 103.29 58.3014 103.629 58.2676C103.984 58.2168 104.357 58.056 104.746 57.7852H105.152C105.559 57.7852 105.838 57.6413 105.99 57.3535C106.16 57.0488 106.329 56.8965 106.498 56.8965C106.65 56.8965 106.896 56.8288 107.234 56.6934H107.387C107.454 56.5579 107.522 56.4648 107.59 56.4141C107.658 56.3633 107.793 56.2109 107.996 55.957C108.216 55.6862 108.411 55.5508 108.58 55.5508C109.173 55.1615 109.63 54.8145 109.951 54.5098C109.985 54.4759 110.078 54.4505 110.23 54.4336C110.383 54.4167 110.501 54.332 110.586 54.1797C110.671 54.0273 111.051 53.6719 111.729 53.1133C112.406 52.5547 112.812 52.1146 112.947 51.793C113.083 51.4544 113.243 51.2852 113.43 51.2852C113.497 51.2852 113.616 51.3021 113.785 51.3359H113.836C113.904 51.3359 113.954 51.2598 113.988 51.1074C114.022 50.9551 114.369 50.6842 115.029 50.2949C115.046 49.9564 115.309 49.6602 115.816 49.4062L116.705 48.543L117.111 48.5938C117.213 48.526 117.272 48.3737 117.289 48.1367C117.306 47.8997 117.441 47.7389 117.695 47.6543H117.898L118.051 47.5527C118.169 46.9941 118.364 46.7148 118.635 46.7148H118.838C118.973 46.7148 119.041 46.554 119.041 46.2324C119.041 45.9277 119.405 45.6908 120.133 45.5215L120.641 45.2676C120.674 45.2168 120.751 45.1914 120.869 45.1914C121.309 45.1914 121.529 45.5384 121.529 46.2324C121.529 46.4186 121.462 46.5625 121.326 46.6641L120.971 46.9688L120.92 47.4004L120.006 48.2383C119.854 48.3568 119.769 48.5176 119.752 48.7207C119.735 48.9069 119.684 49 119.6 49C119.549 49.0846 119.439 49.1608 119.27 49.2285C119.117 49.2793 119.016 49.3639 118.965 49.4824C118.728 50.041 118.355 50.3796 117.848 50.498C117.56 51.1582 117.289 51.556 117.035 51.6914C116.781 51.8099 116.637 51.9368 116.604 52.0723C116.536 52.5124 116.307 52.7155 115.918 52.6816C115.292 53.291 114.894 53.765 114.725 54.1035C114.725 54.1374 114.708 54.1543 114.674 54.1543L114.318 54.1035C114.285 54.1374 114.191 54.2389 114.039 54.4082C113.904 54.5775 113.709 54.6706 113.455 54.6875C113.218 54.7044 113.049 54.8568 112.947 55.1445C112.846 55.4154 112.753 55.5846 112.668 55.6523C112.583 55.7201 112.49 55.8385 112.389 56.0078C112.287 56.1602 112.186 56.2363 112.084 56.2363C111.932 56.2363 111.822 56.0924 111.754 55.8047C111.618 55.8724 111.483 55.9993 111.348 56.1855L111.5 56.541C111.5 56.6087 111.466 56.668 111.398 56.7188C111.331 56.7695 111.204 56.9388 111.018 57.2266C110.848 57.4974 110.434 57.6836 109.773 57.7852C109.74 57.7852 109.672 57.9036 109.57 58.1406C109.469 58.3607 109.232 58.4876 108.859 58.5215C108.504 59.0462 108.208 59.3086 107.971 59.3086L106.879 59.6641C106.693 59.6641 106.532 59.6471 106.396 59.6133C106.295 59.8503 106.176 59.9688 106.041 59.9688L105.686 60.0703C105.567 60.2396 105.423 60.3242 105.254 60.3242C105.017 60.3242 104.898 60.2565 104.898 60.1211C104.898 60.0872 104.915 60.0365 104.949 59.9688V59.8672C104.949 59.7656 104.915 59.7148 104.848 59.7148C104.848 60.4427 104.653 60.8066 104.264 60.8066C104.196 60.8066 104.01 60.7389 103.705 60.6035H103.654L103.172 60.8574C103.138 60.8913 103.07 60.9082 102.969 60.9082C102.342 60.9082 101.716 60.7135 101.09 60.3242H100.836C100.311 60.3242 99.9134 60.0195 99.6426 59.4102L99.5918 59.3086C99.1855 59.207 98.957 58.9447 98.9062 58.5215C98.8385 58.4199 98.6693 58.2422 98.3984 57.9883C98.3646 57.7513 98.2884 57.5397 98.1699 57.3535C98.0514 57.1504 97.9922 57.0319 97.9922 56.998L97.4082 55.0938C97.3405 54.5352 97.3066 54.0781 97.3066 53.7227L97.2559 53.5195V53.3672L97.3574 52.6816L97.3066 52.4277C97.3066 52.2923 97.459 51.793 97.7637 50.9297C98.0853 50.0664 98.2884 49.4232 98.373 49C98.4577 48.5768 98.5339 48.3145 98.6016 48.2129L99.3379 46.2324ZM120.869 50.7266L121.072 50.4473C121.512 50.3457 121.792 50.1764 121.91 49.9395C121.961 49.821 122.384 49.3809 123.18 48.6191C123.975 47.8574 124.415 47.4512 124.5 47.4004C125.042 46.4186 125.372 45.6823 125.49 45.1914C125.693 45.0898 125.795 44.9714 125.795 44.8359L125.998 44.4297L126.227 44.3789L126.328 44.2773V44.0488C126.328 43.7441 126.658 43.0332 127.318 41.916C127.979 40.5449 128.334 39.7917 128.385 39.6562C128.436 39.5039 128.537 39.2923 128.689 39.0215C128.842 38.7337 129.07 38.1921 129.375 37.3965C129.697 36.6009 130.188 35.7715 130.848 34.9082C130.915 34.8743 131.017 34.6882 131.152 34.3496C131.288 33.9941 131.499 33.6471 131.787 33.3086L132.092 32.7754C132.193 32.6061 132.371 32.3099 132.625 31.8867C132.879 31.4635 133.107 31.1335 133.311 30.8965C133.531 30.6426 133.691 30.3802 133.793 30.1094C133.911 29.8385 134.047 29.6439 134.199 29.5254C134.352 29.4069 134.504 29.1953 134.656 28.8906C134.826 28.569 135.079 28.4082 135.418 28.4082C136.078 28.4082 136.552 28.679 136.84 29.2207C137.145 29.7624 137.297 30.2363 137.297 30.6426C137.297 30.6934 137.195 31.0573 136.992 31.7344L136.611 34.0195C136.273 34.1888 136.104 34.3835 136.104 34.6035C136.104 35.5007 135.757 36.4316 135.062 37.3965C134.995 37.4642 134.936 37.6842 134.885 38.0566C134.851 38.429 134.707 38.7337 134.453 38.9707C134.199 39.2077 133.971 39.6055 133.768 40.1641L131.406 43.541L131.203 43.7441C131.102 43.8118 130.983 43.9557 130.848 44.1758L130.441 44.0488C129.984 44.0488 129.756 44.1927 129.756 44.4805C129.756 44.582 129.79 44.7174 129.857 44.8867V44.9375C129.857 44.9544 129.231 45.8431 127.979 47.6035C127.911 47.7051 127.792 48.0352 127.623 48.5938L127.268 49.3555C126.912 49.8464 126.658 50.3288 126.506 50.8027C126.37 51.2598 126.184 51.6322 125.947 51.9199C125.609 52.6816 125.439 53.0794 125.439 53.1133C125.439 53.2148 125.49 53.2656 125.592 53.2656C125.693 53.2656 125.93 53.0117 126.303 52.5039C126.692 51.9961 127.005 51.6576 127.242 51.4883C127.496 51.319 127.708 51.082 127.877 50.7773L128.131 50.5996C128.199 50.5658 128.342 50.4642 128.562 50.2949L128.816 50.3457C128.952 50.2441 129.036 50.1257 129.07 49.9902C129.104 49.8548 129.155 49.7533 129.223 49.6855C129.663 49.6348 129.934 49.474 130.035 49.2031C130.154 48.9323 130.289 48.7969 130.441 48.7969C130.577 48.7969 130.755 48.6445 130.975 48.3398C131.195 48.0182 131.499 47.7643 131.889 47.5781C132.295 47.375 132.591 47.1973 132.777 47.0449C132.98 46.8926 133.378 46.7148 133.971 46.5117C134.563 46.2917 134.961 46.1816 135.164 46.1816H135.316L135.52 46.2324L135.9 46.1816C136.493 46.1816 137.085 46.3509 137.678 46.6895C138.27 47.0111 138.524 47.5189 138.439 48.2129L138.236 49.7871L137.957 51.0312C137.923 51.2344 137.788 51.6829 137.551 52.377C137.314 53.071 137.195 53.4688 137.195 53.5703L137.094 54.0527L137.195 54.7129L137.145 55.2461C137.145 55.4154 137.229 55.5 137.398 55.5C137.466 55.5 137.652 55.3477 137.957 55.043C138.143 55.0768 138.321 54.9753 138.49 54.7383C138.66 54.5013 138.888 54.2559 139.176 54.002C139.176 53.9342 139.286 53.875 139.506 53.8242C139.726 53.7565 140.031 53.5534 140.42 53.2148C140.488 53.0625 140.818 52.7409 141.41 52.25C142.003 51.7422 142.57 51.3529 143.111 51.082L143.264 50.8789C143.551 50.5911 143.814 50.4473 144.051 50.4473C144.288 50.4473 144.406 50.5742 144.406 50.8281C144.406 50.9974 144.364 51.1751 144.279 51.3613C144.195 51.5475 144.135 51.793 144.102 52.0977C144.068 52.3854 143.898 52.8086 143.594 53.3672L143.492 53.6211C143.374 53.9089 143.23 54.0781 143.061 54.1289C142.891 54.1797 142.705 54.3236 142.502 54.5605C142.316 54.7806 141.918 54.9922 141.309 55.1953C141.038 55.7031 140.826 55.957 140.674 55.957L140.217 55.7539C139.861 56.0417 139.684 56.3379 139.684 56.6426C139.243 57.015 138.981 57.2604 138.896 57.3789L138.389 57.3281C138.253 57.3281 138.186 57.5143 138.186 57.8867C138.186 57.9206 138.008 58.0391 137.652 58.2422C137.314 58.4284 137.051 58.5977 136.865 58.75C136.679 58.9023 136.281 58.9785 135.672 58.9785C135.604 58.9785 135.503 58.9193 135.367 58.8008C135.232 58.6823 135.029 58.5807 134.758 58.4961C134.504 58.4115 134.326 58.2168 134.225 57.9121C134.123 57.5905 134.013 57.3451 133.895 57.1758C133.776 56.9896 133.717 56.8457 133.717 56.7441L133.768 56.2363L133.641 55.7031L133.869 55.3477C133.768 55.1107 133.717 54.9499 133.717 54.8652L133.971 53.3164C134.157 52.1992 134.309 51.4714 134.428 51.1328C134.462 51.099 134.479 50.9974 134.479 50.8281L134.428 50.1934L134.479 49.8379C134.479 49.584 134.394 49.4486 134.225 49.4316C134.055 49.4147 133.954 49.3724 133.92 49.3047C133.7 49.2031 133.573 49.1523 133.539 49.1523C133.404 49.1523 133.285 49.2624 133.184 49.4824C133.082 49.6855 132.947 49.8717 132.777 50.041L132.143 49.9395V49.9902C132.143 50.1257 131.914 50.388 131.457 50.7773C131.034 50.8789 130.67 51.099 130.365 51.4375C130.23 51.4375 129.993 51.5729 129.654 51.8438C129.333 52.0977 129.121 52.2415 129.02 52.2754L128.816 52.6816L128.41 52.8086C128.292 53.1471 128.012 53.3672 127.572 53.4688L127.318 53.9512C126.963 53.985 126.717 54.1712 126.582 54.5098C126.447 54.8314 126.345 54.9922 126.277 54.9922C126.243 54.9922 126.184 54.9753 126.1 54.9414C126.032 54.8906 125.964 54.8652 125.896 54.8652C125.524 54.8652 125.321 55.1445 125.287 55.7031C125.287 55.7708 124.94 56.1686 124.246 56.8965C123.552 57.6243 123.18 57.9967 123.129 58.0137C123.078 58.0306 122.977 58.2083 122.824 58.5469C122.689 58.8685 122.494 59.1139 122.24 59.2832C121.986 59.4355 121.792 59.5625 121.656 59.6641C121.538 59.7656 121.445 59.8164 121.377 59.8164C121.021 59.8164 120.734 59.5625 120.514 59.0547C120.294 58.5469 120.184 58.2845 120.184 58.2676L120.336 57.7344L120.285 57.2773C120.285 57.2604 120.387 56.9219 120.59 56.2617C120.81 55.5846 121.055 55.0599 121.326 54.6875C121.597 54.2982 121.809 53.6719 121.961 52.8086C121.199 53.3164 120.742 53.5703 120.59 53.5703C120.251 53.5703 120.082 53.3503 120.082 52.9102C120.082 52.0977 120.344 51.3698 120.869 50.7266ZM146.514 49.6348L147.047 49.2031C147.453 49.1693 147.673 48.9577 147.707 48.5684C147.741 48.179 148.02 47.8405 148.545 47.5527L148.85 47.1211C149.104 46.8672 149.798 46.5371 150.932 46.1309C151.219 45.9616 151.414 45.8092 151.516 45.6738C151.549 45.64 151.583 45.623 151.617 45.623L152.023 45.7246C152.243 45.7246 152.523 45.6654 152.861 45.5469C153.217 45.4284 153.555 45.3691 153.877 45.3691L154.943 45.3184C155.011 45.3184 155.146 45.3691 155.35 45.4707C155.57 45.5723 155.832 45.623 156.137 45.623C156.509 45.623 156.848 45.7923 157.152 46.1309C157.474 46.4694 157.635 46.7826 157.635 47.0703C157.635 47.5951 157.364 48.1283 156.822 48.6699C156.281 49.2116 155.849 49.5163 155.527 49.584C155.24 49.8717 155.02 50.0579 154.867 50.1426C154.715 50.2103 154.554 50.3288 154.385 50.498C154.232 50.6504 154.105 50.7266 154.004 50.7266C153.936 50.7266 153.885 50.7096 153.852 50.6758C153.818 50.625 153.767 50.5996 153.699 50.5996C153.428 50.5996 153.132 50.9297 152.811 51.5898L152.354 51.5391C152.066 51.7253 151.88 51.9284 151.795 52.1484C151.71 52.3685 151.533 52.4785 151.262 52.4785C150.635 53.1048 150.212 53.418 149.992 53.418C149.958 53.418 149.84 53.3841 149.637 53.3164C149.501 53.4857 149.434 53.6634 149.434 53.8496C149.434 54.0527 149.298 54.1712 149.027 54.2051L148.697 54.5098L148.443 54.459L147.936 54.9922C147.682 54.9922 147.419 55.0768 147.148 55.2461C147.115 55.4492 147.064 55.7116 146.996 56.0332C146.928 56.3379 146.895 56.5072 146.895 56.541C146.895 57.0319 147.343 57.2773 148.24 57.2773L149.459 57.0996C149.781 57.0996 150.077 57.015 150.348 56.8457C150.635 56.6764 150.94 56.5918 151.262 56.5918C151.363 56.5918 151.516 56.5579 151.719 56.4902L151.973 56.5918C152.091 56.3379 152.311 56.1094 152.633 55.9062C152.954 55.7031 153.208 55.6016 153.395 55.6016L153.648 55.4492C153.716 55.2461 153.818 55.1107 153.953 55.043L154.156 54.8652C154.292 54.7298 154.419 54.6621 154.537 54.6621H154.893L154.994 54.6113C155.197 54.1712 155.477 53.9173 155.832 53.8496C156.204 53.765 156.433 53.638 156.518 53.4688C156.619 53.2995 156.788 53.1979 157.025 53.1641C157.262 53.1302 157.457 53.0202 157.609 52.834C157.779 52.6309 157.982 52.4447 158.219 52.2754C158.456 52.1061 158.617 51.9792 158.701 51.8945C158.803 51.8099 158.887 51.7676 158.955 51.7676C159.057 51.7676 159.107 51.8438 159.107 51.9961C159.107 52.1484 159.141 52.2246 159.209 52.2246C159.277 52.2246 159.311 52.1908 159.311 52.123C159.311 52.0553 159.294 51.9707 159.26 51.8691V51.6914C159.26 51.4375 159.395 51.2682 159.666 51.1836L160.809 50.4473C160.842 50.0918 160.936 49.8887 161.088 49.8379C161.257 49.7702 161.384 49.7025 161.469 49.6348C161.553 49.5501 161.646 49.5078 161.748 49.5078C161.968 49.5078 162.078 49.6348 162.078 49.8887L161.951 50.5488L162.078 51.2344C162.078 51.3359 161.993 51.4798 161.824 51.666C161.672 51.8353 161.553 52.1061 161.469 52.4785C161.384 52.834 161.274 53.0286 161.139 53.0625H160.986C160.682 53.3841 160.436 53.5788 160.25 53.6465C160.081 53.6973 159.945 53.7988 159.844 53.9512L158.98 54.9414C158.811 55.1107 158.667 55.263 158.549 55.3984C158.43 55.5339 158.337 55.6016 158.27 55.6016L158.066 55.3984C158.066 55.3646 158.033 55.3477 157.965 55.3477C157.796 55.3477 157.686 55.4492 157.635 55.6523C157.601 55.8555 157.516 56.0332 157.381 56.1855C156.873 56.4225 156.543 56.6426 156.391 56.8457L156.238 56.8965H155.781C155.561 56.8965 155.409 57.0658 155.324 57.4043C155.24 57.7259 154.994 57.9121 154.588 57.9629C154.199 58.0137 153.919 58.1152 153.75 58.2676C153.716 58.3014 153.64 58.3353 153.521 58.3691C153.403 58.403 153.166 58.5384 152.811 58.7754L150.678 59.5371C150.508 59.6217 150.398 59.6641 150.348 59.6641L149.637 59.7656C149.535 59.7656 149.434 59.6979 149.332 59.5625C149.23 59.4271 149.163 59.3594 149.129 59.3594L148.672 59.5117C148.333 59.6133 148.012 59.6641 147.707 59.6641C147.538 59.6641 147.352 59.6048 147.148 59.4863C146.945 59.3678 146.785 59.2832 146.666 59.2324C146.175 59.2324 145.828 58.8516 145.625 58.0898L145.32 58.1406C145.253 58.1406 145.024 57.5397 144.635 56.3379C144.533 56.2025 144.372 56.1094 144.152 56.0586C143.932 55.9909 143.822 55.8216 143.822 55.5508C143.822 54.7891 143.983 54.2812 144.305 54.0273C144.643 53.7565 144.829 53.5534 144.863 53.418L145.219 52.0977C145.286 52.0469 145.371 51.8776 145.473 51.5898L146.057 50.5234C146.124 50.4049 146.277 50.1087 146.514 49.6348ZM151.871 48.1113L151.566 48.2637C151.499 48.2975 151.296 48.4499 150.957 48.7207C150.635 48.9746 150.314 49.1862 149.992 49.3555C149.688 49.5078 149.366 49.9225 149.027 50.5996C148.706 51.2767 148.545 51.666 148.545 51.7676C148.545 51.8691 148.596 51.9199 148.697 51.9199L149.561 51.5391C149.882 51.3867 150.178 51.1921 150.449 50.9551C150.737 50.7181 151.143 50.4303 151.668 50.0918L151.871 49.8887C151.905 49.821 152.057 49.7025 152.328 49.5332C152.616 49.347 152.827 49.1693 152.963 49L153.217 48.8984C153.505 48.4414 153.792 48.1621 154.08 48.0605C154.385 47.959 154.537 47.8574 154.537 47.7559C154.537 47.5527 154.376 47.4512 154.055 47.4512C153.919 47.4512 153.716 47.5358 153.445 47.7051H152.861C152.794 47.7051 152.607 47.8066 152.303 48.0098L151.871 48.1113ZM170.254 48.4414L170.965 48.1113C171.202 47.959 171.43 47.7389 171.65 47.4512L172.539 46.8164C173.047 46.4779 173.377 46.3086 173.529 46.3086L173.936 46.4609C173.969 46.4609 174.071 46.3594 174.24 46.1562C174.426 45.9362 174.638 45.8262 174.875 45.8262C175.18 45.8262 175.594 46.0547 176.119 46.5117C176.644 46.9688 176.906 47.375 176.906 47.7305L176.805 48.5938C176.805 48.7292 176.872 49.11 177.008 49.7363V49.9395L176.906 50.5488L177.008 51.1836L176.729 52.4277C176.729 52.7493 176.839 52.9102 177.059 52.9102C177.346 52.6393 177.592 52.4785 177.795 52.4277L178.15 52.0723C178.286 51.9368 178.387 51.8691 178.455 51.8691C178.523 51.8691 178.607 51.793 178.709 51.6406C178.827 51.4714 178.971 51.3529 179.141 51.2852C179.31 51.2174 179.428 51.099 179.496 50.9297C180.444 49.8971 181.172 49.3047 181.68 49.1523C181.747 49.1523 181.857 49.0677 182.01 48.8984C182.179 48.7292 182.314 48.6276 182.416 48.5938L182.975 48.1621L183.203 48.2637H183.254C183.288 48.2637 183.423 48.179 183.66 48.0098C183.897 47.8405 184.066 47.7559 184.168 47.7559C184.811 47.7559 185.336 47.9759 185.742 48.416C186.165 48.8392 186.377 49.1693 186.377 49.4062L186.25 49.9902L186.428 50.7773V51.2852L186.301 51.8184C186.301 51.9199 186.368 52.0638 186.504 52.25C186.656 52.4362 186.732 52.5632 186.732 52.6309C186.529 52.8509 186.428 52.9948 186.428 53.0625L186.479 53.5195L186.352 54.916C186.352 55.0345 186.462 55.2292 186.682 55.5C186.783 55.4323 186.927 55.373 187.113 55.3223C187.299 55.2715 187.443 55.2207 187.545 55.1699C187.646 55.1022 187.697 55.0684 187.697 55.0684C187.697 55.0514 187.689 55.043 187.672 55.043C187.706 55.043 187.807 55.0768 187.977 55.1445H188.078C188.214 55.1445 188.29 55.0176 188.307 54.7637C188.324 54.4928 188.493 54.2728 188.814 54.1035L189.424 54.1543C189.458 54.1204 189.525 53.985 189.627 53.748C189.745 53.4941 190.101 53.1302 190.693 52.6562C191.303 52.1654 191.768 51.9199 192.09 51.9199C192.361 51.9199 192.496 52.0384 192.496 52.2754C192.496 52.3431 192.462 52.5208 192.395 52.8086C192.53 53.0456 192.598 53.2487 192.598 53.418C192.598 53.7396 192.318 54.0866 191.76 54.459C191.218 54.8314 190.803 55.2969 190.516 55.8555L190.414 55.957L189.906 55.9062C189.872 55.9062 189.788 56.0417 189.652 56.3125C189.534 56.5664 189.39 56.7103 189.221 56.7441C189.051 56.778 188.933 56.8288 188.865 56.8965L188.332 57.2266C188.23 57.2943 187.892 57.6413 187.316 58.2676C186.758 58.877 186.284 59.1816 185.895 59.1816C185.725 59.1816 185.421 59.097 184.98 58.9277C184.54 58.7415 184.244 58.5553 184.092 58.3691C183.939 58.1829 183.719 57.9714 183.432 57.7344C183.161 57.4974 183.025 57.0488 183.025 56.3887C183.025 56.3548 183.068 56.2956 183.152 56.2109C183.254 56.1263 183.305 56.0586 183.305 56.0078C182.915 55.5 182.721 55.1361 182.721 54.916C182.721 54.8145 182.738 54.7044 182.771 54.5859C182.805 54.4674 182.822 54.3574 182.822 54.2559L182.771 53.3672L182.873 52.9102L182.822 52.6309L182.975 51.3359C182.975 51.1328 182.856 51.0312 182.619 51.0312C182.551 51.0312 182.458 51.099 182.34 51.2344C182.221 51.3698 182.069 51.4798 181.883 51.5645C181.714 51.6322 181.527 51.8691 181.324 52.2754C181.02 52.4447 180.808 52.6139 180.689 52.7832C180.588 52.9355 180.503 53.0117 180.436 53.0117C180.402 53.0117 180.334 52.9948 180.232 52.9609C180.029 53.0964 179.928 53.2487 179.928 53.418V53.5195L179.979 53.7227C179.979 53.875 179.852 54.0189 179.598 54.1543C179.344 54.2897 179.031 54.6367 178.658 55.1953C178.489 55.1953 178.37 55.2122 178.303 55.2461L177.998 55.8555C177.829 55.957 177.668 56.1348 177.516 56.3887L177.211 56.541C177.092 56.7611 176.974 56.9473 176.855 57.0996L176.703 57.3789C175.975 58.2422 175.467 58.6738 175.18 58.6738C174.892 58.6738 174.545 58.293 174.139 57.5312C173.732 56.7695 173.529 56.1771 173.529 55.7539L173.631 54.8145C173.631 54.7806 173.563 54.6452 173.428 54.4082V54.3066C173.428 54.2728 173.495 54.0781 173.631 53.7227V52.9609C173.631 52.9271 173.614 52.8763 173.58 52.8086V52.6816C173.58 52.6478 173.648 52.5124 173.783 52.2754L173.631 51.5391L173.732 51.1328L173.682 50.2441L173.783 49.457C173.783 49.4062 173.732 49.3216 173.631 49.2031C173.546 49.0677 173.487 49 173.453 49C173.335 49 172.979 49.1947 172.387 49.584C171.811 49.9733 171.422 50.278 171.219 50.498C171.016 50.7181 170.745 50.9805 170.406 51.2852C170.051 51.4544 169.805 51.8861 169.67 52.5801C169.67 52.6139 169.636 52.6309 169.568 52.6309C169.568 52.597 169.518 52.5632 169.416 52.5293H169.314C169.23 52.5293 168.967 52.8932 168.527 53.6211L168.426 53.7227L167.943 53.6211C167.537 53.6211 167.334 54.0527 167.334 54.916C167.334 55.0684 167.224 55.1699 167.004 55.2207C166.801 55.2715 166.64 55.4154 166.521 55.6523C166.403 55.8893 166.242 56.1348 166.039 56.3887C165.65 56.5579 165.43 56.6849 165.379 56.7695C165.379 56.7865 165.193 57.0404 164.82 57.5312C164.448 58.0221 164.245 58.3099 164.211 58.3945C164.177 58.4792 164.059 58.5807 163.855 58.6992C163.669 58.8008 163.576 58.8939 163.576 58.9785L163.652 59.4102C163.652 59.681 163.39 59.8164 162.865 59.8164C161.85 59.8164 161.342 58.7585 161.342 56.6426C161.342 56.4056 161.443 56.1432 161.646 55.8555C161.867 55.5508 162.078 55.1868 162.281 54.7637C162.603 54.4421 162.984 53.9766 163.424 53.3672C163.864 52.7578 164.194 52.3431 164.414 52.123L164.744 51.5898C164.744 51.3867 164.786 51.2344 164.871 51.1328C164.956 51.0312 164.998 50.9043 164.998 50.752C164.998 50.4811 164.93 50.3457 164.795 50.3457C164.473 50.3457 164.219 50.4303 164.033 50.5996C163.847 50.752 163.635 50.862 163.398 50.9297C163.178 50.9974 163.035 51.1159 162.967 51.2852C162.73 51.3867 162.476 51.6068 162.205 51.9453C161.951 52.2669 161.782 52.4701 161.697 52.5547C161.613 52.6393 161.528 52.7578 161.443 52.9102C161.376 53.0456 161.283 53.1217 161.164 53.1387C161.046 53.1556 160.936 53.2148 160.834 53.3164C160.732 53.418 160.572 53.4688 160.352 53.4688C160.199 53.4688 160.055 53.3164 159.92 53.0117C159.801 52.6901 159.742 52.4954 159.742 52.4277C159.742 51.1921 160.563 50.1257 162.205 49.2285C162.425 49.11 162.594 48.9915 162.713 48.873C162.848 48.7546 162.984 48.6615 163.119 48.5938L163.221 48.416C163.356 48.2129 163.864 47.9251 164.744 47.5527H165.1L166.801 47.1211C167.529 46.9518 167.893 47.7728 167.893 49.584L167.842 50.041L167.943 50.2441C168.231 49.9733 168.519 49.7363 168.807 49.5332C169.111 49.3132 169.331 49.1185 169.467 48.9492C169.602 48.7799 169.865 48.6107 170.254 48.4414ZM205.852 57.3281L204.658 58.3691C204.59 58.3014 204.523 58.2676 204.455 58.2676C204.286 58.2676 204.074 58.4199 203.82 58.7246C203.583 59.0293 203.414 59.1816 203.312 59.1816L203.059 59.1309C202.635 59.4525 202.331 59.6387 202.145 59.6895C201.958 59.7402 201.73 59.8333 201.459 59.9688C201.205 60.1042 200.968 60.1803 200.748 60.1973C200.545 60.2142 200.376 60.2904 200.24 60.4258C200.105 60.5443 199.775 60.6035 199.25 60.6035L198.844 60.5527C198.624 60.6543 198.48 60.7051 198.412 60.7051C198.277 60.7051 198.133 60.6374 197.98 60.502C197.828 60.3496 197.659 60.265 197.473 60.248C197.303 60.2311 197.126 60.1126 196.939 59.8926C196.753 59.6725 196.576 59.5202 196.406 59.4355C196.254 59.3509 196.127 59.2324 196.025 59.0801L195.67 58.7754C195.382 58.5723 195.103 58.1999 194.832 57.6582C194.561 57.1165 194.426 56.6934 194.426 56.3887V56.2871L194.477 55.8047L194.426 55.2461C194.493 55.1784 194.578 55.0345 194.68 54.8145V54.002L195.289 51.9707C195.323 51.8861 195.255 51.776 195.086 51.6406C194.917 51.8945 194.747 52.0469 194.578 52.0977C194.409 52.1484 194.29 52.2669 194.223 52.4531C194.172 52.6393 194.079 52.7324 193.943 52.7324L193.639 52.6309C193.605 52.6647 193.529 52.8424 193.41 53.1641C193.292 53.4688 193.089 53.6211 192.801 53.6211C192.496 53.6211 192.344 53.5026 192.344 53.2656L192.395 52.8086L192.242 52.1738C192.242 52.0384 192.378 51.776 192.648 51.3867C192.919 50.9805 193.165 50.752 193.385 50.7012C193.622 50.6335 193.816 50.4727 193.969 50.2188C194.138 49.9479 194.493 49.6263 195.035 49.2539C195.34 49.1862 195.602 48.9661 195.822 48.5938C196.059 48.4076 196.364 48.2552 196.736 48.1367C197.126 48.0182 197.413 47.849 197.6 47.6289C197.803 47.3919 198.378 47.0365 199.326 46.5625C200.291 46.0716 200.993 45.8262 201.434 45.8262C201.569 45.8262 201.755 45.7923 201.992 45.7246C202.229 45.64 202.449 45.5723 202.652 45.5215C202.855 45.4538 203.067 45.3607 203.287 45.2422C203.507 45.1068 203.685 45.0391 203.82 45.0391L204.557 45.293C205.098 45.4453 205.428 45.5553 205.547 45.623C205.581 45.6569 205.75 45.7331 206.055 45.8516C206.376 45.9531 206.698 46.097 207.02 46.2832C207.358 46.4694 207.527 46.8164 207.527 47.3242C207.24 47.7474 207.096 47.9759 207.096 48.0098C207.096 48.0775 207.29 48.179 207.68 48.3145C207.815 48.5684 208.018 48.8984 208.289 49.3047L208.568 50.1934L208.619 52.2754L208.568 52.4785C208.382 52.6478 208.289 52.7578 208.289 52.8086L208.365 53.3164L208.162 54.0273C208.111 54.2474 208.027 54.3913 207.908 54.459C207.79 54.5267 207.714 54.6113 207.68 54.7129L207.527 54.916C207.493 54.9668 207.417 55.1191 207.299 55.373C207.197 55.61 207.079 55.7962 206.943 55.9316C206.808 56.0671 206.723 56.2279 206.689 56.4141C206.656 56.6003 206.571 56.7357 206.436 56.8203C206.3 56.9049 206.199 56.998 206.131 57.0996C206.08 57.1842 205.987 57.2604 205.852 57.3281ZM197.955 57.9883L198.057 58.5723L198.107 58.623H198.514L198.641 58.6738C198.979 58.7415 199.233 58.7754 199.402 58.7754C199.927 58.7754 200.342 58.6484 200.646 58.3945C200.968 58.1237 201.222 57.9883 201.408 57.9883C201.594 57.9883 201.747 57.8613 201.865 57.6074C202.001 57.3535 202.085 57.2266 202.119 57.2266H202.475L202.576 57.1758C202.576 56.7865 202.745 56.5072 203.084 56.3379C203.439 56.1686 203.685 55.9486 203.82 55.6777C203.973 55.39 204.142 55.1784 204.328 55.043C204.514 54.8906 204.641 54.696 204.709 54.459L204.912 54.1543C204.98 54.0866 205.014 53.9596 205.014 53.7734L205.496 52.8594C205.598 52.4362 205.648 52.1061 205.648 51.8691C205.648 51.5137 205.462 51.2344 205.09 51.0312C204.734 50.8281 204.557 50.4303 204.557 49.8379C204.557 49.4486 204.751 49.0931 205.141 48.7715C205.547 48.4329 205.75 48.2298 205.75 48.1621C205.75 48.0605 205.699 48.0098 205.598 48.0098C205.547 48.0098 205.352 48.0775 205.014 48.2129C204.895 48.4499 204.294 48.763 203.211 49.1523C202.855 48.9831 202.661 48.8984 202.627 48.8984C202.525 48.8984 202.424 49 202.322 49.2031C202.221 49.4062 202.119 49.5501 202.018 49.6348H201.688C201.654 49.6348 201.544 49.7448 201.357 49.9648C201.171 50.1849 200.934 50.2949 200.646 50.2949L200.342 50.5996C200.359 50.8704 200.189 51.1497 199.834 51.4375L199.555 51.7676C199.385 51.9707 199.165 52.2077 198.895 52.4785L198.438 53.6211C198.251 54.0612 198.158 54.3913 198.158 54.6113C198.107 54.7129 197.989 54.8229 197.803 54.9414C197.633 55.043 197.549 55.1784 197.549 55.3477C197.549 55.3815 197.608 55.4661 197.727 55.6016C197.845 55.737 197.904 55.8385 197.904 55.9062L197.803 56.2363L197.701 57.1758L197.955 57.9883ZM212.529 57.5312L212.326 56.2363C212.326 56.1348 212.377 55.974 212.479 55.7539C212.58 55.7539 212.665 55.7201 212.732 55.6523L212.58 55.1953C212.58 54.6029 212.741 54.0951 213.062 53.6719C213.401 53.2318 213.587 52.9355 213.621 52.7832C213.655 52.6309 213.892 52.14 214.332 51.3105C214.789 50.4642 215.128 49.9225 215.348 49.6855L215.5 49.3555L215.703 49.3047C216.092 48.6784 216.643 48.1113 217.354 47.6035C217.59 47.2311 217.878 46.9264 218.217 46.6895C218.555 46.4525 218.784 46.2832 218.902 46.1816C219.021 46.0801 219.199 46.0124 219.436 45.9785L219.537 45.9277C220.028 45.4368 220.451 45.1914 220.807 45.1914C220.925 45.0729 221.162 44.9375 221.518 44.7852H221.797C221.898 44.7852 222 44.7513 222.102 44.6836C222.203 44.6159 222.305 44.582 222.406 44.582C222.474 44.582 222.652 44.6497 222.939 44.7852C223.21 44.5143 223.43 44.3789 223.6 44.3789C223.955 44.3789 224.311 44.5143 224.666 44.7852C225.038 45.056 225.275 45.3861 225.377 45.7754C225.479 46.1647 225.563 46.3932 225.631 46.4609C225.699 46.5286 225.766 46.6133 225.834 46.7148C225.969 46.7148 226.147 46.4017 226.367 45.7754L226.672 45.3691C227.129 44.7767 227.442 44.0827 227.611 43.2871C227.645 43.2533 227.696 43.1178 227.764 42.8809C227.831 42.627 228.009 42.2038 228.297 41.6113C228.788 40.9004 229.135 40.1725 229.338 39.4277L229.643 38.9707C229.846 38.8353 229.956 38.6914 229.973 38.5391C229.99 38.3698 230.04 38.2174 230.125 38.082C230.21 37.9466 230.303 37.7858 230.404 37.5996C230.523 37.3965 230.616 37.2611 230.684 37.1934C230.751 37.1257 230.853 36.8971 230.988 36.5078C231.124 36.1016 231.285 35.873 231.471 35.8223C231.674 35.7715 231.877 35.6784 232.08 35.543L232.131 35.3652L232.029 35.0098C232.029 34.8066 232.249 34.4512 232.689 33.9434C233.146 33.4355 233.468 33.0208 233.654 32.6992C233.857 32.3607 234.188 31.8529 234.645 31.1758C235.118 30.4818 235.457 30.0586 235.66 29.9062L236.244 29.2969C236.515 28.9076 236.896 28.7129 237.387 28.7129C237.759 28.7129 238.148 28.916 238.555 29.3223C238.961 29.7116 239.164 30.1009 239.164 30.4902C239.164 30.6257 239.071 30.9388 238.885 31.4297L238.834 31.7344C238.834 32.0052 238.741 32.3268 238.555 32.6992C238.368 33.0716 238.258 33.3594 238.225 33.5625L236.803 37.041C236.633 37.1087 236.532 37.1595 236.498 37.1934C236.058 38.1582 235.711 38.6829 235.457 38.7676V39.2754C235.457 39.4616 235.339 39.597 235.102 39.6816L235 39.7324C234.848 40.3757 234.653 40.8411 234.416 41.1289C234.179 41.4167 234.001 41.7129 233.883 42.0176C233.781 42.3053 233.612 42.4661 233.375 42.5C233.138 42.5339 233.02 42.8639 233.02 43.4902C232.952 43.8288 232.783 43.998 232.512 43.998C232.258 43.998 232.097 44.2181 232.029 44.6582C231.962 45.0983 231.632 45.3353 231.039 45.3691C230.87 45.4707 230.768 45.5892 230.734 45.7246L230.938 46.3594C230.938 46.4609 230.624 46.8587 229.998 47.5527L229.795 48.2129C229.473 48.3314 229.211 49.2031 229.008 50.8281L228.703 52.5801L228.754 53.2656L228.652 53.6211L228.957 54.6621L228.906 55.2461C228.906 55.5169 229.008 55.6523 229.211 55.6523C229.312 55.6523 229.541 55.5 229.896 55.1953L230.252 55.043C231.318 54.5013 231.979 53.9766 232.232 53.4688C232.3 53.401 232.419 53.3333 232.588 53.2656C232.774 53.1979 232.91 53.1048 232.994 52.9863C233.079 52.8678 233.146 52.7832 233.197 52.7324C234.23 52.0553 234.898 51.4629 235.203 50.9551C235.508 50.4473 235.821 50.1426 236.143 50.041L236.346 49.8379C236.549 49.6686 236.718 49.584 236.854 49.584C237.141 49.584 237.285 49.6686 237.285 49.8379L237.082 50.5488C237.251 51.0059 237.336 51.2682 237.336 51.3359C237.336 51.9284 237.074 52.2923 236.549 52.4277C236.329 52.6478 236.151 52.9017 236.016 53.1895C235.897 53.4772 235.626 53.6549 235.203 53.7227C234.915 54.1289 234.653 54.3997 234.416 54.5352C234.179 54.6536 234.061 54.7806 234.061 54.916V55.1445C233.925 55.3477 233.807 55.4831 233.705 55.5508L233.223 55.4492C233.155 55.6523 233.003 55.9316 232.766 56.2871C232.681 56.2194 232.605 56.1855 232.537 56.1855C232.3 56.1855 232.105 56.3294 231.953 56.6172C231.801 56.9049 231.691 57.0488 231.623 57.0488H231.039C230.954 57.0996 230.819 57.2096 230.633 57.3789C230.447 57.5482 230.133 57.6328 229.693 57.6328L228.906 57.7852C228.161 57.7852 227.476 57.5482 226.85 57.0742C226.223 56.5833 225.885 56.1432 225.834 55.7539C225.8 55.3477 225.665 54.8652 225.428 54.3066L225.377 53.2656C225.191 52.1823 224.979 51.6406 224.742 51.6406L224.691 51.9707L224.488 52.0723C224.387 52.597 224.217 52.8594 223.98 52.8594C223.879 52.9102 223.769 52.9948 223.65 53.1133L223.498 53.2148C223.43 53.2487 223.329 53.3926 223.193 53.6465C223.075 53.9004 222.728 54.2559 222.152 54.7129C221.915 55.3392 221.738 55.6523 221.619 55.6523L221.314 55.4492H221.264C221.128 55.4492 221.018 55.6523 220.934 56.0586C220.849 56.4479 220.68 56.6426 220.426 56.6426C220.358 56.6426 220.29 56.7611 220.223 56.998C220.172 57.2181 220.028 57.362 219.791 57.4297C219.554 57.4805 219.342 57.709 219.156 58.1152C218.97 58.5215 218.843 58.7246 218.775 58.7246C218.742 58.7246 218.691 58.7077 218.623 58.6738L218.191 58.7754C218.107 58.8939 217.988 59.0885 217.836 59.3594C217.684 59.4102 217.548 59.4779 217.43 59.5625C216.905 60.0703 216.211 60.3242 215.348 60.3242C214.738 60.3242 214.256 60.1973 213.9 59.9434C213.545 59.6725 213.333 59.444 213.266 59.2578C213.198 59.0716 213.071 58.8431 212.885 58.5723C212.699 58.2845 212.58 57.9375 212.529 57.5312ZM231.445 41.459L231.191 42.1953C231.411 42.1615 231.606 41.9329 231.775 41.5098C232.283 40.7819 232.63 40.3333 232.816 40.1641C233.036 40.1641 233.197 40.0286 233.299 39.7578C233.417 39.4701 233.62 39.1908 233.908 38.9199C233.908 38.8014 234.035 38.5729 234.289 38.2344C234.543 37.8958 234.704 37.6589 234.771 37.5234C234.856 37.3711 235.017 37.1764 235.254 36.9395C235.491 36.7025 235.711 36.2962 235.914 35.7207C236.134 35.1452 236.32 34.7982 236.473 34.6797C236.625 34.5612 236.701 34.3242 236.701 33.9688C236.701 33.4779 236.667 33.2324 236.6 33.2324C236.447 33.2324 236.329 33.334 236.244 33.5371C236.176 33.7233 236.016 33.9688 235.762 34.2734L234.898 35.7207C234.56 36.2962 234.331 36.7533 234.213 37.0918C234.111 37.4303 233.984 37.6335 233.832 37.7012C233.697 37.752 233.527 37.9128 233.324 38.1836L232.969 38.5391C232.884 38.7422 232.816 38.9876 232.766 39.2754L232.537 39.4785V39.9609C232.537 40.181 232.41 40.3841 232.156 40.5703C231.902 40.7396 231.775 40.8496 231.775 40.9004L231.445 41.459ZM222.66 51.7676L222.838 51.4375C223.126 51.3359 223.312 51.082 223.396 50.6758C223.532 50.5742 223.879 50.1341 224.438 49.3555C224.996 48.5768 225.275 48.1452 225.275 48.0605C225.106 47.8913 224.911 47.8066 224.691 47.8066C224.658 47.8066 224.556 47.8405 224.387 47.9082C224.217 47.9759 224.04 48.0267 223.854 48.0605C223.684 48.0944 223.498 48.1621 223.295 48.2637L222.66 48.1621C222.474 48.1621 222.059 48.4076 221.416 48.8984L220.832 48.7969C220.73 48.7969 220.561 49.0169 220.324 49.457L219.029 50.498H218.877C218.64 50.498 218.479 50.7096 218.395 51.1328C218.107 51.5052 217.836 51.7676 217.582 51.9199C217.328 52.0553 217.15 52.2585 217.049 52.5293V52.8594C216.575 53.3841 216.338 53.7819 216.338 54.0527C215.982 54.3913 215.745 54.7552 215.627 55.1445C215.525 55.5339 215.398 55.8639 215.246 56.1348C215.314 56.3717 215.365 56.668 215.398 57.0234C215.432 57.362 215.602 57.5312 215.906 57.5312C216.397 57.5312 216.939 57.235 217.531 56.6426C217.565 56.6087 217.709 56.5156 217.963 56.3633C218.217 56.2109 218.564 55.9147 219.004 55.4746C219.461 55.0176 219.715 54.7806 219.766 54.7637C219.935 54.5944 220.036 54.5098 220.07 54.5098L220.273 54.3066C220.273 54.2389 220.341 54.1628 220.477 54.0781C220.629 53.9935 220.824 53.8242 221.061 53.5703C221.298 53.2995 221.475 53.1387 221.594 53.0879C221.729 53.0371 221.822 52.9694 221.873 52.8848C221.924 52.7832 222.008 52.6901 222.127 52.6055C222.245 52.5208 222.305 52.4277 222.305 52.3262L222.355 52.0215L222.66 51.7676ZM254.195 53.418L254.602 53.0625C254.855 53.0625 255.008 52.9525 255.059 52.7324C255.109 52.4954 255.287 52.3092 255.592 52.1738C255.913 52.0384 256.21 51.7676 256.48 51.3613C256.751 50.9382 257.031 50.7266 257.318 50.7266C257.42 50.7266 257.538 50.8112 257.674 50.9805C257.809 51.1497 257.877 51.2852 257.877 51.3867C257.877 51.9453 257.708 52.5208 257.369 53.1133L257.268 53.8242L257.09 54.1543C256.836 54.2897 256.667 54.4336 256.582 54.5859C256.514 54.7383 256.32 54.9245 255.998 55.1445L255.744 55.5C255.372 55.6185 255.118 55.8132 254.982 56.084C254.864 56.3548 254.686 56.5072 254.449 56.541C254.229 56.5749 253.984 56.7441 253.713 57.0488C253.544 57.1335 253.34 57.2096 253.104 57.2773L253.053 57.5312C252.883 57.7005 252.613 57.8359 252.24 57.9375C251.885 58.0391 251.614 58.1406 251.428 58.2422C251.258 58.3268 251.14 58.3691 251.072 58.3691C250.751 58.3691 250.454 58.3099 250.184 58.1914C249.913 58.056 249.633 57.9714 249.346 57.9375C249.244 57.8359 249.185 57.7259 249.168 57.6074C249.151 57.4889 249.066 57.3366 248.914 57.1504C248.762 56.9473 248.686 56.6764 248.686 56.3379L248.787 55.8555C248.787 55.7878 248.745 55.7031 248.66 55.6016C248.576 55.5 248.533 55.4154 248.533 55.3477C248.533 55.2799 248.55 55.2292 248.584 55.1953C248.618 55.1615 248.635 55.1107 248.635 55.043C248.635 54.9583 248.618 54.8652 248.584 54.7637C248.55 54.6621 248.533 54.5775 248.533 54.5098L248.686 53.2656C248.686 53.1641 248.652 53.1133 248.584 53.1133C248.516 53.1133 248.389 53.1979 248.203 53.3672C248.034 53.5365 247.831 53.6211 247.594 53.6211C247.458 53.7227 247.348 53.9342 247.264 54.2559C247.128 54.4251 246.959 54.5775 246.756 54.7129L246.654 54.8652C246.62 54.9837 246.493 55.0853 246.273 55.1699C246.053 55.2376 245.901 55.3307 245.816 55.4492L245.562 55.7031L245.08 55.6523C245.046 55.6862 244.953 55.8385 244.801 56.1094C244.648 56.3633 244.454 56.5749 244.217 56.7441L242.287 58.3184C242.084 58.4538 241.788 58.623 241.398 58.8262L241.246 58.9785C239.892 59.8757 238.936 60.3242 238.377 60.3242C237.92 60.3242 237.387 60.1973 236.777 59.9434C236.168 59.6895 235.838 59.3848 235.787 59.0293L235.533 57.9883C235.381 57.7513 235.305 57.4212 235.305 56.998C235.305 56.7949 235.322 56.6595 235.355 56.5918V56.4395L235.305 55.6016C235.305 55.3984 235.465 55.2969 235.787 55.2969L235.736 54.6113C235.736 54.5436 235.88 54.2812 236.168 53.8242C236.473 53.3503 236.676 53.0794 236.777 53.0117L237.031 52.6816C237.014 52.4785 237.133 52.2669 237.387 52.0469C237.641 51.8099 237.844 51.5729 237.996 51.3359C238.148 51.099 238.436 50.8366 238.859 50.5488L239.621 49.7871C240.214 49.1947 240.857 48.7207 241.551 48.3652C241.652 48.3314 241.855 48.1621 242.16 47.8574C242.482 47.5527 242.837 47.3327 243.227 47.1973C243.633 47.0449 244.022 46.8587 244.395 46.6387C244.784 46.4186 245.089 46.3086 245.309 46.3086H245.512C245.579 46.3086 246.028 46.097 246.857 45.6738H247.01C247.077 45.6738 247.238 45.7415 247.492 45.877H247.543L247.949 45.6738C248.017 45.64 248.102 45.623 248.203 45.623C249.253 45.623 249.828 46.3509 249.93 47.8066C249.964 48.1113 250.048 48.2637 250.184 48.2637C250.353 48.2637 250.59 47.959 250.895 47.3496C251.216 46.7233 251.885 46.4102 252.9 46.4102C253.628 46.4102 253.992 46.8757 253.992 47.8066C253.992 48.9069 253.501 49.9479 252.52 50.9297C252.452 51.0651 252.401 51.2174 252.367 51.3867L252.012 52.4277V52.4785C252.012 52.5801 251.936 52.724 251.783 52.9102C251.648 53.0794 251.58 53.2318 251.58 53.3672L251.631 54.002L251.529 54.7129C251.529 55.0345 251.589 55.2461 251.707 55.3477C252.249 55.2122 252.638 54.9922 252.875 54.6875C253.129 54.3659 253.307 54.1882 253.408 54.1543L253.662 54.0527C253.814 53.7988 253.992 53.5872 254.195 53.418ZM245.766 53.418C245.833 53.0456 246.036 52.7663 246.375 52.5801C246.73 52.377 246.942 52.1738 247.01 51.9707C247.331 51.7337 247.788 51.3105 248.381 50.7012C248.99 50.0918 249.295 49.7194 249.295 49.584C249.295 49.5332 249.261 49.5078 249.193 49.5078H249.143L248.939 49.6348L248.482 49.584L248 49.6348L247.645 49.457L247.314 49.5078L246.807 49.4062C246.536 49.4062 246.299 49.4655 246.096 49.584C245.91 49.6855 245.537 49.804 244.979 49.9395C244.437 50.0749 243.946 50.3118 243.506 50.6504C243.066 50.972 242.744 51.1328 242.541 51.1328C242.423 51.3867 242.025 51.7507 241.348 52.2246C240.941 52.36 240.679 52.6562 240.561 53.1133C240.12 53.4688 239.9 53.6719 239.9 53.7227L239.723 54.1543C239.587 54.2728 239.418 54.3743 239.215 54.459C239.012 54.5267 238.893 54.7044 238.859 54.9922C238.826 55.263 238.707 55.5169 238.504 55.7539C238.318 55.974 238.225 56.1517 238.225 56.2871C238.225 57.1165 238.385 57.5312 238.707 57.5312C238.842 57.5312 239.122 57.4466 239.545 57.2773C239.985 57.0911 240.239 56.9642 240.307 56.8965C240.374 56.8288 240.51 56.7611 240.713 56.6934L241.195 56.4395C241.263 56.3717 241.339 56.3294 241.424 56.3125C241.508 56.2956 241.593 56.2448 241.678 56.1602C241.762 56.0586 241.915 55.957 242.135 55.8555C242.355 55.737 242.524 55.5846 242.643 55.3984C242.93 55.2292 243.396 54.9668 244.039 54.6113L244.572 54.2051C244.945 54.0358 245.173 53.8919 245.258 53.7734C245.342 53.6549 245.512 53.5365 245.766 53.418ZM279.561 54.9922H279.662L279.916 55.0938C279.95 55.0938 279.984 55.0768 280.018 55.043C280.018 54.7552 280.153 54.5098 280.424 54.3066C280.508 53.985 280.695 53.7396 280.982 53.5703C281.287 53.401 281.761 53.1217 282.404 52.7324L283.039 52.1738L283.344 52.0215L283.547 51.7676C283.733 51.5475 283.911 51.4375 284.08 51.4375C284.334 51.4375 284.461 51.5306 284.461 51.7168L284.232 52.2246L284.334 53.0625C284.334 53.3672 284.224 53.638 284.004 53.875C283.801 54.112 283.479 54.459 283.039 54.916L281.744 56.2871L281.059 56.6426C280.889 56.7441 280.737 56.8626 280.602 56.998L279.611 57.8359C279.611 58.0729 279.535 58.2507 279.383 58.3691H278.977L278.773 58.4707C278.655 58.7923 278.308 59.1055 277.732 59.4102L277.377 59.6641C277.258 59.7656 277.148 59.8164 277.047 59.8164L276.336 59.7148L275.854 59.8164C275.718 59.8164 275.532 59.7487 275.295 59.6133C275.075 59.4779 274.846 59.3763 274.609 59.3086C274.372 59.224 274.068 58.9108 273.695 58.3691C273.34 57.8105 273.145 57.4466 273.111 57.2773C273.111 57.2096 273.069 57.0996 272.984 56.9473C272.917 56.778 272.883 56.6764 272.883 56.6426C272.883 56.6087 272.959 56.4395 273.111 56.1348V56.084C273.111 56.0332 273.061 55.9147 272.959 55.7285C272.874 55.5423 272.832 55.3138 272.832 55.043C272.832 54.8906 272.781 54.696 272.68 54.459C272.815 54.3236 272.883 54.222 272.883 54.1543C272.883 54.0866 272.857 53.9935 272.807 53.875C272.756 53.7396 272.73 53.638 272.73 53.5703L272.883 52.3262L272.781 51.6914L272.832 51.082C272.832 50.7266 272.68 50.5488 272.375 50.5488C272.24 50.5488 272.07 50.6419 271.867 50.8281L271.689 50.8789C271.232 51.099 270.911 51.2852 270.725 51.4375C270.538 51.5729 270.344 51.6406 270.141 51.6406C270.039 51.7422 269.844 51.8353 269.557 51.9199L269.354 52.0723C269.286 52.14 269.15 52.2415 268.947 52.377C268.947 52.4277 268.626 52.7155 267.982 53.2402C267.356 53.748 266.789 54.2305 266.281 54.6875C265.773 55.1445 265.401 55.3984 265.164 55.4492C264.944 55.4831 264.834 55.6947 264.834 56.084C264.834 56.1517 264.682 56.2871 264.377 56.4902C264.343 56.4902 264.165 56.6764 263.844 57.0488C263.573 56.8457 263.421 56.7441 263.387 56.7441C263.167 56.7441 263.006 57.0234 262.904 57.582C262.803 57.8021 262.532 57.9375 262.092 57.9883C262.058 58.0052 261.999 58.1322 261.914 58.3691L261.812 58.4707H261.559C261.525 58.4707 261.406 58.5723 261.203 58.7754C261 58.9616 260.822 59.0801 260.67 59.1309C260.45 59.5879 260.264 59.8164 260.111 59.8164C260.044 59.8164 259.942 59.7826 259.807 59.7148C259.688 59.6471 259.536 59.5879 259.35 59.5371C259.163 59.4863 258.952 59.2832 258.715 58.9277C258.495 58.5553 258.385 58.2422 258.385 57.9883C258.385 56.1094 258.749 55.0853 259.477 54.916L259.527 54.8145V54.6113C259.527 54.3913 259.62 54.2389 259.807 54.1543C260.01 54.0527 260.213 53.8665 260.416 53.5957C260.619 53.3079 260.755 53.1471 260.822 53.1133H261.152C261.22 53.1133 261.254 52.9355 261.254 52.5801C261.254 52.4785 261.296 52.3854 261.381 52.3008C261.465 52.2161 261.516 52.0977 261.533 51.9453C261.55 51.776 261.669 51.5137 261.889 51.1582C262.126 50.7858 262.244 50.5658 262.244 50.498L262.193 50.3965C261.77 50.7858 261.465 50.9974 261.279 51.0312C261.093 51.0651 260.839 51.3105 260.518 51.7676L260.111 51.6914C259.4 52.2161 258.96 52.5124 258.791 52.5801C258.622 52.6478 258.436 52.8424 258.232 53.1641C258.232 53.2656 258.173 53.3333 258.055 53.3672C257.936 53.401 257.716 53.5365 257.395 53.7734H257.242C256.819 53.7734 256.607 53.4688 256.607 52.8594L257.141 51.4121C257.293 50.9551 257.648 50.5742 258.207 50.2695C258.783 49.9479 259.265 49.6432 259.654 49.3555C260.044 49.0677 260.433 48.9154 260.822 48.8984L261 48.6445C261.576 48.4245 261.965 48.0775 262.168 47.6035C262.371 47.1296 262.65 46.8926 263.006 46.8926C263.937 46.8926 264.648 47.2396 265.139 47.9336C265.63 48.6107 265.875 49.1523 265.875 49.5586L265.926 50.2441C265.926 50.4811 265.875 50.8112 265.773 51.2344C265.57 51.5391 265.469 51.7676 265.469 51.9199C265.469 52.0553 265.553 52.123 265.723 52.123C265.824 52.123 265.96 52.0553 266.129 51.9199C266.298 51.7676 266.484 51.6322 266.688 51.5137C266.908 51.3952 267.035 51.2936 267.068 51.209C267.238 50.8027 267.534 50.5234 267.957 50.3711C268.38 50.2188 268.643 50.0918 268.744 49.9902L268.998 49.7871L269.201 49.4062C269.658 49.2031 269.963 49.0169 270.115 48.8477C270.268 48.6784 270.471 48.5684 270.725 48.5176C270.979 48.4668 271.266 48.3145 271.588 48.0605L271.969 47.959L272.324 47.7559C272.358 47.722 272.46 47.6797 272.629 47.6289C272.798 47.5781 273.044 47.4935 273.365 47.375C273.704 47.2396 273.932 47.1719 274.051 47.1719C274.914 47.1719 275.591 47.5189 276.082 48.2129C276.59 48.9069 276.844 49.4655 276.844 49.8887L276.793 50.3457L276.895 51.0312V51.1328L276.691 52.5293L276.742 53.0117C276.742 53.8073 276.573 54.3574 276.234 54.6621C276.15 54.696 276.107 54.7806 276.107 54.916V55.1445L276.615 56.2109C276.768 56.5833 276.886 56.7695 276.971 56.7695L277.783 56.541C278.02 56.4733 278.215 56.2956 278.367 56.0078C278.503 55.9401 278.74 55.737 279.078 55.3984C279.18 55.1276 279.34 54.9922 279.561 54.9922Z" fill="black"/>
<g clip-path="url(#clip0)">
<path d="M81.2141 46.4002C82.7228 46.4002 83.9501 45.2812 83.9501 43.9056C83.9501 42.5301 82.7227 41.411 81.2141 41.411C79.7055 41.411 78.478 42.5301 78.478 43.9056C78.478 45.2812 79.7054 46.4002 81.2141 46.4002ZM81.2141 42.3194C82.1733 42.3194 82.9537 43.031 82.9537 43.9056C82.9537 44.7803 82.1733 45.4918 81.2141 45.4918C80.2548 45.4918 79.4744 44.7803 79.4744 43.9056C79.4744 43.031 80.2547 42.3194 81.2141 42.3194Z" fill="black"/>
<path d="M75.1453 52.6497L77.9794 54.2282C78.1361 54.3155 78.3104 54.3593 78.4852 54.3593C78.6426 54.3593 78.8004 54.3238 78.9461 54.2523C79.2535 54.1015 79.4443 53.8215 79.4566 53.5035L79.5705 50.5446C79.5828 50.2272 79.4144 49.9361 79.1204 49.7659C78.8265 49.5957 78.4659 49.5807 78.156 49.7257L75.208 51.1061C74.8959 51.2522 74.694 51.5415 74.681 51.8612C74.6679 52.1808 74.846 52.4829 75.1453 52.6497ZM78.5733 50.5516L78.4624 53.4327L75.7027 51.8956L78.5733 50.5516Z" fill="black"/>
<path d="M95.5018 52.3582C95.777 52.3582 96 52.1549 96 51.904V40.626C96 39.5956 95.0806 38.7574 93.9506 38.7574H84.6359V36.4536C84.6359 35.4189 83.7126 34.5771 82.5777 34.5771H81.5593C81.2841 34.5771 81.0612 34.7804 81.0612 35.0313C81.0612 35.2821 81.2841 35.4855 81.5593 35.4855H82.5777C83.1632 35.4855 83.6395 35.9198 83.6395 36.4536V38.7573H82.5395V37.1215C82.5395 36.7161 82.1777 36.3862 81.7331 36.3862H76.2669C75.8223 36.3862 75.4605 36.7161 75.4605 37.1215V38.7574H74.3604V36.4536C74.3604 35.9198 74.8367 35.4855 75.4222 35.4855H79.2435C79.5187 35.4855 79.7417 35.2821 79.7417 35.0313C79.7417 34.7804 79.5187 34.5771 79.2435 34.5771H75.4222C74.2874 34.5771 73.3641 35.4189 73.3641 36.4536V38.7573H64.0494C62.9194 38.7573 62 39.5956 62 40.626V58.044C62 58.7524 62.4345 59.37 63.0734 59.6868C63.3637 59.8309 63.6963 59.9128 64.0494 59.9128H64.0571V60.845C64.0571 61.5118 64.652 62.0542 65.3833 62.0542H67.1448C67.6912 62.0542 68.1749 61.7552 68.3771 61.2922L68.9794 59.9126H89.0208L89.6231 61.2923C89.8253 61.7551 90.309 62.0542 90.8554 62.0542H92.6169C93.3482 62.0542 93.9431 61.5118 93.9431 60.845V59.9128H93.9508C94.3039 59.9128 94.6365 59.8309 94.9268 59.6868C95.5657 59.37 96.0002 58.7524 96.0002 58.044V54.0136C96.0002 53.7627 95.7772 53.5594 95.502 53.5594C95.2268 53.5594 95.0038 53.7627 95.0038 54.0136V55.4351C94.9754 55.4344 94.9471 55.4329 94.9186 55.4329C93.1466 55.4329 91.705 56.7473 91.705 58.363C91.705 58.5817 91.7314 58.7958 91.7824 59.0043H88.067V50.8965C88.4507 50.7946 88.7321 50.4717 88.7321 50.0894V48.5806C88.7321 48.1983 88.4507 47.8753 88.067 47.7734V39.6658H91.7824C91.7314 39.8743 91.705 40.0885 91.705 40.3074C91.705 41.923 93.1466 43.2374 94.9186 43.2374C94.9471 43.2374 94.9754 43.236 95.0038 43.2353V46.787L91.8469 48.4343C91.3715 48.6825 91.168 49.2013 91.3631 49.6679L92.0973 51.4246C92.2157 51.708 92.4646 51.9256 92.7801 52.0216C92.895 52.0566 93.0134 52.0738 93.1311 52.0738C93.3368 52.0738 93.5403 52.0212 93.7192 51.9185L95.0038 51.1808V51.904C95.0036 52.1549 95.2267 52.3582 95.5018 52.3582ZM94.9184 56.3414C94.9468 56.3414 94.9751 56.3419 95.0034 56.3428V58.0437C95.0034 58.4078 94.7802 58.7253 94.4521 58.8882C94.3029 58.9621 94.132 59.0042 93.9505 59.0042H92.8145C92.7392 58.7994 92.7011 58.5846 92.7011 58.3629C92.7011 57.2482 93.6958 56.3414 94.9184 56.3414ZM92.4813 59.9126C92.4817 59.9126 92.4822 59.9127 92.4827 59.9127H92.9466V60.8449C92.9466 61.0108 92.7985 61.1458 92.6167 61.1458H90.8552C90.7193 61.1458 90.599 61.0713 90.5487 60.9563L90.0931 59.9126H92.4813ZM85.8502 39.6658H87.0704V47.7394H85.8502V39.6658ZM76.4569 37.2947H81.5431V38.7574H76.4569V37.2947ZM62.9966 40.6259C62.9966 40.0966 63.4689 39.666 64.0494 39.666H65.526C65.6015 39.8714 65.6396 40.0862 65.6396 40.3074C65.6396 41.4221 64.6452 42.3289 63.4231 42.3289C63.2791 42.3289 63.1365 42.3164 62.9966 42.2916V40.6259ZM64.0494 59.0042C63.868 59.0042 63.6971 58.9621 63.5479 58.8882C63.2197 58.7253 62.9966 58.4078 62.9966 58.0437V56.3786C63.1364 56.3538 63.2789 56.3413 63.423 56.3413C64.6452 56.3413 65.6395 57.2482 65.6395 58.3629C65.6395 58.584 65.6014 58.7988 65.526 59.0042H64.0494ZM67.4513 60.9562C67.401 61.0713 67.2807 61.1458 67.1448 61.1458H65.3833C65.2015 61.1458 65.0534 61.0108 65.0534 60.8449V59.9127H65.8581C65.8586 59.9127 65.8591 59.9126 65.8595 59.9126H67.9069L67.4513 60.9562ZM69.9332 47.7735C69.5496 47.8754 69.2682 48.1984 69.2682 48.5806V50.0894C69.2682 50.4717 69.5496 50.7946 69.9332 50.8966V59.0043H66.5584C66.6095 58.7956 66.6359 58.5815 66.6359 58.363C66.6359 56.7473 65.1946 55.4329 63.423 55.4329C63.2796 55.4329 63.1372 55.4417 62.9963 55.4588V43.2116C63.1372 43.2287 63.2796 43.2374 63.423 43.2374C65.1946 43.2374 66.6359 41.923 66.6359 40.3074C66.6359 40.0888 66.6095 39.8746 66.5582 39.6658H69.9331V47.7735H69.9332ZM72.1498 59.0042H70.9296V50.9305H72.1498V59.0042ZM72.8148 50.0221H70.2645V48.6479H72.8148V50.0221ZM84.8539 47.7735C84.4702 47.8754 84.1888 48.1984 84.1888 48.5806V50.0894C84.1888 50.4717 84.4701 50.7946 84.8539 50.8966V59.0043H73.1461V50.8966C73.5297 50.7946 73.8112 50.4717 73.8112 50.0894V48.5806C73.8112 48.1984 73.5298 47.8754 73.1461 47.7735V46.7486C73.1461 46.4978 72.9231 46.2944 72.6479 46.2944C72.3727 46.2944 72.1497 46.4978 72.1497 46.7486V47.7395H70.9295V39.6658H72.1497V44.6618C72.1497 44.9126 72.3727 45.116 72.6479 45.116C72.9231 45.116 73.1461 44.9126 73.1461 44.6618V39.6658H84.8539V47.7735ZM87.0705 59.0042H85.8503V50.9305H87.0705V59.0042ZM87.7355 50.0221H85.1851V48.6479H87.7355V50.0221ZM95.0034 42.3275C94.975 42.3285 94.9467 42.3289 94.9184 42.3289C93.6958 42.3289 92.7011 41.4221 92.7011 40.3074C92.7011 40.0856 92.7391 39.8708 92.8145 39.666H93.9506C94.5311 39.666 95.0034 40.0966 95.0034 40.6259V42.3275H95.0034ZM93.188 51.1498C93.1519 51.1706 93.1178 51.1667 93.0954 51.16C93.073 51.1532 93.0432 51.1374 93.028 51.1011L92.2938 49.3444C92.2746 49.2984 92.2947 49.2473 92.3416 49.2228L95.0036 47.8337V50.1073L93.188 51.1498Z" fill="black"/>
</g>
<path d="M26.0473 58.3863C24.711 59.1139 23.2424 59.9347 21.6415 60.8486L21.1948 60.1834L23.2161 58.1532C23.4463 57.9293 23.4958 57.684 23.3647 57.4173C22.9369 56.5799 22.3739 55.5202 21.6759 54.2383L12.8205 37.9753L7.06822 41.1075L7.97817 46.2319L7.38846 46.7009L3.7882 41.0978L3.83128 40.9053C6.52741 39.4935 9.09764 38.1222 11.542 36.7912L15.8929 34.4221C18.3263 33.097 20.8838 31.6763 23.5652 30.1599L23.7339 30.2371L25.8218 36.5158L25.2321 36.9848L21.7668 33.104L16.0145 36.2362L24.8698 52.4991C25.5679 53.781 26.1525 54.8289 26.6238 55.6427C26.7767 55.8975 27.0096 55.989 27.3226 55.9172L30.1247 55.321L30.5389 56.0039C28.8372 56.8882 27.34 57.6823 26.0473 58.3863ZM24.3375 28.9788C25.919 27.6669 27.4798 26.3171 29.0199 24.9292L29.2375 24.9797C29.7393 26.0304 30.4993 27.5039 31.5177 29.4001C32.547 31.2904 33.7094 33.4251 35.0049 35.8043C36.2326 33.5582 37.6613 31.9916 39.2908 31.1043C40.8009 30.282 42.232 30.0521 43.5843 30.4144C44.9306 30.7658 46.0474 31.7563 46.9347 33.3858L50.0669 39.1382C50.7472 40.3875 51.3052 41.3865 51.741 42.1351C51.9057 42.4116 52.145 42.5278 52.459 42.4836L54.5858 42.0439L54.9821 42.6942C53.5304 43.4425 52.2722 44.1065 51.2076 44.6862C50.1429 45.2659 48.9676 45.9269 47.6818 46.6694L47.2528 46.0368L48.6087 44.6858C48.8221 44.4569 48.8717 44.2116 48.7573 43.9499C48.6854 43.7919 48.5045 43.4467 48.2146 42.9144L44.3459 35.8096C43.6183 34.4733 42.7773 33.6918 41.8228 33.4651C40.8624 33.2274 39.7576 33.4488 38.5083 34.129C37.4327 34.7146 36.4395 35.5935 35.5284 36.7657L39.5124 44.0824C40.2459 45.4295 40.9282 46.6566 41.5592 47.7637C41.7357 48.062 41.975 48.1782 42.2772 48.1122L44.2381 47.6783L44.6345 48.3287C43.2479 49.0414 42.0223 49.6876 40.9577 50.2674C39.893 50.8471 38.6417 51.5496 37.2037 52.3748L36.7747 51.7422L38.3233 50.2018C38.5585 49.9611 38.6105 49.7074 38.4794 49.4407C37.9332 48.386 37.2194 47.0493 36.338 45.4306L32.6291 38.6191C31.4223 36.4029 30.3492 34.4449 29.4096 32.7453C28.4809 31.0397 27.7665 29.7666 27.2666 28.9261L24.7118 29.4722L24.3375 28.9788ZM69.6759 33.1299C69.066 34.2085 68.3402 35.1389 67.4986 35.9211C66.6569 36.7034 65.8178 37.3223 64.9813 37.7777C62.5913 39.0791 60.315 39.4383 58.1524 38.8553C55.9839 38.2614 54.2401 36.7531 52.921 34.3305C51.6078 31.9188 51.2131 29.5773 51.737 27.3061C52.2717 25.029 53.6798 23.2693 55.9612 22.0271C57.8732 20.9859 59.675 20.7513 61.3667 21.3231C63.0524 21.8841 64.4455 23.1749 65.5457 25.1956C65.7114 25.4998 65.8637 25.8182 66.0026 26.151L55.6712 31.7766C56.9431 34.1123 58.4027 35.4866 60.05 35.8994C61.6915 36.3014 63.68 35.8665 66.0157 34.5947C67.0586 34.0268 68.1189 33.3227 69.1966 32.4824L69.6759 33.1299ZM62.0722 26.5376L61.806 26.0488C60.966 24.5061 60.1158 23.5395 59.2552 23.149C58.4055 22.7525 57.4918 22.8204 56.514 23.3528C55.2213 24.0567 54.487 25.0622 54.3113 26.3691C54.1356 27.6761 54.3652 29.0159 55 30.3886L62.0722 26.5376Z" fill="black"/>
<defs>
<clipPath id="clip0">
<rect x="62" y="31" width="34" height="31" fill="white"/>
</clipPath>
</defs>
</svg>
